<svg version="1.0" xmlns="http://www.w3.org/2000/svg"
 width="41.000000pt" height="41.000000pt" viewBox="0 0 41.000000 41.000000"
 preserveAspectRatio="xMidYMid meet">
<metadata>
Created by potrace 1.16, written by Peter Selinger 2001-2019
</metadata>
<g transform="translate(0.000000,41.000000) scale(0.100000,-0.100000)"
fill="#000000" stroke="none">
<path d="M93 398 c-18 -24 -23 -49 -13 -69 10 -17 7 -19 -25 -19 -35 0 -35 0
-35 -45 l0 -45 89 0 90 0 4 43 4 42 1 -42 2 -43 90 0 90 0 0 45 0 45 -42 0
c-33 0 -39 3 -30 12 7 7 12 24 12 38 0 35 -17 50 -57 50 -24 0 -37 -7 -49 -25
l-16 -25 -20 25 c-21 28 -78 35 -95 13z"/>
<path d="M50 105 l0 -105 75 0 75 0 0 105 c0 58 -2 105 -5 105 -2 0 -15 -20
-27 -44 -21 -41 -25 -43 -42 -31 -18 13 -18 16 -2 39 9 14 16 28 16 31 0 3
-20 5 -45 5 l-45 0 0 -105z"/>
<path d="M210 105 l0 -105 75 0 75 0 0 105 0 105 -45 0 c-50 0 -53 -4 -29 -39
14 -19 14 -25 3 -32 -23 -14 -28 -11 -49 31 -11 22 -23 40 -25 40 -3 0 -5 -47
-5 -105z"/>
</g>
</svg>
