<svg id="Layer_1" data-name="Layer 1" xmlns="http://www.w3.org/2000/svg" xmlns:xlink="http://www.w3.org/1999/xlink" viewBox="0 0 294.0135 294"><defs><style>.cls-1{fill:url(#linear-gradient);}.cls-2{fill:url(#linear-gradient-2);}.cls-3{fill:url(#linear-gradient-3);}.cls-4{fill:url(#linear-gradient-4);}.cls-5{fill:url(#linear-gradient-5);}.cls-6{fill:url(#linear-gradient-6);}.cls-7{fill:url(#linear-gradient-7);}.cls-8{fill:url(#linear-gradient-8);}</style><linearGradient id="linear-gradient" x1="297.0068" y1="162.7453" x2="47.693" y2="162.7453" gradientUnits="userSpaceOnUse"><stop offset="0" stop-color="#ffc907"/><stop offset="0.5" stop-color="#ee1d51"/><stop offset="1" stop-color="#882890"/></linearGradient><linearGradient id="linear-gradient-2" x1="162.7453" y1="3" x2="162.7453" y2="252.3813" xlink:href="#linear-gradient"/><linearGradient id="linear-gradient-3" x1="137.356" y1="297" x2="137.356" y2="47.6187" xlink:href="#linear-gradient"/><linearGradient id="linear-gradient-4" x1="37.646" y1="245.5493" x2="213.9326" y2="69.2628" xlink:href="#linear-gradient"/><linearGradient id="linear-gradient-5" x1="54.2616" y1="37.8352" x2="230.6089" y2="214.1825" xlink:href="#linear-gradient"/><linearGradient id="linear-gradient-6" x1="262.1547" y1="54.2649" x2="85.8682" y2="230.5515" xlink:href="#linear-gradient"/><linearGradient id="linear-gradient-7" x1="2.9932" y1="138.3894" x2="252.3745" y2="138.3894" xlink:href="#linear-gradient"/><linearGradient id="linear-gradient-8" x1="245.7343" y1="262.1607" x2="69.4384" y2="85.8648" xlink:href="#linear-gradient"/></defs><title>logo</title><path class="cls-1" d="M47.693,154.8226c.0406.7024.0811,1.4183.1216,2.1208a1.3109,1.3109,0,0,1,.0135.23c.0405.5809.0946,1.1753.1486,1.7561l.0811.9321c.054.662.135,1.3239.2161,1.9723.081.797.1756,1.5805.2972,2.364.0945.7835.2161,1.567.3512,2.3505q.5673,3.546,1.3914,7.0109c.1756.7835.3647,1.5535.5809,2.3235.3917,1.54.824,3.08,1.31,4.5929.23.7565.4728,1.5264.7429,2.2829q.3041.9321.6485,1.8642c.1891.5268.3782,1.0537.5808,1.5805.4593,1.2428.9591,2.4721,1.486,3.7013.23.5944.4863,1.1888.7564,1.77.0136.027.0136.0405.0271.054q.4661,1.0536.9726,2.1073a2.8618,2.8618,0,0,0,.1351.2972c.3107.6619.6349,1.31.9726,1.9723.3647.7294.7294,1.4454,1.1212,2.1613.3377.6484.7024,1.2969,1.0807,1.9453.2972.5538.6079,1.0942.9321,1.6345.3782.6619.77,1.3238,1.1887,1.9722.2972.4864.5944.9592.9051,1.4455.23.3647.4593.7159.7024,1.0806.1756.27.3513.54.54.8106.2837.4187.5673.851.8645,1.2563q2.27,3.2622,4.8226,6.3895c.4863.6079.9861,1.2023,1.5129,1.7966q.8106.9726,1.6616,1.9047c.5673.6349,1.1482,1.2563,1.7291,1.8642.3242.3377.6484.689.9861,1.0267.3377.3512.6754.7024,1.0131,1.0266.6755.6754,1.3644,1.3509,2.0533,1.9993.5.4728,1,.9456,1.4995,1.4049a124.7238,124.7238,0,0,0,155.6319,10.9554A124.734,124.734,0,0,0,258.44,50.78c.135.1351.27.27.3917.4188,1.1077,1.2023,2.1749,2.4315,3.2285,3.6743.5134.5809,1,1.1753,1.486,1.77.081.0946.1621.1892.23.27.6484.7835,1.2833,1.5805,1.9047,2.3775.9456,1.2023,1.8642,2.4045,2.7558,3.6338.54.716,1.0536,1.4319,1.567,2.1614.5673.7835,1.1212,1.5805,1.648,2.3775.5.7294,1,1.4724,1.4724,2.2154a3.88,3.88,0,0,1,.3783.5809c.4863.7429.9726,1.4994,1.4319,2.2559a6.1278,6.1278,0,0,1,.4593.7429c.4187.6755.824,1.3509,1.2293,2.04.2026.3242.3917.6484.5808.9727.4593.7835.9051,1.5805,1.3509,2.391a2.7241,2.7241,0,0,1,.2431.4322c.5134.9321,1.0267,1.8777,1.513,2.8233.4188.797.824,1.594,1.2293,2.391.2972.5944.5943,1.1753.8645,1.7832.4053.797.7835,1.6075,1.1482,2.418.3378.7024.6485,1.4184.9591,2.1343.23.5.4458.9862.6485,1.486.2431.5538.4863,1.1212.7159,1.6886.23.5538.4593,1.1077.6754,1.675.1621.3647.2972.743.4458,1.1212.3377.8646.6619,1.7291.9861,2.5937.0676.1621.1216.3377.1757.5.27.7294.5268,1.4589.7835,2.1884q.3039.8509.5673,1.702c.23.6485.4323,1.2969.6349,1.9453.0811.23.1486.4728.23.7159.3107,1.0132.6214,2.0263.905,3.053.3242,1.1077.6349,2.2154.9186,3.3231q.4255,1.6209.81,3.242a2.4389,2.4389,0,0,0,.0676.2567c.23,1,.4593,1.9992.6754,3.0124.027.1756.0675.3647.1081.5673.1891.8646.3647,1.7426.5268,2.6072.0675.3512.1351.7159.2026,1.0672.1486.77.2837,1.5534.4053,2.3234.1756,1.0267.3377,2.0533.4728,3.0935.0945.5944.1756,1.1887.2431,1.7966.1081.743.2027,1.4725.2837,2.2019.1216,1.0132.23,2.0128.3242,3.0259q.5066,5.3089.6349,10.7393c.0135.3783.027.7565.027,1.1347.0271.77.0271,1.5265.0271,2.2965,0,.743-.0136,1.4994-.0271,2.2694,0,.3918-.0135.7835-.027,1.1618a124.6991,124.6991,0,0,1-249.26,1.3914Z" transform="translate(-2.9932 -3)"/><path class="cls-2" d="M226.3165,226.35a124.2118,124.2118,0,0,1-73.4594,26.031c.6754-.0135,1.3508-.0406,2.04-.0811.5944-.027,1.1888-.054,1.77-.0945q.3241-.02.6889-.0406c.4458-.0405.8781-.0675,1.31-.108.4593-.0406.9051-.0811,1.3644-.1216.6349-.0676,1.2833-.1351,1.9317-.2161.6754-.0676,1.3509-.1486,2.0128-.2567a4.2,4.2,0,0,0,.4323-.054c.7159-.0946,1.4184-.2027,2.1208-.3242h.04c1.567-.2567,3.134-.54,4.674-.8781.7835-.1621,1.5535-.3242,2.3235-.5133.7835-.1756,1.5534-.3783,2.3234-.5809.77-.1891,1.54-.4053,2.2965-.6349.77-.2026,1.54-.4323,2.2964-.6754.77-.23,1.5265-.4863,2.283-.743l1.6615-.5674c.6619-.2431,1.3374-.4863,1.9993-.7429.8375-.3107,1.6615-.6484,2.4856-.9861.4863-.1892.9861-.4053,1.4724-.6079,1.7291-.743,3.4312-1.5265,5.12-2.3775.7025-.3378,1.3914-.689,2.08-1.0672.7159-.3647,1.4048-.743,2.1073-1.1347.7024-.3783,1.3914-.77,2.08-1.1888.6889-.3917,1.3644-.797,2.04-1.2293.6754-.4052,1.3508-.8375,2.0128-1.2833.6754-.4187,1.3373-.8645,1.9857-1.3238.5674-.3782,1.1347-.7835,1.7021-1.2023a3.0655,3.0655,0,0,0,.4323-.2972c.5808-.4187,1.1617-.8375,1.7291-1.2833.54-.3917,1.0807-.81,1.6075-1.2428.5133-.3917,1.0131-.797,1.5129-1.2022.6079-.5,1.2023-1,1.7967-1.513.4593-.3917.9051-.7835,1.3508-1.1752.8241-.7295,1.6211-1.4589,2.4181-2.2154.1891-.1756.3782-.3647.5673-.5539.5-.4593,1-.9456,1.486-1.4319v-.0135c.7024-.6889,1.3508-1.3508,1.9992-2.04A124.7164,124.7164,0,0,0,50.773,41.5534a3.7925,3.7925,0,0,1,.4187-.3918c1.2023-1.1077,2.4316-2.1883,3.6744-3.2285.5808-.5133,1.1752-1,1.77-1.4859.0945-.0811.1756-.1621.27-.23.7834-.6484,1.5805-1.2833,2.3775-1.9047,1.2563-.9861,2.5125-1.9452,3.7959-2.8773.5673-.4323,1.1347-.8375,1.702-1.2428.6349-.4458,1.2563-.8916,1.9047-1.3238a7.44,7.44,0,0,1,.6755-.4593c.8645-.6079,1.7561-1.1888,2.6476-1.77.9592-.6214,1.9318-1.2428,2.9044-1.8372.8375-.5268,1.6885-1.0267,2.54-1.5265q.4458-.2837.8916-.5268c.77-.4458,1.54-.8916,2.3234-1.3238a1.7071,1.7071,0,0,1,.3107-.1621c.9186-.5134,1.8372-1.0132,2.7693-1.5.6889-.3647,1.3914-.7295,2.0938-1.0672.6889-.3647,1.3779-.7024,2.08-1.04.6754-.3242,1.3509-.6484,2.04-.9591a2.1882,2.1882,0,0,1,.3107-.1486c.7835-.3648,1.567-.7295,2.364-1.0672.4863-.23.9861-.4458,1.4859-.6484.5944-.27,1.1888-.5133,1.7967-.7565.3917-.1621.797-.3377,1.2022-.4863.5809-.2432,1.1483-.4728,1.7291-.6889.77-.2972,1.54-.5944,2.3235-.8781.1486-.054.2972-.1081.4593-.1621,1.0131-.3782,2.04-.7295,3.0664-1.0807,1.0942-.3647,2.1884-.7294,3.2826-1.0672,1.1077-.3512,2.2019-.6754,3.31-1q4.9846-1.4184,10.0368-2.4991c1.1213-.2431,2.2425-.4593,3.3772-.6754,1.1212-.2161,2.2559-.4052,3.3771-.5944,1.1347-.1891,2.2695-.3512,3.4042-.5133C130.595,4.27,131.7027,4.1347,132.81,4c.1216-.0135.2566-.027.3917-.0405,1.0267-.1216,2.0668-.23,3.0935-.3242q1.4791-.1419,2.9584-.2432c1.2022-.0945,2.418-.1621,3.6473-.2161,1.2157-.0675,2.445-.1081,3.6608-.1351,2.2829-.054,4.5659-.054,6.8623,0a124.7019,124.7019,0,0,1,72.8921,223.31Z" transform="translate(-2.9932 -3)"/><path class="cls-3" d="M63.2143,236.7789A124.7534,124.7534,0,0,0,249.43,258.2575c-1.8642,1.7426-3.7689,3.4041-5.7142,5.0117-.5268.4322-1.0536.8645-1.594,1.2833-.4728.4052-.9456.7835-1.4319,1.1482-.7565.6079-1.5129,1.1888-2.2829,1.77-.9051.6754-1.8237,1.3509-2.7423,2.0128q-1.1346.81-2.31,1.621c-1.2293.8646-2.4721,1.6886-3.7284,2.4856-.8375.5538-1.6885,1.0807-2.54,1.6075-.9456.5809-1.8912,1.1482-2.8368,1.7156a.9345.9345,0,0,1-.2566.1351c-.8781.5133-1.7561,1.0266-2.6477,1.5129a2.7256,2.7256,0,0,1-.4323.2432c-.9321.5133-1.8777,1.0266-2.8233,1.5129-.878.4593-1.7426.9051-2.6341,1.3509-.3918.2026-.797.4053-1.2158.5944-.6214.3107-1.2563.6079-1.8912.8915q-.4256.2229-.851.4053c-.7025.3377-1.4184.6484-2.1344.9591-.5.23-.9861.4458-1.4859.6484-.5539.2432-1.1212.4863-1.6886.716-.5539.23-1.1077.4593-1.6751.6754-.3647.1486-.7429.2972-1.1212.4458-.851.3377-1.7291.6619-2.5936.9861a4.0627,4.0627,0,0,1-.4323.1486c-1.0131.3782-2.04.73-3.0664,1.0807-1.0942.3647-2.1884.7294-3.2826,1.0672-1.1077.3512-2.2019.6754-3.2961,1h-.027q-3.3231.9523-6.66,1.7426c-1.1212.27-2.2424.5133-3.3636.7565s-2.2425.4593-3.3772.6754c-1.1212.2161-2.2424.4052-3.3771.5944-1.1212.1891-2.2289.3512-3.35.5133a.6066.6066,0,0,1-.1486.0135q-1.54.2229-3.08.4053c-.3242.0405-.6484.0675-.9726.108-.8781.0946-1.7426.1891-2.6207.27-1,.0946-2.0127.1756-3.0124.2432-1.2022.0945-2.418.1621-3.6338.2161-1.2427.0675-2.472.1081-3.7013.1351-2.2829.054-4.5389.054-6.8083,0h-.027c-.2432,0-.4863-.0135-.7295-.027a124.7077,124.7077,0,0,1,1.2968-249.3138c-.6619.0135-1.3373.0406-1.9992.0811-.6349.027-1.2833.054-1.9182.108-.1621,0-.3242.0136-.5.0271-.5.0405-1,.0675-1.4859.1215-.3917.0271-.797.0676-1.1888.1081-.6349.054-1.2562.1216-1.8911.2026-.7565.0811-1.5265.1756-2.283.2837-.0405.0135-.081.0135-.1216.027-.77.0946-1.5264.2027-2.2829.3377h-.0405c-1.567.2567-3.12.54-4.66.8781-.7835.1486-1.5535.3242-2.3235.5133-.7835.1756-1.5534.3648-2.3234.5809-.77.1891-1.5535.4053-2.31.6349-.77.2026-1.5129.4323-2.2694.6619a.1955.1955,0,0,1-.0946.027c-.743.23-1.4724.4728-2.2019.73-.5538.1891-1.1077.3782-1.648.5674-.743.27-1.486.54-2.2289.824-.7565.2837-1.4995.5808-2.2425.8915-.4187.1621-.824.3378-1.2292.5134-.5134.2161-1.0267.4322-1.54.6619-2.0263.9051-4.0255,1.8642-5.9843,2.9178q-.851.4255-1.6615.8916a4.391,4.391,0,0,0-.6079.3377c-.6349.3377-1.2563.6889-1.8642,1.0672-.6889.3917-1.3779.797-2.0533,1.2293-.6754.4052-1.3509.8375-2.0128,1.2833-.6619.4187-1.3238.8645-1.9857,1.3238-.5674.3782-1.1347.7835-1.7021,1.2023a4.11,4.11,0,0,0-.4323.2972c-.5808.4187-1.1617.8375-1.7291,1.2833-.54.3917-1.0807.8105-1.6075,1.2428-1.4049,1.0941-2.7963,2.2559-4.1606,3.4581-.4728.4053-.9456.8241-1.4049,1.2563-.5133.4458-1.0132.9186-1.513,1.3914-.6889.6484-1.3778,1.3239-2.0533,1.9993s-1.3508,1.3643-1.9992,2.0533l-.4458.4863c-.2972.2972-.5674.5809-.8375.8916a124.7056,124.7056,0,0,0-11.0771,155.767Z" transform="translate(-2.9932 -3)"/><path class="cls-4" d="M51.3538,248.5989a124.4014,124.4014,0,0,0,94.4788,48.3336c-1.0942-.0136-2.1884-.0676-3.2691-.1216-1.1077-.0541-2.2154-.1216-3.31-.2026-.9862-.0676-1.9588-.1486-2.9314-.2432-1.1212-.1081-2.2424-.2161-3.3636-.3512h-.0676c-1.1212-.1351-2.2559-.2837-3.3906-.4458a147.656,147.656,0,0,1-26.7875-6.349c-1.0942-.3648-2.1884-.7565-3.269-1.1482-.9591-.3513-1.9047-.716-2.8638-1.0807-.3243-.1351-.662-.2567-.9862-.3918-.7024-.2837-1.4049-.5673-2.1073-.8645-.3242-.1216-.6484-.2567-.9591-.3918-.743-.3242-1.4859-.6349-2.2154-.9726-.1756-.0675-.3512-.1486-.5268-.23-.3107-.1351-.6214-.27-.9321-.4188-.8781-.4053-1.7561-.81-2.6207-1.2293-.9321-.4458-1.8507-.9051-2.7692-1.3779-.7025-.3512-1.4049-.7159-2.0939-1.0941-.6754-.3378-1.3373-.7025-1.9992-1.0672-.8511-.4593-1.7021-.9456-2.5531-1.4319-.5944-.3377-1.1888-.689-1.7832-1.04-.6079-.3512-1.1887-.7159-1.7831-1.0807-.2432-.1486-.5-.2972-.743-.4593-.7159-.4322-1.4319-.8915-2.1343-1.3508-.8781-.5539-1.7426-1.1347-2.6072-1.7291-.6619-.4323-1.3238-.8781-1.9722-1.3509q-.3445-.2229-.689-.4863c-.905-.6349-1.8236-1.2968-2.7152-1.9722-.9726-.716-1.9182-1.4454-2.8638-2.1749-.9456-.743-1.8912-1.4994-2.8233-2.2694s-1.8506-1.5535-2.7692-2.337q-2.7558-2.391-5.417-4.9306c-.1621-.1486-.3242-.2972-.4863-.4593-.6619-.6214-1.3238-1.27-1.9857-1.9317-.54-.54-1.0672-1.0807-1.594-1.6346-.27-.27-.5269-.5538-.7835-.824A124.7352,124.7352,0,0,1,46.045,77.5807a125.9985,125.9985,0,0,1,17.1693-14.36A124.72,124.72,0,0,1,218.8328,74.163c-.2972-.27-.5944-.5268-.8916-.797-.4457-.3917-.8915-.7835-1.3508-1.1752-.5944-.5134-1.1888-1.0132-1.7967-1.513-.5-.4052-1-.8105-1.5129-1.2022-.5268-.4323-1.0672-.8511-1.6075-1.2428-.5674-.4458-1.1483-.8646-1.7291-1.2833a3.0655,3.0655,0,0,0-.4323-.2972c-.5674-.4188-1.1347-.8241-1.7021-1.2023-.6484-.4593-1.31-.9051-1.9722-1.3238,0-.0135-.0135,0-.0135,0-.662-.4458-1.3374-.8781-2.0128-1.2833-.6754-.4323-1.3509-.8376-2.04-1.2293-.6889-.4188-1.3779-.81-2.08-1.1888q-1.0538-.5876-2.1073-1.1347c-.689-.3782-1.3779-.7294-2.08-1.0672-1.6885-.851-3.3906-1.6345-5.12-2.3775-.4863-.2026-.9861-.4187-1.4724-.6079-.8241-.3377-1.6481-.6754-2.4856-.9861-.6619-.2566-1.3238-.5-1.9993-.7429l-1.6615-.5674c-.7565-.27-1.513-.5133-2.283-.743-.7564-.2431-1.5264-.4728-2.2964-.6754-.77-.23-1.54-.4458-2.31-.6349-.7565-.2161-1.5264-.4053-2.31-.5809-.77-.1891-1.54-.3512-2.3235-.5133-1.54-.3377-3.107-.6214-4.674-.8781h-.04c-.7024-.1215-1.4049-.23-2.1208-.3242-.1351-.0135-.2837-.04-.4188-.054-.716-.1081-1.4319-.2026-2.1479-.27-.6349-.081-1.2563-.1486-1.8912-.2026-.3917-.0405-.7835-.081-1.1887-.1081-.4863-.054-.9726-.081-1.4724-.1215-.1621-.0135-.3378-.0271-.5134-.0271-.6349-.054-1.2833-.081-1.9182-.108-2.5666-.1216-5.1467-.1486-7.7269-.0811a124.7057,124.7057,0,0,0-95.7756,200.98Z" transform="translate(-2.9932 -3)"/><path class="cls-5" d="M150.02,10.5108A124.7111,124.7111,0,0,1,224.4118,220.38c.4323-.4593.8646-.9186,1.2833-1.3914.5-.5268.9727-1.0671,1.4319-1.6075.6485-.7159,1.2563-1.4454,1.8507-2.1748.4593-.54.9051-1.0942,1.3374-1.6481,1-1.2428,1.9587-2.5126,2.8638-3.7959.4863-.6484.9321-1.2968,1.3643-1.9452.4728-.6484.9051-1.31,1.3239-1.9723.4458-.6754.878-1.3508,1.2833-2.0263.4323-.6754.8375-1.3508,1.2293-2.04.3782-.6079.7294-1.2293,1.0671-1.8642a4.3973,4.3973,0,0,0,.3378-.6079q.4659-.81.8915-1.6616c1.27-2.3775,2.418-4.7955,3.4717-7.254.2161-.5.4188-1,.6214-1.5.3107-.743.6079-1.4859.8916-2.2424.2836-.73.5538-1.4724.824-2.2154l.5674-1.6616c.27-.7564.5133-1.5264.7429-2.2829.2432-.7565.4728-1.5265.6754-2.2965.23-.7564.4458-1.5264.6349-2.2964.2027-.77.4053-1.54.5809-2.3235.1891-.77.3512-1.54.5133-2.3235.3378-1.5534.6214-3.1069.8781-4.6874.1216-.743.2432-1.486.3377-2.2289a1.6644,1.6644,0,0,0,.027-.27c.1216-.73.2027-1.4724.2837-2.2154q.1216-.9524.2026-1.9047c.0406-.3647.0811-.73.1081-1.1077.054-.5268.0946-1.0672.1216-1.594.0135-.1216.0135-.2567.027-.3918.0405-.6619.081-1.3238.1081-1.9857.1215-2.5666.1486-5.1468.081-7.7269a124.7036,124.7036,0,0,0-249.3272-.5674q.1215-5.5115.6484-10.9284c.1216-1.1752.2431-2.3505.3782-3.5257a3.367,3.367,0,0,1,.0541-.3647c.1215-1.0267.27-2.0533.4187-3.08.027-.2431.0676-.4863.1081-.7295.1081-.7835.2432-1.5669.3782-2.35.0946-.662.2162-1.31.3377-1.9588.0811-.5.1757-1,.27-1.4994.1216-.6214.2432-1.2428.3783-1.8642.0945-.4863.2026-.9861.3107-1.4724.1621-.77.3377-1.5535.5268-2.3235.054-.2837.1216-.5539.1891-.824.2161-.9051.4323-1.81.6754-2.7017.0406-.2162.1081-.4188.1621-.6349.1892-.743.3918-1.4725.6079-2.2019q.2027-.79.4458-1.5805.2634-.9321.5674-1.8642c.27-.9321.5673-1.8507.878-2.7693.2837-.8915.5944-1.77.8916-2.6476.0405-.1351.0945-.2567.1486-.3918.3647-1.04.7429-2.0668,1.1347-3.0934v-.0271c.4188-1.0806.8375-2.1613,1.2833-3.2285.4323-1.0807.8916-2.1479,1.3509-3.215.4593-1.0537.9321-2.1209,1.4184-3.161.4593-.9727.9185-1.9453,1.3913-2.9179.0676-.1486.1351-.2837.2162-.4323.4728-.9591.9726-1.9182,1.4589-2.8638q1.6008-3.06,3.35-6.0383c.5809-1,1.1753-1.9857,1.77-2.9584,1.2158-1.9587,2.4586-3.8769,3.7554-5.7681.6484-.9456,1.2968-1.8912,1.9723-2.8233,1.3238-1.8372,2.6747-3.6338,4.0795-5.4169a4.2248,4.2248,0,0,1,.3107-.3783c.6079-.7835,1.2428-1.5534,1.8777-2.3234,1.4049-1.7021,2.8638-3.3637,4.3633-5.0117.824-.9051,1.648-1.7966,2.4991-2.6882.7835-.8375,1.58-1.6481,2.391-2.4586s1.621-1.6075,2.4585-2.391q1.1347-1.0739,2.27-2.1073A124.5852,124.5852,0,0,1,150.02,10.5108Z" transform="translate(-2.9932 -3)"/><path class="cls-6" d="M248.6462,51.3876A124.5268,124.5268,0,0,0,153.4244,3.0405c1.27.027,2.5531.0676,3.8229.1486q1.7427.0608,3.4852.2026,1.4793.1014,2.9584.2432c1.04.0946,2.0668.2026,3.107.3242.1351.0135.2566.027.3782.0405,1.1077.1351,2.2154.27,3.3231.4323,1.1347.1621,2.2695.3242,3.4042.5133,1.1212.1892,2.2559.3783,3.3771.5944,1.1347.2161,2.2559.4323,3.3771.6754q5.0455,1.074,10.0369,2.4991c1.1077.3242,2.2019.6484,3.31,1,1.0942.3378,2.1884.7025,3.2826,1.0672s2.1884.7565,3.269,1.1482c.9591.3513,1.9182.716,2.8638,1.0807.3243.1351.662.2567.9862.3918.7024.2837,1.4049.5673,2.1073.8645.5268.2162,1.04.4323,1.5535.6484.54.23,1.0807.4728,1.621.716.1756.0675.3512.1486.5268.23.3107.1351.6214.27.9321.4188.7565.3512,1.5.6889,2.2425,1.0537a4.6189,4.6189,0,0,1,.5808.2836c.7835.3648,1.567.7565,2.3505,1.1618.77.3782,1.54.7835,2.31,1.2022.6754.3378,1.3373.7025,1.9992,1.0672.8511.4593,1.7021.9456,2.5531,1.4319.5944.3377,1.1888.689,1.7832,1.04s1.1887.7159,1.7831,1.0807c.2432.1486.5.2972.743.4593.7159.4322,1.4319.8915,2.1343,1.3508.8781.5539,1.7426,1.1347,2.6072,1.7291.5538.3647,1.1077.743,1.648,1.1212.4323.2972.8511.5944,1.27.8916.7835.5538,1.567,1.1212,2.337,1.7021l.1621.1215c.77.5674,1.54,1.1618,2.31,1.7561.23.1757.4728.3648.7024.54.81.6484,1.621,1.2833,2.418,1.9452.0946.0676.1756.1486.27.23.8916.7294,1.77,1.4724,2.6477,2.2154a.2292.2292,0,0,0,.081.081c.9186.797,1.8237,1.594,2.7153,2.418.905.8241,1.7966,1.6481,2.6882,2.4991.135.1216.27.2567.4052.3918.6889.6484,1.3779,1.3238,2.0533,1.9992.8105.8105,1.6075,1.6211,2.391,2.4586.716.7565,1.4049,1.5129,2.1074,2.2694A124.7054,124.7054,0,0,1,81.14,225.8235c.0945.081.2026.1756.2972.2566.824.743,1.648,1.459,2.4855,2.1614.4593.4053.9321.797,1.4049,1.1752.5674.4728,1.1483.9321,1.7291,1.3914.8376.6484,1.6751,1.2833,2.5261,1.9047.4863.3513.9726.7025,1.4725,1.04q.7294.5471,1.4589,1.0131c.54.3918,1.0942.7565,1.648,1.1077.6079.4053,1.2293.8105,1.8642,1.1888.1081.0675.2026.1351.3107.1891.6214.3917,1.2563.77,1.8912,1.1347.6214.3783,1.2428.73,1.8642,1.0672a6.8186,6.8186,0,0,0,.6079.3377q.8307.466,1.6615.8916,2.9178,1.56,5.9168,2.8773c.5268.2431,1.0671.4728,1.6075.7024,1.2157.5269,2.445,1.0132,3.6878,1.486.6619.2566,1.3374.5,2.0128.7429.5538.1892,1.0942.3783,1.648.5674.7565.27,1.513.5133,2.283.743.7564.2431,1.5264.4728,2.2964.6754.7565.23,1.5265.4458,2.2965.6349.77.2161,1.54.4053,2.3234.5809.77.1891,1.54.3647,2.3235.5133,1.5535.3377,3.107.6349,4.6875.8781.7565.135,1.5264.2431,2.2964.3377.027.0135.0676.0135.1081.027q1.155.1622,2.31.2837c.6484.081,1.31.1621,1.9587.2161.3242.027.6619.054,1.0131.0946.54.0405,1.0942.0945,1.6481.1215.1081.0135.2161.0135.3377.0271.6754.04,1.3644.081,2.0533.1215,2.5531.1081,5.12.1351,7.6864.0676A124.7157,124.7157,0,0,0,248.6462,51.3876Z" transform="translate(-2.9932 -3)"/><path class="cls-7" d="M149.9932,27.2749A124.7253,124.7253,0,0,1,252.3745,147.1362c-.0135-.6619-.0405-1.3238-.081-1.9993-.0271-.6619-.0676-1.3238-.1081-1.9857-.0135-.1216-.0135-.2567-.027-.3918-.027-.5268-.0676-1.0536-.1216-1.594-.027-.3647-.0675-.743-.1081-1.1077q-.081-.9524-.2026-1.9047c-.081-.7835-.1756-1.567-.2972-2.35-.0945-.797-.2161-1.5805-.3512-2.364q-.5673-3.546-1.3914-6.9974c-.1756-.7835-.3647-1.5535-.5809-2.3235-.1891-.77-.4052-1.5535-.6349-2.31-.2026-.77-.4322-1.54-.6754-2.2965-.23-.7565-.4728-1.5129-.7429-2.2694q-.304-.9321-.6485-1.8642c-.1891-.5268-.3782-1.0537-.5808-1.5805-.4593-1.2428-.9591-2.4721-1.486-3.7013-.23-.5944-.5-1.1888-.7564-1.77-.0136-.027-.0136-.04-.0271-.054q-.466-1.0536-.9726-2.1073a2.8618,2.8618,0,0,0-.1351-.2972c-.3107-.6349-.6214-1.2833-.9456-1.9182-.4457-.8916-.905-1.77-1.3778-2.6477-.27-.5-.5539-1.0132-.8511-1.513-.2972-.5538-.6079-1.0942-.9321-1.6345-.3782-.6619-.77-1.3238-1.1887-1.9722-.4053-.6755-.8375-1.3509-1.2833-2.0263-.4188-.6619-.8646-1.3239-1.3239-1.9723-.3782-.5673-.7835-1.1347-1.2022-1.7021a4.1348,4.1348,0,0,0-.2972-.4322c-.4188-.5809-.8375-1.1618-1.2833-1.7291-.3918-.54-.8105-1.0807-1.2428-1.6075-.3918-.5134-.797-1.0132-1.2023-1.513-.5-.6079-1-1.2023-1.5129-1.7966-.3918-.4593-.7835-.9051-1.1753-1.3509-.7294-.824-1.4589-1.621-2.2154-2.418-.6484-.689-1.31-1.3779-1.9992-2.0533-.6755-.6754-1.3644-1.3509-2.0533-1.9993-.5-.4728-1.0132-.9456-1.5265-1.4184A124.72,124.72,0,0,0,63.2143,63.2211a125.9985,125.9985,0,0,0-17.1693,14.36A124.7352,124.7352,0,0,0,43.6675,251.49q-2.5329-2.6544-4.9306-5.4169c-.77-.8916-1.54-1.81-2.283-2.7152-.081-.0946-.1621-.1892-.23-.27-.6484-.7835-1.2833-1.5805-1.9047-2.3775-.9456-1.2023-1.8642-2.4045-2.7558-3.6338-.54-.716-1.0536-1.4319-1.567-2.1614-.5673-.7835-1.1212-1.5805-1.648-2.3775-.5133-.7294-1-1.4724-1.4724-2.2154a5.0527,5.0527,0,0,1-.4323-.6619c-.3377-.5-.6619-1.0131-.9861-1.54-.4188-.6484-.8241-1.2968-1.2158-1.9587-.5-.797-.9726-1.621-1.4454-2.4316-.4593-.7835-.9051-1.5805-1.3509-2.391a5.0418,5.0418,0,0,1-.2837-.5268c-.3647-.6349-.7159-1.27-1.04-1.9182-.2972-.5133-.5674-1.04-.8375-1.567-.2432-.4863-.5-.9726-.743-1.4724-.4053-.7835-.7835-1.5805-1.1618-2.3775a.5008.5008,0,0,1-.0675-.1486c-.4188-.8376-.8105-1.6886-1.1887-2.54-.1892-.4053-.3783-.8241-.5539-1.2293-.2567-.5674-.5-1.1212-.7295-1.6886-.2566-.5538-.4863-1.1212-.7159-1.6886-.23-.5538-.4593-1.1077-.6754-1.675-.1621-.3647-.3107-.743-.4458-1.1212-.3377-.8646-.6619-1.7291-.9861-2.5937-.0676-.1621-.1216-.3377-.1757-.5-.27-.7294-.5268-1.4589-.7835-2.1884q-.3039-.851-.5673-1.702c-.23-.6485-.4323-1.2969-.6349-1.9453-.0811-.2431-.1486-.4728-.23-.7159-.3107-1.0132-.6214-2.0263-.905-3.053-.3242-1.1077-.6349-2.2154-.9186-3.3231q-.4255-1.6209-.8105-3.242c-.027-.0811-.0406-.1756-.0676-.2567-.23-1-.4593-1.9992-.6754-3.0124-.04-.1891-.081-.3782-.1081-.5673-.1891-.8646-.3647-1.7426-.5268-2.6072-.0675-.3647-.1351-.7159-.2026-1.0672-.1486-.77-.2837-1.5534-.4053-2.3234-.1756-1.0267-.3377-2.0668-.4728-3.0935-.0945-.5944-.1756-1.1887-.2431-1.7966-.1081-.743-.2027-1.4725-.2837-2.2019-.1216-1.0132-.23-2.0263-.3242-3.0259q-.5065-5.3089-.6349-10.7393c-.0135-.3783-.027-.7565-.027-1.1347-.0271-.77-.0271-1.5265-.0271-2.2965,0-.7565,0-1.513.0271-2.2694,0-.3918.0135-.7835.027-1.1618A124.8195,124.8195,0,0,1,149.9932,27.2749Z" transform="translate(-2.9932 -3)"/><path class="cls-8" d="M53.5152,115.58c-.2026.54-.3917,1.0942-.5674,1.6481-.27.7564-.5133,1.5129-.7429,2.2829-.1621.4863-.3107.9726-.4458,1.4724-.1351.4458-.2567.8781-.3782,1.3239-.1757.5944-.3378,1.2022-.4863,1.7966-.2027.77-.4053,1.54-.5809,2.3235-.1891.77-.3512,1.54-.5133,2.3235-.3242,1.5264-.6214,3.0529-.8646,4.6064a1.06,1.06,0,0,0-.027.1891q-.1824,1.0536-.3242,2.1073a2.0169,2.0169,0,0,0-.027.2837c-.1081.6889-.2027,1.3914-.27,2.0938-.0811.6484-.1486,1.2833-.2161,1.9318-.0406.4322-.0811.851-.1081,1.2833-.054.4863-.0811.9591-.1216,1.4319-.0135.2026-.027.3917-.0405.5808-.0405.6079-.0675,1.2293-.0946,1.8372q-.2229,4.4984-.0405,8.9967c0,.2431.0135.4863.027.73a124.7,124.7,0,0,0,249.26-1.3914q-.1215,5.471-.6484,10.8473c-.081,1-.1891,1.9993-.3242,3.0124-.0675.6484-.1486,1.2834-.2431,1.9183-.0811.7159-.1757,1.4184-.2837,2.1208-.027.2431-.0676.4863-.1081.73-.1081.7835-.2432,1.5669-.3782,2.35-.0946.662-.2162,1.31-.3377,1.9588-.0811.5-.1757,1-.27,1.4994-.1216.6214-.2432,1.2428-.3783,1.8642-.0945.4863-.2026.9861-.3107,1.4724-.1621.77-.3377,1.5535-.5268,2.3235-.054.27-.1216.5539-.1891.824-.2161.9051-.4323,1.81-.6754,2.7017-.0406.1757-.0946.3648-.1486.5539-.27,1.04-.5539,2.0668-.8511,3.0934-.2566.9321-.54,1.8777-.8375,2.7963-.2567.8646-.54,1.7426-.824,2.6072-.2432.77-.5,1.5264-.77,2.2829-.1756.4863-.3377.9726-.5268,1.4589q-.2229.6687-.4863,1.3374c-.23.6349-.4593,1.27-.716,1.8912-.2432.6619-.5133,1.3238-.7835,1.9722-.0946.2567-.1891.5-.3107.7565-.2972.7565-.6214,1.513-.9456,2.2559-.1216.3242-.27.6484-.4188.9862-.4187.9456-.8375,1.8912-1.2833,2.8232-.3782.8376-.77,1.6616-1.1752,2.4856-.1621.3512-.3377.716-.5268,1.0672-.4458.8916-.8916,1.7831-1.3644,2.6612-.5268,1.0266-1.0807,2.04-1.6345,3.0394s-1.1213,1.9993-1.6886,2.9854c0,.0135-.0135.027-.027.0405-.5809.9861-1.1618,1.9587-1.77,2.9314-.5944.9726-1.2158,1.9452-1.8372,2.9043-.5809.8916-1.1617,1.7831-1.77,2.6477a5.42,5.42,0,0,1-.4593.6754c-.4458.6619-.9051,1.3238-1.3779,1.9723-.2567.3782-.5268.7429-.8105,1.1212-.4863.6754-.9861,1.3508-1.4859,2.0127-.5809.77-1.1618,1.54-1.77,2.2965-.6214.797-1.2563,1.594-1.9047,2.3775-.0675.0946-.1486.1756-.23.27-.4863.5943-.9726,1.1887-1.486,1.77-1.04,1.2428-2.1208,2.472-3.2285,3.6743-.824.9051-1.648,1.7966-2.4991,2.6882-1.567,1.6616-3.188,3.2826-4.836,4.85l-.0135.0135c-.6755.6484-1.3644,1.2833-2.0533,1.9047A124.7085,124.7085,0,0,1,74.2914,81.0119c-.1351.1621-.2837.3242-.4323.4863-.4728.5133-.9321,1.04-1.3779,1.5534s-.878,1.0267-1.2968,1.54c-.5133.6079-1.0132,1.2293-1.4995,1.8507-.5.6214-.9861,1.2428-1.4589,1.8777-.4863.6349-.9591,1.27-1.4049,1.9182-.4458.5944-.8645,1.1887-1.27,1.7966-.3917.54-.7565,1.0807-1.0942,1.6346-.2431.3512-.4728.7159-.7024,1.0671-.3242.4728-.6214.9591-.9051,1.4455-.4323.6754-.8375,1.3508-1.2293,2.0262-.4187.689-.81,1.3779-1.1887,2.08-.3647.6485-.716,1.2969-1.0672,1.9453-1.27,2.418-2.445,4.89-3.5122,7.3892-.2161.4863-.4188.9861-.6214,1.4859-.3107.743-.6079,1.4994-.8916,2.2424S53.7719,114.8373,53.5152,115.58Z" transform="translate(-2.9932 -3)"/><path class="cls-1" d="M47.693,154.8226c.0406.7024.0811,1.4183.1216,2.1208a1.3109,1.3109,0,0,1,.0135.23c.0405.5809.0946,1.1753.1486,1.7561l.0811.9321c.054.662.135,1.3239.2161,1.9723.081.797.1756,1.5805.2972,2.364.0945.7835.2161,1.567.3512,2.3505q.5673,3.546,1.3914,7.0109c.1756.7835.3647,1.5535.5809,2.3235.3917,1.54.824,3.08,1.31,4.5929.23.7565.4728,1.5264.7429,2.2829q.3041.9321.6485,1.8642c.1891.5268.3782,1.0537.5808,1.5805.4593,1.2428.9591,2.4721,1.486,3.7013.23.5944.4863,1.1888.7564,1.77.0136.027.0136.0405.0271.054q.4661,1.0536.9726,2.1073a2.8618,2.8618,0,0,0,.1351.2972c.3107.6619.6349,1.31.9726,1.9723.3647.7294.7294,1.4454,1.1212,2.1613.3377.6484.7024,1.2969,1.0807,1.9453.2972.5538.6079,1.0942.9321,1.6345.3782.6619.77,1.3238,1.1887,1.9722.2972.4864.5944.9592.9051,1.4455.23.3647.4593.7159.7024,1.0806.1756.27.3513.54.54.8106.2837.4187.5673.851.8645,1.2563q2.27,3.2622,4.8226,6.3895c.4863.6079.9861,1.2023,1.5129,1.7966q.8106.9726,1.6616,1.9047c.5673.6349,1.1482,1.2563,1.7291,1.8642.3242.3377.6484.689.9861,1.0267.3377.3512.6754.7024,1.0131,1.0266.6755.6754,1.3644,1.3509,2.0533,1.9993.5.4728,1,.9456,1.4995,1.4049a124.7238,124.7238,0,0,0,155.6319,10.9554A124.734,124.734,0,0,0,258.44,50.78c.135.1351.27.27.3917.4188,1.1077,1.2023,2.1749,2.4315,3.2285,3.6743.5134.5809,1,1.1753,1.486,1.77.081.0946.1621.1892.23.27.6484.7835,1.2833,1.5805,1.9047,2.3775.9456,1.2023,1.8642,2.4045,2.7558,3.6338.54.716,1.0536,1.4319,1.567,2.1614.5673.7835,1.1212,1.5805,1.648,2.3775.5.7294,1,1.4724,1.4724,2.2154a3.88,3.88,0,0,1,.3783.5809c.4863.7429.9726,1.4994,1.4319,2.2559a6.1278,6.1278,0,0,1,.4593.7429c.4187.6755.824,1.3509,1.2293,2.04.2026.3242.3917.6484.5808.9727.4593.7835.9051,1.5805,1.3509,2.391a2.7241,2.7241,0,0,1,.2431.4322c.5134.9321,1.0267,1.8777,1.513,2.8233.4188.797.824,1.594,1.2293,2.391.2972.5944.5943,1.1753.8645,1.7832.4053.797.7835,1.6075,1.1482,2.418.3378.7024.6485,1.4184.9591,2.1343.23.5.4458.9862.6485,1.486.2431.5538.4863,1.1212.7159,1.6886.23.5538.4593,1.1077.6754,1.675.1621.3647.2972.743.4458,1.1212.3377.8646.6619,1.7291.9861,2.5937.0676.1621.1216.3377.1757.5.27.7294.5268,1.4589.7835,2.1884q.3039.8509.5673,1.702c.23.6485.4323,1.2969.6349,1.9453.0811.23.1486.4728.23.7159.3107,1.0132.6214,2.0263.905,3.053.3242,1.1077.6349,2.2154.9186,3.3231q.4255,1.6209.81,3.242a2.4389,2.4389,0,0,0,.0676.2567c.23,1,.4593,1.9992.6754,3.0124.027.1756.0675.3647.1081.5673.1891.8646.3647,1.7426.5268,2.6072.0675.3512.1351.7159.2026,1.0672.1486.77.2837,1.5534.4053,2.3234.1756,1.0267.3377,2.0533.4728,3.0935.0945.5944.1756,1.1887.2431,1.7966.1081.743.2027,1.4725.2837,2.2019.1216,1.0132.23,2.0128.3242,3.0259q.5066,5.3089.6349,10.7393c.0135.3783.027.7565.027,1.1347.0271.77.0271,1.5265.0271,2.2965,0,.743-.0136,1.4994-.0271,2.2694,0,.3918-.0135.7835-.027,1.1618a124.6991,124.6991,0,0,1-249.26,1.3914Z" transform="translate(-2.9932 -3)"/><path class="cls-2" d="M226.3165,226.35a124.2118,124.2118,0,0,1-73.4594,26.031c.6754-.0135,1.3508-.0406,2.04-.0811.5944-.027,1.1888-.054,1.77-.0945q.3241-.02.6889-.0406c.4458-.0405.8781-.0675,1.31-.108.4593-.0406.9051-.0811,1.3644-.1216.6349-.0676,1.2833-.1351,1.9317-.2161.6754-.0676,1.3509-.1486,2.0128-.2567a4.2,4.2,0,0,0,.4323-.054c.7159-.0946,1.4184-.2027,2.1208-.3242h.04c1.567-.2567,3.134-.54,4.674-.8781.7835-.1621,1.5535-.3242,2.3235-.5133.7835-.1756,1.5534-.3783,2.3234-.5809.77-.1891,1.54-.4053,2.2965-.6349.77-.2026,1.54-.4323,2.2964-.6754.77-.23,1.5265-.4863,2.283-.743l1.6615-.5674c.6619-.2431,1.3374-.4863,1.9993-.7429.8375-.3107,1.6615-.6484,2.4856-.9861.4863-.1892.9861-.4053,1.4724-.6079,1.7291-.743,3.4312-1.5265,5.12-2.3775.7025-.3378,1.3914-.689,2.08-1.0672.7159-.3647,1.4048-.743,2.1073-1.1347.7024-.3783,1.3914-.77,2.08-1.1888.6889-.3917,1.3644-.797,2.04-1.2293.6754-.4052,1.3508-.8375,2.0128-1.2833.6754-.4187,1.3373-.8645,1.9857-1.3238.5674-.3782,1.1347-.7835,1.7021-1.2023a3.0655,3.0655,0,0,0,.4323-.2972c.5808-.4187,1.1617-.8375,1.7291-1.2833.54-.3917,1.0807-.81,1.6075-1.2428.5133-.3917,1.0131-.797,1.5129-1.2022.6079-.5,1.2023-1,1.7967-1.513.4593-.3917.9051-.7835,1.3508-1.1752.8241-.7295,1.6211-1.4589,2.4181-2.2154.1891-.1756.3782-.3647.5673-.5539.5-.4593,1-.9456,1.486-1.4319v-.0135c.7024-.6889,1.3508-1.3508,1.9992-2.04A124.7164,124.7164,0,0,0,50.773,41.5534a3.7925,3.7925,0,0,1,.4187-.3918c1.2023-1.1077,2.4316-2.1883,3.6744-3.2285.5808-.5133,1.1752-1,1.77-1.4859.0945-.0811.1756-.1621.27-.23.7834-.6484,1.5805-1.2833,2.3775-1.9047,1.2563-.9861,2.5125-1.9452,3.7959-2.8773.5673-.4323,1.1347-.8375,1.702-1.2428.6349-.4458,1.2563-.8916,1.9047-1.3238a7.44,7.44,0,0,1,.6755-.4593c.8645-.6079,1.7561-1.1888,2.6476-1.77.9592-.6214,1.9318-1.2428,2.9044-1.8372.8375-.5268,1.6885-1.0267,2.54-1.5265q.4458-.2837.8916-.5268c.77-.4458,1.54-.8916,2.3234-1.3238a1.7071,1.7071,0,0,1,.3107-.1621c.9186-.5134,1.8372-1.0132,2.7693-1.5.6889-.3647,1.3914-.7295,2.0938-1.0672.6889-.3647,1.3779-.7024,2.08-1.04.6754-.3242,1.3509-.6484,2.04-.9591a2.1882,2.1882,0,0,1,.3107-.1486c.7835-.3648,1.567-.7295,2.364-1.0672.4863-.23.9861-.4458,1.4859-.6484.5944-.27,1.1888-.5133,1.7967-.7565.3917-.1621.797-.3377,1.2022-.4863.5809-.2432,1.1483-.4728,1.7291-.6889.77-.2972,1.54-.5944,2.3235-.8781.1486-.054.2972-.1081.4593-.1621,1.0131-.3782,2.04-.7295,3.0664-1.0807,1.0942-.3647,2.1884-.7294,3.2826-1.0672,1.1077-.3512,2.2019-.6754,3.31-1q4.9846-1.4184,10.0368-2.4991c1.1213-.2431,2.2425-.4593,3.3772-.6754,1.1212-.2161,2.2559-.4052,3.3771-.5944,1.1347-.1891,2.2695-.3512,3.4042-.5133C130.595,4.27,131.7027,4.1347,132.81,4c.1216-.0135.2566-.027.3917-.0405,1.0267-.1216,2.0668-.23,3.0935-.3242q1.4791-.1419,2.9584-.2432c1.2022-.0945,2.418-.1621,3.6473-.2161,1.2157-.0675,2.445-.1081,3.6608-.1351,2.2829-.054,4.5659-.054,6.8623,0a124.7019,124.7019,0,0,1,72.8921,223.31Z" transform="translate(-2.9932 -3)"/><path class="cls-3" d="M63.2143,236.7789A124.7534,124.7534,0,0,0,249.43,258.2575c-1.8642,1.7426-3.7689,3.4041-5.7142,5.0117-.5268.4322-1.0536.8645-1.594,1.2833-.4728.4052-.9456.7835-1.4319,1.1482-.7565.6079-1.5129,1.1888-2.2829,1.77-.9051.6754-1.8237,1.3509-2.7423,2.0128q-1.1346.81-2.31,1.621c-1.2293.8646-2.4721,1.6886-3.7284,2.4856-.8375.5538-1.6885,1.0807-2.54,1.6075-.9456.5809-1.8912,1.1482-2.8368,1.7156a.9345.9345,0,0,1-.2566.1351c-.8781.5133-1.7561,1.0266-2.6477,1.5129a2.7256,2.7256,0,0,1-.4323.2432c-.9321.5133-1.8777,1.0266-2.8233,1.5129-.878.4593-1.7426.9051-2.6341,1.3509-.3918.2026-.797.4053-1.2158.5944-.6214.3107-1.2563.6079-1.8912.8915q-.4256.2229-.851.4053c-.7025.3377-1.4184.6484-2.1344.9591-.5.23-.9861.4458-1.4859.6484-.5539.2432-1.1212.4863-1.6886.716-.5539.23-1.1077.4593-1.6751.6754-.3647.1486-.7429.2972-1.1212.4458-.851.3377-1.7291.6619-2.5936.9861a4.0627,4.0627,0,0,1-.4323.1486c-1.0131.3782-2.04.73-3.0664,1.0807-1.0942.3647-2.1884.7294-3.2826,1.0672-1.1077.3512-2.2019.6754-3.2961,1h-.027q-3.3231.9523-6.66,1.7426c-1.1212.27-2.2424.5133-3.3636.7565s-2.2425.4593-3.3772.6754c-1.1212.2161-2.2424.4052-3.3771.5944-1.1212.1891-2.2289.3512-3.35.5133a.6066.6066,0,0,1-.1486.0135q-1.54.2229-3.08.4053c-.3242.0405-.6484.0675-.9726.108-.8781.0946-1.7426.1891-2.6207.27-1,.0946-2.0127.1756-3.0124.2432-1.2022.0945-2.418.1621-3.6338.2161-1.2427.0675-2.472.1081-3.7013.1351-2.2829.054-4.5389.054-6.8083,0h-.027c-.2432,0-.4863-.0135-.7295-.027a124.7077,124.7077,0,0,1,1.2968-249.3138c-.6619.0135-1.3373.0406-1.9992.0811-.6349.027-1.2833.054-1.9182.108-.1621,0-.3242.0136-.5.0271-.5.0405-1,.0675-1.4859.1215-.3917.0271-.797.0676-1.1888.1081-.6349.054-1.2562.1216-1.8911.2026-.7565.0811-1.5265.1756-2.283.2837-.0405.0135-.081.0135-.1216.027-.77.0946-1.5264.2027-2.2829.3377h-.0405c-1.567.2567-3.12.54-4.66.8781-.7835.1486-1.5535.3242-2.3235.5133-.7835.1756-1.5534.3648-2.3234.5809-.77.1891-1.5535.4053-2.31.6349-.77.2026-1.5129.4323-2.2694.6619a.1955.1955,0,0,1-.0946.027c-.743.23-1.4724.4728-2.2019.73-.5538.1891-1.1077.3782-1.648.5674-.743.27-1.486.54-2.2289.824-.7565.2837-1.4995.5808-2.2425.8915-.4187.1621-.824.3378-1.2292.5134-.5134.2161-1.0267.4322-1.54.6619-2.0263.9051-4.0255,1.8642-5.9843,2.9178q-.851.4255-1.6615.8916a4.391,4.391,0,0,0-.6079.3377c-.6349.3377-1.2563.6889-1.8642,1.0672-.6889.3917-1.3779.797-2.0533,1.2293-.6754.4052-1.3509.8375-2.0128,1.2833-.6619.4187-1.3238.8645-1.9857,1.3238-.5674.3782-1.1347.7835-1.7021,1.2023a4.11,4.11,0,0,0-.4323.2972c-.5808.4187-1.1617.8375-1.7291,1.2833-.54.3917-1.0807.8105-1.6075,1.2428-1.4049,1.0941-2.7963,2.2559-4.1606,3.4581-.4728.4053-.9456.8241-1.4049,1.2563-.5133.4458-1.0132.9186-1.513,1.3914-.6889.6484-1.3778,1.3239-2.0533,1.9993s-1.3508,1.3643-1.9992,2.0533l-.4458.4863c-.2972.2972-.5674.5809-.8375.8916a124.7056,124.7056,0,0,0-11.0771,155.767Z" transform="translate(-2.9932 -3)"/><path class="cls-4" d="M51.3538,248.5989a124.4014,124.4014,0,0,0,94.4788,48.3336c-1.0942-.0136-2.1884-.0676-3.2691-.1216-1.1077-.0541-2.2154-.1216-3.31-.2026-.9862-.0676-1.9588-.1486-2.9314-.2432-1.1212-.1081-2.2424-.2161-3.3636-.3512h-.0676c-1.1212-.1351-2.2559-.2837-3.3906-.4458a147.656,147.656,0,0,1-26.7875-6.349c-1.0942-.3648-2.1884-.7565-3.269-1.1482-.9591-.3513-1.9047-.716-2.8638-1.0807-.3243-.1351-.662-.2567-.9862-.3918-.7024-.2837-1.4049-.5673-2.1073-.8645-.3242-.1216-.6484-.2567-.9591-.3918-.743-.3242-1.4859-.6349-2.2154-.9726-.1756-.0675-.3512-.1486-.5268-.23-.3107-.1351-.6214-.27-.9321-.4188-.8781-.4053-1.7561-.81-2.6207-1.2293-.9321-.4458-1.8507-.9051-2.7692-1.3779-.7025-.3512-1.4049-.7159-2.0939-1.0941-.6754-.3378-1.3373-.7025-1.9992-1.0672-.8511-.4593-1.7021-.9456-2.5531-1.4319-.5944-.3377-1.1888-.689-1.7832-1.04-.6079-.3512-1.1887-.7159-1.7831-1.0807-.2432-.1486-.5-.2972-.743-.4593-.7159-.4322-1.4319-.8915-2.1343-1.3508-.8781-.5539-1.7426-1.1347-2.6072-1.7291-.6619-.4323-1.3238-.8781-1.9722-1.3509q-.3445-.2229-.689-.4863c-.905-.6349-1.8236-1.2968-2.7152-1.9722-.9726-.716-1.9182-1.4454-2.8638-2.1749-.9456-.743-1.8912-1.4994-2.8233-2.2694s-1.8506-1.5535-2.7692-2.337q-2.7558-2.391-5.417-4.9306c-.1621-.1486-.3242-.2972-.4863-.4593-.6619-.6214-1.3238-1.27-1.9857-1.9317-.54-.54-1.0672-1.0807-1.594-1.6346-.27-.27-.5269-.5538-.7835-.824A124.7352,124.7352,0,0,1,46.045,77.5807a125.9985,125.9985,0,0,1,17.1693-14.36A124.72,124.72,0,0,1,218.8328,74.163c-.2972-.27-.5944-.5268-.8916-.797-.4457-.3917-.8915-.7835-1.3508-1.1752-.5944-.5134-1.1888-1.0132-1.7967-1.513-.5-.4052-1-.8105-1.5129-1.2022-.5268-.4323-1.0672-.8511-1.6075-1.2428-.5674-.4458-1.1483-.8646-1.7291-1.2833a3.0655,3.0655,0,0,0-.4323-.2972c-.5674-.4188-1.1347-.8241-1.7021-1.2023-.6484-.4593-1.31-.9051-1.9722-1.3238,0-.0135-.0135,0-.0135,0-.662-.4458-1.3374-.8781-2.0128-1.2833-.6754-.4323-1.3509-.8376-2.04-1.2293-.6889-.4188-1.3779-.81-2.08-1.1888q-1.0538-.5876-2.1073-1.1347c-.689-.3782-1.3779-.7294-2.08-1.0672-1.6885-.851-3.3906-1.6345-5.12-2.3775-.4863-.2026-.9861-.4187-1.4724-.6079-.8241-.3377-1.6481-.6754-2.4856-.9861-.6619-.2566-1.3238-.5-1.9993-.7429l-1.6615-.5674c-.7565-.27-1.513-.5133-2.283-.743-.7564-.2431-1.5264-.4728-2.2964-.6754-.77-.23-1.54-.4458-2.31-.6349-.7565-.2161-1.5264-.4053-2.31-.5809-.77-.1891-1.54-.3512-2.3235-.5133-1.54-.3377-3.107-.6214-4.674-.8781h-.04c-.7024-.1215-1.4049-.23-2.1208-.3242-.1351-.0135-.2837-.04-.4188-.054-.716-.1081-1.4319-.2026-2.1479-.27-.6349-.081-1.2563-.1486-1.8912-.2026-.3917-.0405-.7835-.081-1.1887-.1081-.4863-.054-.9726-.081-1.4724-.1215-.1621-.0135-.3378-.0271-.5134-.0271-.6349-.054-1.2833-.081-1.9182-.108-2.5666-.1216-5.1467-.1486-7.7269-.0811a124.7057,124.7057,0,0,0-95.7756,200.98Z" transform="translate(-2.9932 -3)"/><path class="cls-5" d="M150.02,10.5108A124.7111,124.7111,0,0,1,224.4118,220.38c.4323-.4593.8646-.9186,1.2833-1.3914.5-.5268.9727-1.0671,1.4319-1.6075.6485-.7159,1.2563-1.4454,1.8507-2.1748.4593-.54.9051-1.0942,1.3374-1.6481,1-1.2428,1.9587-2.5126,2.8638-3.7959.4863-.6484.9321-1.2968,1.3643-1.9452.4728-.6484.9051-1.31,1.3239-1.9723.4458-.6754.878-1.3508,1.2833-2.0263.4323-.6754.8375-1.3508,1.2293-2.04.3782-.6079.7294-1.2293,1.0671-1.8642a4.3973,4.3973,0,0,0,.3378-.6079q.4659-.81.8915-1.6616c1.27-2.3775,2.418-4.7955,3.4717-7.254.2161-.5.4188-1,.6214-1.5.3107-.743.6079-1.4859.8916-2.2424.2836-.73.5538-1.4724.824-2.2154l.5674-1.6616c.27-.7564.5133-1.5264.7429-2.2829.2432-.7565.4728-1.5265.6754-2.2965.23-.7564.4458-1.5264.6349-2.2964.2027-.77.4053-1.54.5809-2.3235.1891-.77.3512-1.54.5133-2.3235.3378-1.5534.6214-3.1069.8781-4.6874.1216-.743.2432-1.486.3377-2.2289a1.6644,1.6644,0,0,0,.027-.27c.1216-.73.2027-1.4724.2837-2.2154q.1216-.9524.2026-1.9047c.0406-.3647.0811-.73.1081-1.1077.054-.5268.0946-1.0672.1216-1.594.0135-.1216.0135-.2567.027-.3918.0405-.6619.081-1.3238.1081-1.9857.1215-2.5666.1486-5.1468.081-7.7269a124.7036,124.7036,0,0,0-249.3272-.5674q.1215-5.5115.6484-10.9284c.1216-1.1752.2431-2.3505.3782-3.5257a3.367,3.367,0,0,1,.0541-.3647c.1215-1.0267.27-2.0533.4187-3.08.027-.2431.0676-.4863.1081-.7295.1081-.7835.2432-1.5669.3782-2.35.0946-.662.2162-1.31.3377-1.9588.0811-.5.1757-1,.27-1.4994.1216-.6214.2432-1.2428.3783-1.8642.0945-.4863.2026-.9861.3107-1.4724.1621-.77.3377-1.5535.5268-2.3235.054-.2837.1216-.5539.1891-.824.2161-.9051.4323-1.81.6754-2.7017.0406-.2162.1081-.4188.1621-.6349.1892-.743.3918-1.4725.6079-2.2019q.2027-.79.4458-1.5805.2634-.9321.5674-1.8642c.27-.9321.5673-1.8507.878-2.7693.2837-.8915.5944-1.77.8916-2.6476.0405-.1351.0945-.2567.1486-.3918.3647-1.04.7429-2.0668,1.1347-3.0934v-.0271c.4188-1.0806.8375-2.1613,1.2833-3.2285.4323-1.0807.8916-2.1479,1.3509-3.215.4593-1.0537.9321-2.1209,1.4184-3.161.4593-.9727.9185-1.9453,1.3913-2.9179.0676-.1486.1351-.2837.2162-.4323.4728-.9591.9726-1.9182,1.4589-2.8638q1.6008-3.06,3.35-6.0383c.5809-1,1.1753-1.9857,1.77-2.9584,1.2158-1.9587,2.4586-3.8769,3.7554-5.7681.6484-.9456,1.2968-1.8912,1.9723-2.8233,1.3238-1.8372,2.6747-3.6338,4.0795-5.4169a4.2248,4.2248,0,0,1,.3107-.3783c.6079-.7835,1.2428-1.5534,1.8777-2.3234,1.4049-1.7021,2.8638-3.3637,4.3633-5.0117.824-.9051,1.648-1.7966,2.4991-2.6882.7835-.8375,1.58-1.6481,2.391-2.4586s1.621-1.6075,2.4585-2.391q1.1347-1.0739,2.27-2.1073A124.5852,124.5852,0,0,1,150.02,10.5108Z" transform="translate(-2.9932 -3)"/><path class="cls-6" d="M248.6462,51.3876A124.5268,124.5268,0,0,0,153.4244,3.0405c1.27.027,2.5531.0676,3.8229.1486q1.7427.0608,3.4852.2026,1.4793.1014,2.9584.2432c1.04.0946,2.0668.2026,3.107.3242.1351.0135.2566.027.3782.0405,1.1077.1351,2.2154.27,3.3231.4323,1.1347.1621,2.2695.3242,3.4042.5133,1.1212.1892,2.2559.3783,3.3771.5944,1.1347.2161,2.2559.4323,3.3771.6754q5.0455,1.074,10.0369,2.4991c1.1077.3242,2.2019.6484,3.31,1,1.0942.3378,2.1884.7025,3.2826,1.0672s2.1884.7565,3.269,1.1482c.9591.3513,1.9182.716,2.8638,1.0807.3243.1351.662.2567.9862.3918.7024.2837,1.4049.5673,2.1073.8645.5268.2162,1.04.4323,1.5535.6484.54.23,1.0807.4728,1.621.716.1756.0675.3512.1486.5268.23.3107.1351.6214.27.9321.4188.7565.3512,1.5.6889,2.2425,1.0537a4.6189,4.6189,0,0,1,.5808.2836c.7835.3648,1.567.7565,2.3505,1.1618.77.3782,1.54.7835,2.31,1.2022.6754.3378,1.3373.7025,1.9992,1.0672.8511.4593,1.7021.9456,2.5531,1.4319.5944.3377,1.1888.689,1.7832,1.04s1.1887.7159,1.7831,1.0807c.2432.1486.5.2972.743.4593.7159.4322,1.4319.8915,2.1343,1.3508.8781.5539,1.7426,1.1347,2.6072,1.7291.5538.3647,1.1077.743,1.648,1.1212.4323.2972.8511.5944,1.27.8916.7835.5538,1.567,1.1212,2.337,1.7021l.1621.1215c.77.5674,1.54,1.1618,2.31,1.7561.23.1757.4728.3648.7024.54.81.6484,1.621,1.2833,2.418,1.9452.0946.0676.1756.1486.27.23.8916.7294,1.77,1.4724,2.6477,2.2154a.2292.2292,0,0,0,.081.081c.9186.797,1.8237,1.594,2.7153,2.418.905.8241,1.7966,1.6481,2.6882,2.4991.135.1216.27.2567.4052.3918.6889.6484,1.3779,1.3238,2.0533,1.9992.8105.8105,1.6075,1.6211,2.391,2.4586.716.7565,1.4049,1.5129,2.1074,2.2694A124.7054,124.7054,0,0,1,81.14,225.8235c.0945.081.2026.1756.2972.2566.824.743,1.648,1.459,2.4855,2.1614.4593.4053.9321.797,1.4049,1.1752.5674.4728,1.1483.9321,1.7291,1.3914.8376.6484,1.6751,1.2833,2.5261,1.9047.4863.3513.9726.7025,1.4725,1.04q.7294.5471,1.4589,1.0131c.54.3918,1.0942.7565,1.648,1.1077.6079.4053,1.2293.8105,1.8642,1.1888.1081.0675.2026.1351.3107.1891.6214.3917,1.2563.77,1.8912,1.1347.6214.3783,1.2428.73,1.8642,1.0672a6.8186,6.8186,0,0,0,.6079.3377q.8307.466,1.6615.8916,2.9178,1.56,5.9168,2.8773c.5268.2431,1.0671.4728,1.6075.7024,1.2157.5269,2.445,1.0132,3.6878,1.486.6619.2566,1.3374.5,2.0128.7429.5538.1892,1.0942.3783,1.648.5674.7565.27,1.513.5133,2.283.743.7564.2431,1.5264.4728,2.2964.6754.7565.23,1.5265.4458,2.2965.6349.77.2161,1.54.4053,2.3234.5809.77.1891,1.54.3647,2.3235.5133,1.5535.3377,3.107.6349,4.6875.8781.7565.135,1.5264.2431,2.2964.3377.027.0135.0676.0135.1081.027q1.155.1622,2.31.2837c.6484.081,1.31.1621,1.9587.2161.3242.027.6619.054,1.0131.0946.54.0405,1.0942.0945,1.6481.1215.1081.0135.2161.0135.3377.0271.6754.04,1.3644.081,2.0533.1215,2.5531.1081,5.12.1351,7.6864.0676A124.7157,124.7157,0,0,0,248.6462,51.3876Z" transform="translate(-2.9932 -3)"/><path class="cls-7" d="M149.9932,27.2749A124.7253,124.7253,0,0,1,252.3745,147.1362c-.0135-.6619-.0405-1.3238-.081-1.9993-.0271-.6619-.0676-1.3238-.1081-1.9857-.0135-.1216-.0135-.2567-.027-.3918-.027-.5268-.0676-1.0536-.1216-1.594-.027-.3647-.0675-.743-.1081-1.1077q-.081-.9524-.2026-1.9047c-.081-.7835-.1756-1.567-.2972-2.35-.0945-.797-.2161-1.5805-.3512-2.364q-.5673-3.546-1.3914-6.9974c-.1756-.7835-.3647-1.5535-.5809-2.3235-.1891-.77-.4052-1.5535-.6349-2.31-.2026-.77-.4322-1.54-.6754-2.2965-.23-.7565-.4728-1.5129-.7429-2.2694q-.304-.9321-.6485-1.8642c-.1891-.5268-.3782-1.0537-.5808-1.5805-.4593-1.2428-.9591-2.4721-1.486-3.7013-.23-.5944-.5-1.1888-.7564-1.77-.0136-.027-.0136-.04-.0271-.054q-.466-1.0536-.9726-2.1073a2.8618,2.8618,0,0,0-.1351-.2972c-.3107-.6349-.6214-1.2833-.9456-1.9182-.4457-.8916-.905-1.77-1.3778-2.6477-.27-.5-.5539-1.0132-.8511-1.513-.2972-.5538-.6079-1.0942-.9321-1.6345-.3782-.6619-.77-1.3238-1.1887-1.9722-.4053-.6755-.8375-1.3509-1.2833-2.0263-.4188-.6619-.8646-1.3239-1.3239-1.9723-.3782-.5673-.7835-1.1347-1.2022-1.7021a4.1348,4.1348,0,0,0-.2972-.4322c-.4188-.5809-.8375-1.1618-1.2833-1.7291-.3918-.54-.8105-1.0807-1.2428-1.6075-.3918-.5134-.797-1.0132-1.2023-1.513-.5-.6079-1-1.2023-1.5129-1.7966-.3918-.4593-.7835-.9051-1.1753-1.3509-.7294-.824-1.4589-1.621-2.2154-2.418-.6484-.689-1.31-1.3779-1.9992-2.0533-.6755-.6754-1.3644-1.3509-2.0533-1.9993-.5-.4728-1.0132-.9456-1.5265-1.4184A124.72,124.72,0,0,0,63.2143,63.2211a125.9985,125.9985,0,0,0-17.1693,14.36A124.7352,124.7352,0,0,0,43.6675,251.49q-2.5329-2.6544-4.9306-5.4169c-.77-.8916-1.54-1.81-2.283-2.7152-.081-.0946-.1621-.1892-.23-.27-.6484-.7835-1.2833-1.5805-1.9047-2.3775-.9456-1.2023-1.8642-2.4045-2.7558-3.6338-.54-.716-1.0536-1.4319-1.567-2.1614-.5673-.7835-1.1212-1.5805-1.648-2.3775-.5133-.7294-1-1.4724-1.4724-2.2154a5.0527,5.0527,0,0,1-.4323-.6619c-.3377-.5-.6619-1.0131-.9861-1.54-.4188-.6484-.8241-1.2968-1.2158-1.9587-.5-.797-.9726-1.621-1.4454-2.4316-.4593-.7835-.9051-1.5805-1.3509-2.391a5.0418,5.0418,0,0,1-.2837-.5268c-.3647-.6349-.7159-1.27-1.04-1.9182-.2972-.5133-.5674-1.04-.8375-1.567-.2432-.4863-.5-.9726-.743-1.4724-.4053-.7835-.7835-1.5805-1.1618-2.3775a.5008.5008,0,0,1-.0675-.1486c-.4188-.8376-.8105-1.6886-1.1887-2.54-.1892-.4053-.3783-.8241-.5539-1.2293-.2567-.5674-.5-1.1212-.7295-1.6886-.2566-.5538-.4863-1.1212-.7159-1.6886-.23-.5538-.4593-1.1077-.6754-1.675-.1621-.3647-.3107-.743-.4458-1.1212-.3377-.8646-.6619-1.7291-.9861-2.5937-.0676-.1621-.1216-.3377-.1757-.5-.27-.7294-.5268-1.4589-.7835-2.1884q-.3039-.851-.5673-1.702c-.23-.6485-.4323-1.2969-.6349-1.9453-.0811-.2431-.1486-.4728-.23-.7159-.3107-1.0132-.6214-2.0263-.905-3.053-.3242-1.1077-.6349-2.2154-.9186-3.3231q-.4255-1.6209-.8105-3.242c-.027-.0811-.0406-.1756-.0676-.2567-.23-1-.4593-1.9992-.6754-3.0124-.04-.1891-.081-.3782-.1081-.5673-.1891-.8646-.3647-1.7426-.5268-2.6072-.0675-.3647-.1351-.7159-.2026-1.0672-.1486-.77-.2837-1.5534-.4053-2.3234-.1756-1.0267-.3377-2.0668-.4728-3.0935-.0945-.5944-.1756-1.1887-.2431-1.7966-.1081-.743-.2027-1.4725-.2837-2.2019-.1216-1.0132-.23-2.0263-.3242-3.0259q-.5065-5.3089-.6349-10.7393c-.0135-.3783-.027-.7565-.027-1.1347-.0271-.77-.0271-1.5265-.0271-2.2965,0-.7565,0-1.513.0271-2.2694,0-.3918.0135-.7835.027-1.1618A124.8195,124.8195,0,0,1,149.9932,27.2749Z" transform="translate(-2.9932 -3)"/><path class="cls-8" d="M53.5152,115.58c-.2026.54-.3917,1.0942-.5674,1.6481-.27.7564-.5133,1.5129-.7429,2.2829-.1621.4863-.3107.9726-.4458,1.4724-.1351.4458-.2567.8781-.3782,1.3239-.1757.5944-.3378,1.2022-.4863,1.7966-.2027.77-.4053,1.54-.5809,2.3235-.1891.77-.3512,1.54-.5133,2.3235-.3242,1.5264-.6214,3.0529-.8646,4.6064a1.06,1.06,0,0,0-.027.1891q-.1824,1.0536-.3242,2.1073a2.0169,2.0169,0,0,0-.027.2837c-.1081.6889-.2027,1.3914-.27,2.0938-.0811.6484-.1486,1.2833-.2161,1.9318-.0406.4322-.0811.851-.1081,1.2833-.054.4863-.0811.9591-.1216,1.4319-.0135.2026-.027.3917-.0405.5808-.0405.6079-.0675,1.2293-.0946,1.8372q-.2229,4.4984-.0405,8.9967c0,.2431.0135.4863.027.73a124.7,124.7,0,0,0,249.26-1.3914q-.1215,5.471-.6484,10.8473c-.081,1-.1891,1.9993-.3242,3.0124-.0675.6484-.1486,1.2834-.2431,1.9183-.0811.7159-.1757,1.4184-.2837,2.1208-.027.2431-.0676.4863-.1081.73-.1081.7835-.2432,1.5669-.3782,2.35-.0946.662-.2162,1.31-.3377,1.9588-.0811.5-.1757,1-.27,1.4994-.1216.6214-.2432,1.2428-.3783,1.8642-.0945.4863-.2026.9861-.3107,1.4724-.1621.77-.3377,1.5535-.5268,2.3235-.054.27-.1216.5539-.1891.824-.2161.9051-.4323,1.81-.6754,2.7017-.0406.1757-.0946.3648-.1486.5539-.27,1.04-.5539,2.0668-.8511,3.0934-.2566.9321-.54,1.8777-.8375,2.7963-.2567.8646-.54,1.7426-.824,2.6072-.2432.77-.5,1.5264-.77,2.2829-.1756.4863-.3377.9726-.5268,1.4589q-.2229.6687-.4863,1.3374c-.23.6349-.4593,1.27-.716,1.8912-.2432.6619-.5133,1.3238-.7835,1.9722-.0946.2567-.1891.5-.3107.7565-.2972.7565-.6214,1.513-.9456,2.2559-.1216.3242-.27.6484-.4188.9862-.4187.9456-.8375,1.8912-1.2833,2.8232-.3782.8376-.77,1.6616-1.1752,2.4856-.1621.3512-.3377.716-.5268,1.0672-.4458.8916-.8916,1.7831-1.3644,2.6612-.5268,1.0266-1.0807,2.04-1.6345,3.0394s-1.1213,1.9993-1.6886,2.9854c0,.0135-.0135.027-.027.0405-.5809.9861-1.1618,1.9587-1.77,2.9314-.5944.9726-1.2158,1.9452-1.8372,2.9043-.5809.8916-1.1617,1.7831-1.77,2.6477a5.42,5.42,0,0,1-.4593.6754c-.4458.6619-.9051,1.3238-1.3779,1.9723-.2567.3782-.5268.7429-.8105,1.1212-.4863.6754-.9861,1.3508-1.4859,2.0127-.5809.77-1.1618,1.54-1.77,2.2965-.6214.797-1.2563,1.594-1.9047,2.3775-.0675.0946-.1486.1756-.23.27-.4863.5943-.9726,1.1887-1.486,1.77-1.04,1.2428-2.1208,2.472-3.2285,3.6743-.824.9051-1.648,1.7966-2.4991,2.6882-1.567,1.6616-3.188,3.2826-4.836,4.85l-.0135.0135c-.6755.6484-1.3644,1.2833-2.0533,1.9047A124.7085,124.7085,0,0,1,74.2914,81.0119c-.1351.1621-.2837.3242-.4323.4863-.4728.5133-.9321,1.04-1.3779,1.5534s-.878,1.0267-1.2968,1.54c-.5133.6079-1.0132,1.2293-1.4995,1.8507-.5.6214-.9861,1.2428-1.4589,1.8777-.4863.6349-.9591,1.27-1.4049,1.9182-.4458.5944-.8645,1.1887-1.27,1.7966-.3917.54-.7565,1.0807-1.0942,1.6346-.2431.3512-.4728.7159-.7024,1.0671-.3242.4728-.6214.9591-.9051,1.4455-.4323.6754-.8375,1.3508-1.2293,2.0262-.4187.689-.81,1.3779-1.1887,2.08-.3647.6485-.716,1.2969-1.0672,1.9453-1.27,2.418-2.445,4.89-3.5122,7.3892-.2161.4863-.4188.9861-.6214,1.4859-.3107.743-.6079,1.4994-.8916,2.2424S53.7719,114.8373,53.5152,115.58Z" transform="translate(-2.9932 -3)"/></svg>