<svg id="Layer_1" data-name="Layer 1" xmlns="http://www.w3.org/2000/svg" viewBox="0 0 196 196"><defs><style>.cls-1{fill:#7493e8;}.cls-2{fill:#ba8be4;}.cls-3{fill:#8f52ec;}.cls-4{fill:#a3b6fb;}.cls-5{fill:#9671f1;}.cls-6{fill:#9d64ea;}.cls-7{fill:#5f6fe0;}</style></defs><title>op_logo</title><rect class="cls-1" x="103" y="103" width="60" height="126" rx="4.0089" transform="translate(-33 299) rotate(-90)"/><rect class="cls-2" x="136" width="60" height="196" rx="5" transform="translate(332 196) rotate(-180)"/><rect class="cls-3" x="68" y="-68" width="60" height="196" rx="5" transform="translate(68 128) rotate(-90)"/><rect class="cls-4" width="60" height="196" rx="5"/><path class="cls-5" d="M5,0H55a5,5,0,0,1,5,5V60a0,0,0,0,1,0,0H5a5,5,0,0,1-5-5V5A5,5,0,0,1,5,0Z"/><path class="cls-6" d="M141,0h50a5,5,0,0,1,5,5V55a5,5,0,0,1-5,5H136a0,0,0,0,1,0,0V5a5,5,0,0,1,5-5Z"/><path class="cls-7" d="M136,136h55a5,5,0,0,1,5,5v50a5,5,0,0,1-5,5H141a5,5,0,0,1-5-5V136A0,0,0,0,1,136,136Z"/></svg>