<svg id="Layer_1" data-name="Layer 1" xmlns="http://www.w3.org/2000/svg" viewBox="0 0 980 198"><defs><style>.cls-1{fill:#7493e8;}.cls-2{fill:#ba8be4;}.cls-3{fill:#8f52ec;}.cls-4{fill:#a3b6fb;}.cls-5{fill:#9671f1;}.cls-6{fill:#9d64ea;}.cls-7{fill:#5f6fe0;}</style></defs><title>op_wordmark</title><rect class="cls-1" x="103" y="104" width="60" height="126" rx="4.0089" transform="translate(-34 300) rotate(-90)"/><rect class="cls-2" x="136" y="1" width="60" height="196" rx="5" transform="translate(332 198) rotate(-180)"/><rect class="cls-3" x="68" y="-67" width="60" height="196" rx="5" transform="translate(67 129) rotate(-90)"/><rect class="cls-4" y="1" width="60" height="196" rx="5"/><path class="cls-5" d="M5,1H55a5,5,0,0,1,5,5V61a0,0,0,0,1,0,0H5a5,5,0,0,1-5-5V6A5,5,0,0,1,5,1Z"/><path class="cls-6" d="M141,1h50a5,5,0,0,1,5,5V56a5,5,0,0,1-5,5H136a0,0,0,0,1,0,0V6a5,5,0,0,1,5-5Z"/><path class="cls-7" d="M136,137h55a5,5,0,0,1,5,5v50a5,5,0,0,1-5,5H141a5,5,0,0,1-5-5V137A0,0,0,0,1,136,137Z"/><path class="cls-7" d="M327.3633,147.4492a43.1673,43.1673,0,0,1-17.25-3.3,38.7014,38.7014,0,0,1-12.9756-8.9248,39.345,39.345,0,0,1-8.1748-12.9756,43.7131,43.7131,0,0,1,0-31.0493,39.3736,39.3736,0,0,1,8.1748-12.9751A38.7375,38.7375,0,0,1,310.1133,69.3a43.16,43.16,0,0,1,17.25-3.3,42.6335,42.6335,0,0,1,17.1748,3.3,38.9625,38.9625,0,0,1,12.9,8.9248A39.4713,39.4713,0,0,1,365.6133,91.2a43.7131,43.7131,0,0,1,0,31.0493,40.0434,40.0434,0,0,1-8.1006,12.9756,37.918,37.918,0,0,1-12.8994,8.9248A43.181,43.181,0,0,1,327.3633,147.4492ZM306.8135,106.8a27.38,27.38,0,0,0,1.5742,9.5244,23.2479,23.2479,0,0,0,4.3506,7.4248,19.398,19.398,0,0,0,6.5244,4.875,19.874,19.874,0,0,0,16.2,0,19.4411,19.4411,0,0,0,6.5254-4.875,23.0991,23.0991,0,0,0,4.35-7.5,28.0079,28.0079,0,0,0,1.5752-9.6,27.5734,27.5734,0,0,0-1.5752-9.45,23.1359,23.1359,0,0,0-4.35-7.5,19.481,19.481,0,0,0-6.5254-4.875,19.1747,19.1747,0,0,0-8.1-1.7251,18.4663,18.4663,0,0,0-8.1006,1.8,20.33,20.33,0,0,0-6.5244,4.95,23.1074,23.1074,0,0,0-4.3506,7.5A27.5781,27.5781,0,0,0,306.8135,106.8Z"/><path class="cls-7" d="M504.0615,145.9492h-20.1v-44.1q0-9.45-3.2256-13.8a10.4947,10.4947,0,0,0-8.9248-4.35,16.8514,16.8514,0,0,0-11.25,4.5752,25.1878,25.1878,0,0,0-7.5,11.9243v45.75h-20.1v-44.1q0-9.45-3.2256-13.8a10.4947,10.4947,0,0,0-8.9248-4.35,17.1066,17.1066,0,0,0-11.1748,4.5,24.4729,24.4729,0,0,0-7.5752,11.85v45.8994h-20.1V67.35h18.1494V81.9a30.0143,30.0143,0,0,1,11.9248-11.7754A35.6466,35.6466,0,0,1,429.3613,66q9.9009,0,15.3,4.8a21.4556,21.4556,0,0,1,6.9,11.85,33.9393,33.9393,0,0,1,12.15-12.375A32.7912,32.7912,0,0,1,480.5117,66q7.2,0,11.85,2.7a19.5228,19.5228,0,0,1,7.2,7.05,29.581,29.581,0,0,1,3.5254,9.9,65.0546,65.0546,0,0,1,.9746,11.25Z"/><path class="cls-7" d="M594.6611,145.9492H574.5605v-44.1q0-9.45-3.3-13.8a10.8418,10.8418,0,0,0-9.1494-4.35,17.2212,17.2212,0,0,0-6.15,1.2,22.694,22.694,0,0,0-5.9248,3.375,27.4631,27.4631,0,0,0-5.0254,5.1748,20.4419,20.4419,0,0,0-3.3,6.6v45.8994h-20.1V67.35h18.1494V81.9a29.7725,29.7725,0,0,1,12.6006-11.7,40.423,40.423,0,0,1,18.6-4.2q7.3478,0,12,2.7a19.53,19.53,0,0,1,7.2,7.05,29.5559,29.5559,0,0,1,3.5244,9.9,64.9568,64.9568,0,0,1,.9756,11.25Z"/><path class="cls-7" d="M612.21,56.4V36.45h20.1V56.4Zm0,89.5493V67.35h20.1v78.6Z"/><path class="cls-7" d="M651.6572,89.85V68.25h16.3506v21.6Zm0,56.1v-21.6h16.3506v21.6Z"/><path class="cls-7" d="M734.6074,147.4492a30.977,30.977,0,0,1-16.2-4.125,29.3217,29.3217,0,0,1-10.8-11.1748v45.75h-20.1V67.35h17.55v13.5a32.0853,32.0853,0,0,1,11.25-10.875A31.2885,31.2885,0,0,1,732.207,66a33.6715,33.6715,0,0,1,14.7,3.2251,36.4531,36.4531,0,0,1,11.625,8.7,40.5448,40.5448,0,0,1,7.65,12.9,44.439,44.439,0,0,1,2.7744,15.6743,49.5574,49.5574,0,0,1-2.55,16.0508,41.0687,41.0687,0,0,1-7.125,13.05,33.2443,33.2443,0,0,1-10.875,8.7A30.4287,30.4287,0,0,1,734.6074,147.4492Zm-6.75-17.1a18.0534,18.0534,0,0,0,8.3252-1.95,20.145,20.145,0,0,0,6.5244-5.25,24.5972,24.5972,0,0,0,4.2-7.65,27.4257,27.4257,0,0,0,1.5-9,25.4219,25.4219,0,0,0-1.6494-9.2241,22.9237,22.9237,0,0,0-4.5752-7.4253,21.3244,21.3244,0,0,0-6.9-4.95,20.6645,20.6645,0,0,0-8.625-1.8,18.8809,18.8809,0,0,0-5.85.9751,20.6249,20.6249,0,0,0-5.55,2.7749,24.2749,24.2749,0,0,0-4.5752,4.2,17.43,17.43,0,0,0-3.0752,5.25V114.749a26.7043,26.7043,0,0,0,8.25,11.1758A18.865,18.865,0,0,0,727.8574,130.35Z"/><path class="cls-7" d="M818.9053,147.4492a43.1673,43.1673,0,0,1-17.25-3.3,38.7014,38.7014,0,0,1-12.9756-8.9248,39.345,39.345,0,0,1-8.1748-12.9756,43.7131,43.7131,0,0,1,0-31.0493A39.3736,39.3736,0,0,1,788.68,78.2246,38.7375,38.7375,0,0,1,801.6553,69.3a43.16,43.16,0,0,1,17.25-3.3A42.6335,42.6335,0,0,1,836.08,69.3a38.9625,38.9625,0,0,1,12.9,8.9248A39.4713,39.4713,0,0,1,857.1553,91.2a43.7131,43.7131,0,0,1,0,31.0493,40.0434,40.0434,0,0,1-8.1006,12.9756,37.918,37.918,0,0,1-12.8994,8.9248A43.181,43.181,0,0,1,818.9053,147.4492ZM798.3555,106.8a27.38,27.38,0,0,0,1.5742,9.5244,23.2479,23.2479,0,0,0,4.3506,7.4248,19.398,19.398,0,0,0,6.5244,4.875,19.874,19.874,0,0,0,16.2,0,19.4411,19.4411,0,0,0,6.5254-4.875,23.0991,23.0991,0,0,0,4.35-7.5,28.0079,28.0079,0,0,0,1.5752-9.6A27.5734,27.5734,0,0,0,837.88,97.2a23.1359,23.1359,0,0,0-4.35-7.5,19.481,19.481,0,0,0-6.5254-4.875,19.1747,19.1747,0,0,0-8.1-1.7251,18.4663,18.4663,0,0,0-8.1006,1.8,20.33,20.33,0,0,0-6.5244,4.95,23.1074,23.1074,0,0,0-4.3506,7.5A27.5781,27.5781,0,0,0,798.3555,106.8Z"/><path class="cls-7" d="M920.3037,84.75a39.6665,39.6665,0,0,0-16.3506,3.5254,20.6333,20.6333,0,0,0-10.35,10.125v47.5493h-20.1V67.35h18.4492v16.8a35.8463,35.8463,0,0,1,4.95-7.2754,38.16,38.16,0,0,1,6.15-5.625,28.57,28.57,0,0,1,6.6748-3.6748A18.4518,18.4518,0,0,1,916.2539,66.3h2.4746a8.151,8.151,0,0,1,1.5752.15Z"/><path class="cls-7" d="M978.6523,141.8994a89.4974,89.4974,0,0,1-9.9,3.6,41.5866,41.5866,0,0,1-12.3,1.8008,28.5725,28.5725,0,0,1-7.875-1.0508,17.2551,17.2551,0,0,1-6.45-3.375,16.4338,16.4338,0,0,1-4.4249-6,21.6826,21.6826,0,0,1-1.6494-8.9248V82.8H925.7021V67.35h10.3506V41.85h20.1v25.5h16.5V82.8h-16.5v38.3994q0,4.2012,2.1748,5.9248a8.2924,8.2924,0,0,0,5.3252,1.7256,18.4952,18.4952,0,0,0,6.15-1.05q2.9986-1.0488,4.8-1.8008Z"/></svg>