<svg xmlns="http://www.w3.org/2000/svg" xmlns:xlink="http://www.w3.org/1999/xlink" viewBox="0 0 672.1068 675.2763"><defs><style>.cls-1{opacity:0.5;}.cls-2{fill:#88dbca;}.cls-3{fill:url(#_29);}.cls-4{fill:url(#_29-2);}.cls-5{fill:url(#_29-3);}.cls-6{fill:url(#_29-4);}.cls-7{fill:url(#linear-gradient);}.cls-8{fill:url(#linear-gradient-2);}.cls-9{fill:url(#_29-5);}.cls-10{fill:url(#linear-gradient-3);}.cls-11{fill:url(#linear-gradient-4);}.cls-12{fill:url(#_29-6);}.cls-13{fill:url(#_29-7);}.cls-14{fill:url(#_29-8);}.cls-15{fill:url(#linear-gradient-5);}.cls-16{fill:url(#_29-9);}.cls-17{fill:url(#_29-10);}.cls-18{fill:url(#linear-gradient-6);}.cls-19{fill:url(#linear-gradient-7);}.cls-20{fill:url(#linear-gradient-8);}.cls-21{fill:url(#_29-11);}.cls-22{fill:url(#linear-gradient-9);}.cls-23{fill:url(#linear-gradient-10);}.cls-24{fill:url(#linear-gradient-11);}.cls-25{fill:url(#_29-12);}.cls-26{fill:url(#linear-gradient-12);}.cls-27{fill:url(#_29-13);}.cls-28{fill:url(#_29-14);}.cls-29{fill:url(#linear-gradient-13);}.cls-30{fill:url(#linear-gradient-14);}.cls-31{fill:url(#_29-15);}.cls-32{fill:url(#linear-gradient-15);}.cls-33{fill:url(#_29-16);}.cls-34{fill:url(#_29-17);}.cls-35{fill:url(#_29-18);}.cls-36{fill:url(#_29-19);}.cls-37{fill:url(#_29-20);}.cls-38{fill:url(#linear-gradient-16);}.cls-39{fill:url(#_29-21);}.cls-40{fill:url(#linear-gradient-17);}.cls-41{fill:url(#linear-gradient-18);}.cls-42{fill:url(#linear-gradient-19);}.cls-43{fill:url(#_29-22);}.cls-44{fill:url(#linear-gradient-20);}.cls-45{fill:#f2b04c;}.cls-46{fill:url(#_29-23);}.cls-47{fill:url(#_29-24);}.cls-48{fill:url(#_29-25);}.cls-49{fill:url(#_29-26);}</style><linearGradient id="_29" x1="471.5819" y1="134.0328" x2="480.6083" y2="134.0328" gradientUnits="userSpaceOnUse"><stop offset="0.0056" stop-color="#fff1a2"/><stop offset="1" stop-color="#f4b000"/><stop offset="1" stop-color="#e38700"/></linearGradient><linearGradient id="_29-2" x1="368.3438" y1="130.181" x2="385.4993" y2="130.181" xlink:href="#_29"/><linearGradient id="_29-3" x1="460.2941" y1="357.6537" x2="497.1038" y2="357.6537" xlink:href="#_29"/><linearGradient id="_29-4" x1="384.2913" y1="14.33" x2="413.016" y2="14.33" xlink:href="#_29"/><linearGradient id="linear-gradient" x1="238.5348" y1="347.3547" x2="247.4368" y2="347.3547" gradientUnits="userSpaceOnUse"><stop offset="0.0056" stop-color="#b19100"/><stop offset="0.0492" stop-color="#bc9b06"/><stop offset="0.179" stop-color="#d9b514"/><stop offset="0.308" stop-color="#eec71e"/><stop offset="0.4346" stop-color="#fbd224"/><stop offset="0.5562" stop-color="#ffd626"/><stop offset="0.6502" stop-color="#fad224"/><stop offset="0.7553" stop-color="#edc61d"/><stop offset="0.8658" stop-color="#d7b212"/><stop offset="0.9792" stop-color="#b89703"/><stop offset="1" stop-color="#b19100"/></linearGradient><linearGradient id="linear-gradient-2" x1="644.2005" y1="220.1834" x2="663.4444" y2="220.1834" xlink:href="#linear-gradient"/><linearGradient id="_29-5" x1="146.0375" y1="139.9191" x2="170.4207" y2="139.9191" xlink:href="#_29"/><linearGradient id="linear-gradient-3" x1="402.0402" y1="32.3415" x2="410.3372" y2="32.3415" xlink:href="#linear-gradient"/><linearGradient id="linear-gradient-4" x1="43.1897" y1="505.2719" x2="62.4338" y2="505.2719" xlink:href="#linear-gradient"/><linearGradient id="_29-6" x1="395.5063" y1="613.129" x2="411.8592" y2="613.129" xlink:href="#_29"/><linearGradient id="_29-7" x1="526.5938" y1="175.53" x2="549.7713" y2="175.53" xlink:href="#_29"/><linearGradient id="_29-8" x1="19.8601" y1="337.3421" x2="43.6236" y2="337.3421" xlink:href="#_29"/><linearGradient id="linear-gradient-5" x1="470.1757" y1="415.0136" x2="493.0939" y2="415.0136" xlink:href="#linear-gradient"/><linearGradient id="_29-9" x1="497.5268" y1="397.0337" x2="520.7043" y2="397.0337" xlink:href="#_29"/><linearGradient id="_29-10" x1="536.9396" y1="27.4158" x2="562.8425" y2="27.4158" xlink:href="#_29"/><linearGradient id="linear-gradient-6" x1="352.7512" y1="55.5528" x2="361.4225" y2="55.5528" xlink:href="#linear-gradient"/><linearGradient id="linear-gradient-7" x1="198.7512" y1="138.5528" x2="207.4225" y2="138.5528" xlink:href="#linear-gradient"/><linearGradient id="linear-gradient-8" x1="313.0975" y1="65.1253" x2="320.5921" y2="65.1253" xlink:href="#linear-gradient"/><linearGradient id="_29-11" x1="589.0975" y1="594.2798" x2="598.5935" y2="594.2798" xlink:href="#_29"/><linearGradient id="linear-gradient-9" x1="372.0741" y1="51.815" x2="379.2899" y2="51.815" xlink:href="#linear-gradient"/><linearGradient id="linear-gradient-10" x1="161.8817" y1="262.4746" x2="169.0975" y2="262.4746" xlink:href="#linear-gradient"/><linearGradient id="linear-gradient-11" x1="0" y1="304.592" x2="8.6245" y2="304.592" xlink:href="#linear-gradient"/><linearGradient id="_29-12" x1="646.7501" y1="136.9291" x2="657.9368" y2="136.9291" xlink:href="#_29"/><linearGradient id="linear-gradient-12" x1="126.903" y1="286.0926" x2="135.21" y2="286.0926" xlink:href="#linear-gradient"/><linearGradient id="_29-13" x1="62.6743" y1="208.6571" x2="85.8517" y2="208.6571" xlink:href="#_29"/><linearGradient id="_29-14" x1="237.506" y1="109.2599" x2="257.0975" y2="109.2599" xlink:href="#_29"/><linearGradient id="linear-gradient-13" x1="118.4097" y1="349.6201" x2="130.359" y2="349.6201" xlink:href="#linear-gradient"/><linearGradient id="linear-gradient-14" x1="302.1562" y1="668.2732" x2="315.2815" y2="668.2732" xlink:href="#linear-gradient"/><linearGradient id="_29-15" x1="662.0172" y1="569.9351" x2="672.1068" y2="569.9351" xlink:href="#_29"/><linearGradient id="linear-gradient-15" x1="320.0379" y1="483.4152" x2="338.6137" y2="483.4152" xlink:href="#linear-gradient"/><linearGradient id="_29-16" x1="578.6875" y1="165.129" x2="602.9367" y2="165.129" xlink:href="#_29"/><linearGradient id="_29-17" x1="464.7945" y1="619.9711" x2="479.5783" y2="619.9711" xlink:href="#_29"/><linearGradient id="_29-18" x1="313.2894" y1="16.9345" x2="329.0975" y2="16.9345" xlink:href="#_29"/><linearGradient id="_29-19" x1="531.7644" y1="528.7303" x2="540.0292" y2="528.7303" xlink:href="#_29"/><linearGradient id="_29-20" x1="197.0114" y1="340.9361" x2="210.0345" y2="340.9361" xlink:href="#_29"/><linearGradient id="linear-gradient-16" x1="261.6248" y1="60.3648" x2="274.6479" y2="60.3648" xlink:href="#linear-gradient"/><linearGradient id="_29-21" x1="509.4231" y1="535.7842" x2="517.6878" y2="535.7842" xlink:href="#_29"/><linearGradient id="linear-gradient-17" x1="551.9325" y1="480.1825" x2="560.1972" y2="480.1825" xlink:href="#linear-gradient"/><linearGradient id="linear-gradient-18" x1="616.9996" y1="369.328" x2="638.4782" y2="369.328" xlink:href="#linear-gradient"/><linearGradient id="linear-gradient-19" x1="195.0864" y1="376.1521" x2="213.6501" y2="376.1521" xlink:href="#linear-gradient"/><linearGradient id="_29-22" x1="256.0663" y1="299.6566" x2="277.7094" y2="299.6566" xlink:href="#_29"/><linearGradient id="linear-gradient-20" x1="279.2721" y1="306.1413" x2="300.7506" y2="306.1413" xlink:href="#linear-gradient"/><linearGradient id="_29-23" x1="371.4794" y1="120.6714" x2="412.7441" y2="120.6714" gradientTransform="matrix(0.9293, 0.3692, -0.3692, 0.9293, 58.2052, -143.8836)" xlink:href="#_29"/><linearGradient id="_29-24" x1="389.0068" y1="18.1022" x2="422.1384" y2="18.1022" gradientTransform="matrix(0.9293, 0.3692, -0.3692, 0.9293, 58.2052, -143.8836)" xlink:href="#_29"/><linearGradient id="_29-25" x1="231.9941" y1="527.9462" x2="273.2587" y2="527.9462" gradientTransform="translate(-298.1465 48.7051) rotate(-21.0149)" xlink:href="#_29"/><linearGradient id="_29-26" x1="249.5215" y1="425.3771" x2="282.653" y2="425.3771" gradientTransform="translate(-298.1465 48.7051) rotate(-21.0149)" xlink:href="#_29"/></defs><title>Confetti yellow</title><g id="Layer_2" data-name="Layer 2"><g id="Layer_1-2" data-name="Layer 1"><g class="cls-1"><path class="cls-2" d="M581.0473,111.5909a9.1574,9.1574,0,0,1,2.35-.8535,20.0983,20.0983,0,0,1,5.672-.7231c2.5418-.0428,3.069.5814,4.9577,1.492s3.1074,3.2845,4.3144,5.5684a6.5158,6.5158,0,0,1,.72,4.2626,7.1981,7.1981,0,0,0,2.4235-.2637,9.75,9.75,0,0,0,2.08-2.3407,5.38,5.38,0,0,0,.9365-1.9108c.7483-2.4306-.1161-5.05-1.5545-7.3411-1.5812-2.5183-3.4872-4.2478-6.3591-4.85a14.2858,14.2858,0,0,0-8.8011.9544c-2.72,1.2335-4.68,3.5458-6.7309,5.5981-.4922.4924-.9785.9769-1.4479,1.4678A7.14,7.14,0,0,1,581.0473,111.5909Z"/></g><polygon class="cls-3" points="473.098 138.486 471.582 129.579 480.608 131.493 473.098 138.486"/><polygon class="cls-4" points="368.344 132.519 380.579 122.485 385.499 137.877 368.344 132.519"/><polygon class="cls-5" points="461.935 367.452 460.294 347.855 497.104 350.405 461.935 367.452"/><polygon class="cls-6" points="384.291 12.959 413.016 0 391.503 28.66 384.291 12.959"/><polygon class="cls-7" points="238.535 350.188 241.789 344.094 247.437 350.616 238.535 350.188"/><polygon class="cls-8" points="656.172 230.451 644.2 218.543 663.444 209.916 656.172 230.451"/><polygon class="cls-9" points="146.038 145.585 151.427 131.629 170.421 148.21 146.038 145.585"/><polygon class="cls-10" points="402.04 34.982 405.073 29.302 410.337 35.381 402.04 34.982"/><polygon class="cls-11" points="55.162 515.54 43.19 503.631 62.434 495.004 55.162 515.54"/><polygon class="cls-12" points="395.506 622.165 411.859 595.227 410.336 631.031 395.506 622.165"/><polygon class="cls-13" points="530.486 186.965 526.594 164.095 549.771 169.008 530.486 186.965"/><polygon class="cls-14" points="19.86 337.639 39.726 325.657 43.624 349.027 19.86 337.639"/><polygon class="cls-15" points="470.176 423.424 480.908 406.001 493.094 424.026 470.176 423.424"/><polygon class="cls-16" points="501.419 408.469 497.527 385.599 520.704 390.512 501.419 408.469"/><polygon class="cls-17" points="536.94 33.356 553.021 16.635 562.843 38.196 536.94 33.356"/><polygon class="cls-18" points="352.751 57.219 357.071 51.828 361.422 59.278 352.751 57.219"/><polygon class="cls-19" points="198.751 140.219 203.071 134.828 207.422 142.278 198.751 140.219"/><polygon class="cls-20" points="317.76 69.124 313.098 64.486 320.592 61.127 317.76 69.124"/><polygon class="cls-21" points="589.098 596.486 591.196 591.051 598.594 597.509 589.098 596.486"/><polygon class="cls-22" points="372.074 47.144 379.29 48.827 374.098 56.486 372.074 47.144"/><polygon class="cls-23" points="161.882 257.803 169.098 259.486 163.905 267.146 161.882 257.803"/><polygon class="cls-24" points="5.365 309.194 0 303.857 8.624 299.99 5.365 309.194"/><polygon class="cls-25" points="646.75 136.395 657.937 131.348 649.559 142.51 646.75 136.395"/><polygon class="cls-26" points="126.903 290.032 128.098 282.153 135.21 286.759 126.903 290.032"/><polygon class="cls-27" points="66.566 220.092 62.674 197.222 85.852 202.135 66.566 220.092"/><polygon class="cls-28" points="237.506 108.325 257.098 99.486 242.424 119.034 237.506 108.325"/><polygon class="cls-29" points="118.41 342.131 130.359 344.025 122.801 357.109 118.41 342.131"/><polygon class="cls-30" points="310.322 675.276 302.156 667.154 315.281 661.27 310.322 675.276"/><polygon class="cls-31" points="662.017 563.03 672.107 561.507 668.701 578.363 662.017 563.03"/><polygon class="cls-32" points="320.038 487.884 331.805 469.391 338.614 497.439 320.038 487.884"/><polygon class="cls-33" points="585.553 158.809 602.937 171.449 578.687 168.387 585.553 158.809"/><polygon class="cls-34" points="464.795 617.531 479.578 611.892 479.368 628.05 464.795 617.531"/><polygon class="cls-35" points="315.944 24.734 313.289 9.135 329.098 12.486 315.944 24.734"/><polygon class="cls-36" points="531.764 528.834 538.673 524.666 540.029 532.794 531.764 528.834"/><polygon class="cls-37" points="197.011 338.547 210.035 333.528 209.198 348.344 197.011 338.547"/><polygon class="cls-38" points="261.625 57.976 274.648 52.957 273.812 67.773 261.625 57.976"/><polygon class="cls-39" points="509.423 535.887 516.332 531.72 517.688 539.848 509.423 535.887"/><polygon class="cls-40" points="551.933 480.286 558.842 476.119 560.197 484.246 551.933 480.286"/><polygon class="cls-41" points="617 373.455 627.699 360.102 638.478 378.554 617 373.455"/><polygon class="cls-42" points="206.635 386.057 195.086 374.569 213.65 366.247 206.635 386.057"/><polygon class="cls-43" points="256.066 294.294 277.709 289.874 263.023 309.439 256.066 294.294"/><polygon class="cls-44" points="279.272 310.268 289.972 296.915 300.751 315.368 279.272 310.268"/><g class="cls-1"><path id="_Path_" data-name="&lt;Path&gt;" class="cls-45" d="M373.7119,85.07s.49-21.6634,19.1145-27.2132,36.6467,2.6605,43.5643-12.3647c0,0-11.7439.3571-22.5427.8143S367.7,53.8132,373.7119,85.07Z"/><path class="cls-46" d="M380.2566,158.0317a38.4576,38.4576,0,0,0,7.65-14.4945c.0942-.3353.1831-.6718.2711-1.0086.8279-8.62.2317-18.7471-3.8367-28.0044C368.1655,77.7182,378.1316,62.39,378.1316,62.39c-11.291,12.9372-10.7689,28.6281.1132,59.573,9.9858,28.3965-2.8083,40.6994-2.8083,40.6994l.7563-.2082C377.6192,161.0345,378.98,159.5609,380.2566,158.0317Z"/><path id="_Path_2" data-name="&lt;Path&gt;" class="cls-47" d="M422.9366,3.196c-12.6539,5.6523-9.2571,19.049.8262,28.6282s8.6452,19.1207,8.6452,19.1207c15.268-12.8722-2.51-23.0287-9.0878-33.2627-2.394-3.7249-2.8154-11.3657-1.09-12.9853,0,0-.1239-1.2866,5.9838-1.8219,5.16-.4522,10.39,4.1218,10.39,4.1218l4.5083-5.1192s-2.7246-1.636-8.8508-1.647A25.4143,25.4143,0,0,0,422.9366,3.196Z"/></g><g class="cls-1"><path id="_Path_3" data-name="&lt;Path&gt;" class="cls-45" d="M104.8505,433.3324s-14.3257-16.2578-4.3969-32.9635,28.7438-22.8879,23.6431-38.623c0,0-8.3912,8.224-16.02,15.8809S79.2414,414.43,104.8505,433.3324Z"/><path class="cls-48" d="M159.1245,482.5322a38.4576,38.4576,0,0,0-4.2026-15.8414c-.1581-.31-.3208-.618-.4845-.9253-5.2354-6.8983-12.5388-13.9386-21.8054-17.9859-36.8426-16.0915-39.9075-34.1158-39.9075-34.1158.47,17.165,11.4912,28.3459,40.4693,43.7172,26.5916,14.1055,25.5267,31.8232,25.5267,31.8232l.4148-.6658C159.2213,486.5276,159.2224,484.5222,159.1245,482.5322Z"/><path id="_Path_4" data-name="&lt;Path&gt;" class="cls-49" d="M85.5328,339.7739c-5.47,12.7336,6.1086,20.2792,20.0151,20.4854s19.3177,8.1955,19.3177,8.1955c2.4976-19.8133-17.4571-15.2273-29.23-18.2916-4.2851-1.1153-9.7748-6.4466-9.6042-8.8071,0,0-.9633-.8618,3.1638-5.3959,3.487-3.8308,10.4321-4.0134,10.4321-4.0134l-.1562-6.82s-3.112.6444-7.6231,4.7894A25.4143,25.4143,0,0,0,85.5328,339.7739Z"/></g></g></g></svg>