<svg xmlns="http://www.w3.org/2000/svg" viewBox="0 0 718.2718 705.6897"><defs><style>.cls-1{fill:#ffb0ab;}.cls-2{fill:#ffc8c3;}.cls-3{opacity:0.5;}</style></defs><title>Confetti pink</title><g id="Layer_2" data-name="Layer 2"><g id="Layer_1-2" data-name="Layer 1"><polygon class="cls-1" points="224.143 639.125 232.915 669.392 207.581 644.046 224.143 639.125"/><polygon class="cls-1" points="224.274 13.843 235.366 0 246.54 19.129 224.274 13.843"/><polygon class="cls-2" points="561.964 636.848 573.056 623.006 584.23 642.135 561.964 636.848"/><polygon class="cls-2" points="669.459 161.767 689.324 149.785 693.222 173.155 669.459 161.767"/><polygon class="cls-2" points="89.708 223.486 109.573 211.504 113.471 234.874 89.708 223.486"/><polygon class="cls-1" points="438.483 539.679 453.922 512.208 453.601 548.042 438.483 539.679"/><polygon class="cls-1" points="100.197 109.104 102.662 91.538 122.039 102.276 100.197 109.104"/><polygon class="cls-1" points="432.015 400.784 436.421 369.581 449.139 403.084 432.015 400.784"/><polygon class="cls-2" points="363.214 179.511 364.589 170.444 372.773 175.744 363.214 179.511"/><polygon class="cls-2" points="609.12 461.498 612.187 441.266 630.45 453.094 609.12 461.498"/><polygon class="cls-1" points="117.259 467.169 120.326 446.937 138.589 458.764 117.259 467.169"/><polygon class="cls-2" points="601.113 246.194 620.979 234.212 624.877 257.582 601.113 246.194"/><polygon class="cls-2" points="520.234 694.302 540.099 682.32 543.997 705.69 520.234 694.302"/><polygon class="cls-1" points="509.658 40.226 508.95 19.774 529.078 28.04 509.658 40.226"/><polygon class="cls-2" points="601.502 226.028 604.569 205.796 622.832 217.624 601.502 226.028"/><polygon class="cls-2" points="380.136 683.48 371.589 683.444 375.365 675.177 380.136 683.48"/><polygon class="cls-1" points="658.41 436.537 667.181 466.804 641.848 441.458 658.41 436.537"/><polygon class="cls-1" points="622.955 108.291 631.31 92.643 645.814 109.389 622.955 108.291"/><polygon class="cls-1" points="665.797 541.077 676.223 536.373 668.414 546.776 665.797 541.077"/><polygon class="cls-2" points="136.677 230.232 145.032 214.585 159.535 231.331 136.677 230.232"/><polygon class="cls-2" points="170.421 180.046 190.287 168.065 194.185 191.434 170.421 180.046"/><polygon class="cls-2" points="209.352 262.423 224.792 234.952 224.471 270.786 209.352 262.423"/><polygon class="cls-1" points="158.917 50.538 179.768 48.418 172.905 73.678 158.917 50.538"/><polygon class="cls-1" points="264.215 384.578 274.277 393.063 259.599 390.126 264.215 384.578"/><polygon class="cls-2" points="707.723 138.349 709.952 128.904 718.272 133.675 707.723 138.349"/><polygon class="cls-2" points="70.028 312.364 71.403 303.296 79.588 308.597 70.028 312.364"/><polygon class="cls-1" points="298.644 407.396 290.096 407.36 293.873 399.093 298.644 407.396"/><polygon class="cls-2" points="240.277 331.537 248.013 326.87 249.531 335.972 240.277 331.537"/><polygon class="cls-2" points="467.931 96.085 469.126 88.206 476.238 92.812 467.931 96.085"/><polygon class="cls-2" points="40.863 593.341 49.039 590.849 47.876 599.863 40.863 593.341"/><polygon class="cls-1" points="583.312 373.34 589.294 393.983 572.016 376.696 583.312 373.34"/><polygon class="cls-2" points="104.658 536.629 110.73 532.967 111.922 540.11 104.658 536.629"/><polygon class="cls-1" points="434.403 57.127 436.711 78.496 422.696 58.471 434.403 57.127"/><polygon class="cls-1" points="591.926 321.721 603.875 323.614 596.317 336.698 591.926 321.721"/><polygon class="cls-1" points="578.098 525.211 595.482 537.85 571.233 534.789 578.098 525.211"/><polygon class="cls-1" points="100.291 268.385 111.114 262.978 112.573 278.017 100.291 268.385"/><polygon class="cls-2" points="628.137 563.477 641.16 558.458 640.323 573.275 628.137 563.477"/><polygon class="cls-1" points="530.751 519.968 520.589 521.444 528.324 511.131 530.751 519.968"/><polygon class="cls-2" points="422.266 674.421 435.816 666.249 438.474 682.188 422.266 674.421"/><polygon class="cls-2" points="0 545.481 13.023 540.462 12.187 555.279 0 545.481"/><polygon class="cls-1" points="221.291 216.273 231.682 239.441 202.266 229.422 221.291 216.273"/><polygon class="cls-2" points="312.442 206.549 327.213 188.114 342.094 213.589 312.442 206.549"/><polygon class="cls-1" points="569.375 424.707 597.085 412.206 576.332 439.852 569.375 424.707"/><polygon class="cls-1" points="436.375 338.707 464.085 326.206 443.332 353.852 436.375 338.707"/><polygon class="cls-2" points="239.905 42.804 243.336 20.69 263.04 32.271 239.905 42.804"/><polygon class="cls-2" points="156.873 356.207 170.774 331.124 183.412 352.357 156.873 356.207"/><g class="cls-3"><path class="cls-1" d="M114.2321,242.0535a46.7577,46.7577,0,0,1-3.0405,7.0571c-.3546.6369-.7367,1.2584-1.1329,1.8707A50.9978,50.9978,0,0,1,97.2049,257.17c-12.4864,4.4737-25.7154,6.8687-36.0246,15.4915a95.4,95.4,0,0,0-8.4755,8.1826c.2867-.1849.5712-.3728.8607-.5541a58.6794,58.6794,0,0,1,5.915-3.2726,41.6235,41.6235,0,0,1,5.8866-2.8723c10.86-4.2468,23.06-6.1531,33.2009-11.984a40.3271,40.3271,0,0,0,8.9574-7.526c.4892-.1312,6.0015-5.95,5.6073-6.0129a45.4578,45.4578,0,0,0,7.1862-9.6428,50.2468,50.2468,0,0,0,5.004-31.3931c-1.7671-10.7976-6.1779-21.0957-11.45-30.7721-5.0617-9.29-11.9846-19.0325-11.9248-29.9131a18.8484,18.8484,0,0,1,.7886-5.3407c4.6684-2.2079,9.6908-2.5172,14.8485-2.878a84.8983,84.8983,0,0,0,16.49-2.7707c5.0523-1.4224,8.7349-4.5081,12.2479-8.1906.0882-.0923.1773-.1848.2657-.2771.11.3156,4.1107-3.9189,4.9706-5.2106a50.0279,50.0279,0,0,0,7.4579-9.9249,26.0359,26.0359,0,0,0,2.6556-16.4511c-.8815-5.9653-3.1272-11.6727-7.7109-15.8986a60.1341,60.1341,0,0,0-8.2711-6.2133c-2.556-1.6416-5.2348-3.9994-8.3246-4.0778-.9453-.024-3.7324,3.9035-4.389,4.6073-1.023,1.0966-2.0453,2.1942-3.0548,3.3034-.188.2064-1.03,1.4-1.2368,1.3948,2.7585.07,4.5378,1.7729,6.84,3.1523a70.4985,70.4985,0,0,1,7.5918,5.2993,25.2065,25.2065,0,0,1,9.1013,13.9781,29.3521,29.3521,0,0,1,.2655,15.0124,26.1419,26.1419,0,0,1-2.8849,6.4908c-.1692.2847-.3454.562-.5239.8371-4.56,3.0705-10.05,3.7-15.436,4.5331-2.6331.4073-5.2378.9805-7.9156,1.1254a47.9368,47.9368,0,0,0-8.5945.952,24.3454,24.3454,0,0,0-12.2463,6.6776c-.1648.1688-.3351.3387-.5048.5085-.2821-.59-4.9529,4.4409-6.1691,6.2723a20.0759,20.0759,0,0,0-3.8854,6.2509c-3.5262,9.9185,2.4284,21.5463,7.5462,30.216,5.6092,9.5022,10.6124,19.4967,13.3854,30.117C118.1131,221.3407,117.9554,231.6436,114.2321,242.0535Z"/><path class="cls-1" d="M104.378,137.5394c.17-.17.34-.34.5048-.5085a24.3454,24.3454,0,0,1,12.2463-6.6776,47.9368,47.9368,0,0,1,8.5945-.952c2.6778-.1449,5.2825-.7182,7.9156-1.1254,5.386-.8329,10.8763-1.4626,15.436-4.5331l2.4842-1.51c-.86,1.2916-4.86,5.5261-4.9706,5.2106-.0885.0924-.1775.1848-.2657.2771-3.5129,3.6825-7.1955,6.7682-12.2479,8.1906a84.8983,84.8983,0,0,1-16.49,2.7707c-5.1577.3607-10.18.67-14.8485,2.878Z"/><path class="cls-1" d="M107.5252,254.6347a40.3271,40.3271,0,0,1-8.9574,7.526c-10.1412,5.8308-22.34,7.7372-33.2009,11.984A41.6235,41.6235,0,0,0,59.48,277.017a58.6794,58.6794,0,0,0-5.915,3.2726c-.2895.1813-.574.3691-.8607.5541a95.4,95.4,0,0,1,8.4755-8.1826c10.3092-8.6228,23.5382-11.0178,36.0246-15.4915a50.9978,50.9978,0,0,0,12.8539-6.1883Z"/></g><g class="cls-3"><path class="cls-1" d="M652.5632,515.1782a46.7577,46.7577,0,0,1,1.4015,7.5553c.06.7265.0883,1.4555.1,2.1847a50.9978,50.9978,0,0,1-7.2351,12.2951c-7.8841,10.6661-17.542,20.0184-21.3081,32.92a95.4,95.4,0,0,0-2.4876,11.5153c.1352-.3132.2671-.6276.4067-.9393a58.6794,58.6794,0,0,1,3.0929-6.0109,41.6235,41.6235,0,0,1,3.2921-5.6625c6.6595-9.5726,15.7339-17.9459,20.9142-28.4343a40.3271,40.3271,0,0,0,3.2534-11.2379c.3334-.3813,1.6747-8.2834,1.3122-8.1164a45.4578,45.4578,0,0,0,.6038-12.0109,50.2468,50.2468,0,0,0-13.3144-28.8668c-7.4775-7.9874-16.8735-14.0884-26.6392-19.1933-9.3755-4.9009-20.5495-9.1425-26.5554-18.2156a18.8484,18.8484,0,0,1-2.3172-4.8761c2.65-4.4326,6.65-7.4848,10.7347-10.655a84.8983,84.8983,0,0,0,12.1583-11.48c3.4059-3.9936,4.7481-8.6068,5.6173-13.6214.0219-.1258.0444-.2522.0665-.3781.2674.2007,1.2342-5.5437,1.23-7.0954a50.0279,50.0279,0,0,0,.6724-12.3964,26.0359,26.0359,0,0,0-6.95-15.1458c-4.0524-4.4655-9.0946-7.9574-15.2546-8.9173a60.1341,60.1341,0,0,0-10.33-.5588c-3.0372.0587-6.575-.4094-9.1857,1.2452-.7987.5062-.9285,5.32-1.0823,6.2705-.24,1.48-.4781,2.9613-.7,4.4446a7.4973,7.4973,0,0,1-.2513,1.8472c2.3307-1.477,4.7568-1.0526,7.4371-1.1877a70.4985,70.4985,0,0,1,9.2567.1776,25.2065,25.2065,0,0,1,15.341,6.5479,29.3521,29.3521,0,0,1,8.5757,12.3247,26.1419,26.1419,0,0,1,1.2156,6.9982c.0178.3307.0258.6592.0306.9871-2.0794,5.0887-6.29,8.6675-10.3016,12.357-1.9609,1.8038-3.8059,3.73-5.95,5.34a47.9368,47.9368,0,0,0-6.6106,5.5741,24.3454,24.3454,0,0,0-6.4581,12.3635c-.043.2319-.09.4679-.1364.7034-.5628-.3334-1.6434,6.4461-1.6345,8.6445a20.076,20.076,0,0,0,.2509,7.3557c2.59,10.203,14.0091,16.5495,23.0862,20.9041,9.9487,4.7728,19.6678,10.2919,27.8824,17.572C644.26,495.81,649.8629,504.4572,652.5632,515.1782Z"/><path class="cls-1" d="M586.2092,433.83c.0465-.2356.0934-.4715.1364-.7034a24.3454,24.3454,0,0,1,6.4581-12.3635,47.9368,47.9368,0,0,1,6.6106-5.5741c2.1441-1.6107,3.9891-3.5366,5.95-5.34,4.0112-3.69,8.2222-7.2683,10.3016-12.357l1.2236-2.6369c.0044,1.5517-.9624,7.2961-1.23,7.0954-.0221.126-.0446.2523-.0665.3781-.8691,5.0146-2.2114,9.6278-5.6173,13.6214a84.8983,84.8983,0,0,1-12.1583,11.48c-4.0843,3.17-8.0849,6.2224-10.7347,10.655Z"/><path class="cls-1" d="M653.9931,529.3635a40.3271,40.3271,0,0,1-3.2534,11.2379c-5.18,10.4884-14.2547,18.8617-20.9142,28.4343a41.6235,41.6235,0,0,0-3.2921,5.6625,58.6794,58.6794,0,0,0-3.0929,6.0109c-.14.3117-.2714.6262-.4067.9393a95.4,95.4,0,0,1,2.4876-11.5153c3.766-12.9016,13.424-22.2539,21.3081-32.92a50.9978,50.9978,0,0,0,7.2351-12.2951Z"/></g></g></g></svg>