<svg xmlns="http://www.w3.org/2000/svg" viewBox="0 0 724.5537 680.2274"><defs><style>.cls-1{fill:#60c6a7;}.cls-2{fill:#88dbca;}.cls-3{opacity:0.5;}</style></defs><title>Confetti green</title><g id="Layer_2" data-name="Layer 2"><g id="Layer_1-2" data-name="Layer 1"><polygon class="cls-1" points="300.499 619.304 304.056 596.379 324.481 608.384 300.499 619.304"/><polygon class="cls-1" points="309.21 399.392 337.935 386.433 316.422 415.093 309.21 399.392"/><polygon class="cls-2" points="512.212 60.56 500.883 70.965 513.576 70.965 512.212 60.56"/><polygon class="cls-2" points="435.144 452.136 446.236 438.293 457.41 457.422 435.144 452.136"/><polygon class="cls-1" points="541.787 232.35 556.045 214.05 568.053 234.474 541.787 232.35"/><polygon class="cls-2" points="58.431 423.046 61.987 400.122 82.413 412.127 58.431 423.046"/><polygon class="cls-1" points="183.545 512.433 207.015 501.844 193.49 534.085 183.545 512.433"/><polygon class="cls-2" points="18.559 453.778 12.629 467.971 24.155 462.656 18.559 453.778"/><polygon class="cls-2" points="701.696 225.278 710.051 209.631 724.554 226.377 701.696 225.278"/><polygon class="cls-1" points="372.669 98.533 387.286 80.518 398.888 101.175 372.669 98.533"/><polygon class="cls-1" points="148.997 331.705 158.87 313.782 171.918 331.194 148.997 331.705"/><polygon class="cls-2" points="257.146 240.923 260.213 220.691 278.476 232.518 257.146 240.923"/><polygon class="cls-2" points="300.902 112.929 303.969 92.697 322.232 104.524 300.902 112.929"/><polygon class="cls-1" points="562.577 105.769 563.868 97.447 571.282 101.805 562.577 105.769"/><polygon class="cls-1" points="525.343 91.088 533.019 112.981 510.658 100.19 525.343 91.088"/><polygon class="cls-2" points="89.28 368.137 80.059 380.45 92.534 378.114 89.28 368.137"/><polygon class="cls-2" points="70.534 547.447 75.505 541.243 80.513 549.817 70.534 547.447"/><polygon class="cls-1" points="435.893 74.065 437.278 65.137 445.233 69.812 435.893 74.065"/><polygon class="cls-1" points="601.995 317.407 621.86 305.426 625.758 328.795 601.995 317.407"/><polygon class="cls-1" points="555.589 307.241 564.868 304.447 564.028 314.308 555.589 307.241"/><polygon class="cls-1" points="446.314 12.959 475.038 0 453.525 28.66 446.314 12.959"/><polygon class="cls-2" points="1.442 599.39 0 606.132 4.639 602.84 1.442 599.39"/><polygon class="cls-2" points="653.255 177.332 657.574 171.941 661.926 179.391 653.255 177.332"/><polygon class="cls-1" points="475.163 447.411 476.454 439.09 483.868 443.447 475.163 447.411"/><polygon class="cls-2" points="576.724 360.529 577.919 352.65 585.031 357.256 576.724 360.529"/><polygon class="cls-1" points="133.587 499.899 134.868 491.447 142.496 496.388 133.587 499.899"/><polygon class="cls-1" points="651.699 521.708 659.875 519.215 658.712 528.229 651.699 521.708"/><polygon class="cls-1" points="150.649 382.495 170.515 370.514 174.413 393.884 150.649 382.495"/><polygon class="cls-2" points="362.577 402.002 370.314 397.336 371.832 406.437 362.577 402.002"/><polygon class="cls-2" points="490.632 51.445 491.826 43.565 498.939 48.171 490.632 51.445"/><polygon class="cls-1" points="411.107 163.53 432.463 150.956 437.602 177.052 411.107 163.53"/><polygon class="cls-1" points="22.781 251.441 25.207 235.806 39.138 243.994 22.781 251.441"/><polygon class="cls-2" points="217.839 276.72 210.112 283.817 218.769 283.817 217.839 276.72"/><polygon class="cls-2" points="178.364 113.984 185.929 104.542 193.55 117.589 178.364 113.984"/><polygon class="cls-1" points="256.041 502.96 270.825 497.321 270.614 513.479 256.041 502.96"/><polygon class="cls-2" points="94.954 170.001 96.191 162.028 103.294 166.203 94.954 170.001"/><polygon class="cls-1" points="662.11 239.286 683.501 241.379 661.043 251.022 662.11 239.286"/><polygon class="cls-2" points="56.238 271.088 45.825 272.37 52.869 277.403 56.238 271.088"/><polygon class="cls-2" points="131.857 187.151 139.422 177.709 147.043 190.756 131.857 187.151"/><polygon class="cls-1" points="465.393 473.357 467.485 459.558 479.941 467.625 465.393 473.357"/><polygon class="cls-2" points="542.986 573.997 544.052 566.961 550.404 571.074 542.986 573.997"/><polygon class="cls-2" points="515.175 449.17 516.241 442.134 522.593 446.247 515.175 449.17"/><polygon class="cls-1" points="525.294 146.434 538.843 138.262 541.502 154.202 525.294 146.434"/><polygon class="cls-1" points="276.772 134.988 290.584 142.709 278.055 152.915 276.772 134.988"/><polygon class="cls-1" points="149.773 452.364 151.865 438.565 164.321 446.632 149.773 452.364"/><polygon class="cls-2" points="356.57 31.972 357.637 24.935 363.989 29.049 356.57 31.972"/><polygon class="cls-1" points="447.868 400.447 439.35 381.746 464.299 377.68 447.868 400.447"/><polygon class="cls-2" points="170.506 650.406 142.069 674.247 173.928 674.247 170.506 650.406"/><path class="cls-2" d="M195.5321,631.7542c7.1678,6.0532,17.1588,9.2685,26.8814,10.9925,12.43,2.2039,25.3664-.3058,37.9765-1.369,6.1364-.5173,12.0223-.5661,17.5384,1.7829.4915.2093.9741.4364,1.4534.6686a56.3481,56.3481,0,0,0-5.4391,3.4314,14.6809,14.6809,0,0,0-4.7423,4.91,6.916,6.916,0,0,0-.4051,4.5274,20.5133,20.5133,0,0,0,.9691,4.2648c.3982,2.0438.7826,4.2611,2.1668,5.8832,1.6508,1.9346,4.3255,2.609,7.0305,2.6228,2.9735.0152,5.4553-.6669,7.5031-2.7684a14.2859,14.2859,0,0,0,3.9121-7.9413c.4167-2.9574-.4848-5.8515-1.1179-8.683-.1519-.6795-.3-1.35-.463-2.0092a105.4483,105.4483,0,0,1,26.5608-5.28,36.8448,36.8448,0,0,1,13.5111,1.6609c3.6113,1.0716,7.0639,2.2355,9.4671,4.8845a22.9955,22.9955,0,0,0-11.8416,4.48c-4.3465,3.4515-7.373,9.1717-6.828,14.2053-.0231-.0673-.0519-.1269-.0736-.1962q.0709.32.1419.64c.026.1709.0442.3435.0788.5125.55,2.6872.72,6.2435,2.3693,8.5958,1.657,2.3633,4.8019,2.9888,7.8287,2.5075,2.8076-.4465,6.4383-.8274,8.632-2.6987,2.07-1.7655,2.7577-4.5064,3.5506-6.8224,1.59-4.6463,1.11-9.11.1953-13.5875a41.5867,41.5867,0,0,1,11.024,1.061,53.4046,53.4046,0,0,1,6.9885,2.18c2.1523.81,4.4193,1.5321,5.8947,3.2067-.6262-.7107-.6138-3-.8164-3.92-.2244-1.0192-.179-3.0761-.9055-3.9008-1.8679-2.12-5.1852-2.9977-7.9355-3.951A45.4814,45.4814,0,0,0,346.1,649.3048a39.1177,39.1177,0,0,0-5.5527-.1429c-1.0208-3.5073-2.5615-6.9156-5.66-9.2762-2.2461-1.7112-5.3431-2.5724-8.1454-3.38a37.79,37.79,0,0,0-10.87-1.6549,87.4627,87.4627,0,0,0-10.7879,1.2507,113.98,113.98,0,0,0-12.1252,2.4083,57.1582,57.1582,0,0,0-7.7894,2.5469,28.1078,28.1078,0,0,0-15.5439-7.5885c-7.5524-1.0447-15.7875.6261-23.4015,1.3826-8.5342.8479-17.1793,1.5554-25.5314.0744-7.414-1.3146-15.242-3.5484-21.5229-7.1848a33.1523,33.1523,0,0,1-11.8748-11.5021A71.2114,71.2114,0,0,0,195.5321,631.7542ZM339.577,665.2516a9.6917,9.6917,0,0,1-2.9038,4.4974c-1.8,1.3929-4.2852,1.7284-6.4987,2.1464-3.2106.6062-6.3231.6044-8.4226-.9239a22.2164,22.2164,0,0,1,4.5527-7.527c3.1686-3.5216,7.9768-5.4683,12.8006-6.17.8132-.1183,1.63-.2021,2.4478-.2591A28.0591,28.0591,0,0,1,339.577,665.2516Zm-53.7488-16.0433c.2865-.119.5788-.23.8682-.3456a23.0407,23.0407,0,0,1,1.8713,2.46,9.55,9.55,0,0,1-.1748.9676,14.0039,14.0039,0,0,1-1.3421,3.46c-1.1909,2.1615-3.0684,4.4866-5.6875,5.3731a13.4574,13.4574,0,0,1-7.9724-.024,7.5376,7.5376,0,0,1-2.3427-1.2684,14.059,14.059,0,0,1,4.1049-4.3765A51.1519,51.1519,0,0,1,285.8282,649.2082Z"/><path class="cls-2" d="M341.5531,657.0154s-.0523.6615-.1768,1.703a7.6228,7.6228,0,0,1-.2792,1.5457,32.591,32.591,0,0,1-2.9737,7.4175,7.9587,7.9587,0,0,1-3.9349,3.3219c-1.9258.8675-6.5254,1.2282-9.0186,1.1923s-3.4178-1.2243-3.4178-1.2243a2.7406,2.7406,0,0,0-.6569,1.37,8.7177,8.7177,0,0,0,.1663,3.45,7.66,7.66,0,0,0,.9333,1.7746c1.6569,2.3634,4.8019,2.9889,7.8287,2.5076,2.8076-.4465,6.4383-.8275,8.632-2.6987,2.07-1.7655,2.7578-4.5064,3.5506-6.8225,1.59-4.6462,1.11-9.11.1953-13.5874Zm-52.6209-7.1672a9.1574,9.1574,0,0,1-.5393,2.4416,20.0983,20.0983,0,0,1-2.43,5.1759c-1.3264,2.1687-2.1359,2.2792-3.9171,3.3855s-4.4384.8627-7.0135.6573a6.5158,6.5158,0,0,1-3.9842-1.6774,7.1981,7.1981,0,0,0-1.0765,2.1873,9.75,9.75,0,0,0,.8613,3.01,5.38,5.38,0,0,0,1.111,1.8148c1.6508,1.9346,4.3255,2.609,7.0305,2.6228,2.9735.0151,5.4553-.6669,7.5032-2.7684a14.2858,14.2858,0,0,0,3.912-7.9414c.4167-2.9574-.4847-5.8513-1.1179-8.683-.1519-.6795-.3-1.35-.463-2.0091A7.14,7.14,0,0,1,288.9322,649.8482Z"/><g class="cls-3"><path class="cls-2" d="M609.6088,204.0989c1.2679-9.2958-1.3733-19.4536-5.13-28.5855-4.8023-11.6744-13.8555-21.25-21.5125-31.3257-3.7261-4.903-6.9223-9.8457-7.8961-15.7615-.0868-.5271-.1537-1.0563-.2146-1.5854a56.3481,56.3481,0,0,0,5.8123,2.7523,14.6809,14.6809,0,0,0,6.6872,1.3714,6.916,6.916,0,0,0,4.0392-2.0849,20.5133,20.5133,0,0,0,3.0808-3.1042c1.5119-1.4318,3.1777-2.9448,3.8051-4.9828.7483-2.4306-.1161-5.05-1.5545-7.3411-1.5811-2.5184-3.4872-4.2478-6.359-4.85a14.2859,14.2859,0,0,0-8.801.9543c-2.72,1.2335-4.68,3.5459-6.7309,5.5981-.4922.4924-.9785.9769-1.448,1.4679A105.4483,105.4483,0,0,1,554.6917,97.03a36.8448,36.8448,0,0,1-5.84-12.2963c-1.0311-3.623-1.8993-7.1616-.9513-10.61a22.9955,22.9955,0,0,0,10.1292,7.5954c5.2437,1.8191,11.6949,1.3078,15.6521-1.85-.0445.0556-.0793.1118-.1262.1673l.4641-.4627c.13-.1135.2663-.2214.39-.3412,1.9734-1.9051,4.8848-3.9546,5.9865-6.6079,1.1069-2.6656-.0509-5.6559-2.08-7.9531-1.8819-2.1308-4.15-4.9917-6.9053-5.84-2.6-.8008-5.2825.0875-7.6627.66-4.7749,1.148-8.286,3.9466-11.5752,7.1185a41.5867,41.5867,0,0,1-5.0136-9.8751,53.4046,53.4046,0,0,1-1.9056-7.0684c-.47-2.251-1.0756-4.552-.4527-6.6952-.2643.91-2.2034,2.1262-2.8719,2.7907-.74.7358-2.5009,1.8-2.8077,2.8554-.7886,2.7134.2488,5.9842.9183,8.817a45.4814,45.4814,0,0,0,3.6747,10.15,39.1177,39.1177,0,0,0,2.8558,4.7641c-2.4136,2.7418-4.465,5.8694-4.7969,9.7507-.2406,2.8134.6925,5.8895,1.5132,8.6879a37.79,37.79,0,0,0,4.43,10.0639,87.4627,87.4627,0,0,0,6.8385,8.4367,113.98,113.98,0,0,0,8.5326,8.9451,57.1582,57.1582,0,0,0,6.3254,5.2105,28.1078,28.1078,0,0,0,1.9259,17.19c3.1665,6.9357,8.9913,12.9921,13.7113,19.0142,5.29,6.75,10.5218,13.6689,13.7487,21.5136,2.8644,6.9635,5.1748,14.7693,5.4718,22.0208a33.1523,33.1523,0,0,1-3.3446,16.19A71.2114,71.2114,0,0,0,609.6088,204.0989ZM560.6735,64.5413a9.6917,9.6917,0,0,1,5.3532.0406c2.1406.7726,3.7561,2.691,5.2955,4.3356,2.2328,2.3854,3.9,5.0139,3.7349,7.6055a22.2164,22.2164,0,0,1-8.7946.1914c-4.6713-.7872-8.8922-3.8027-12.07-7.4989-.5357-.6231-1.0444-1.2677-1.5309-1.9275A28.0591,28.0591,0,0,1,560.6735,64.5413Zm15.2677,53.9742c-.254-.1781-.5048-.3651-.7572-.5476a23.0406,23.0406,0,0,1,1.0732-2.8981,9.55,9.55,0,0,1,.9105-.3711,14.0039,14.0039,0,0,1,3.6408-.7219c2.4631-.1533,5.4324.1853,7.5847,1.9212a13.4574,13.4574,0,0,1,4.2532,6.7431,7.5376,7.5376,0,0,1,.185,2.6576,14.059,14.059,0,0,1-5.895-1.1193A51.1519,51.1519,0,0,1,575.9412,118.5156Z"/><path class="cls-2" d="M552.6613,67.288s.5865-.31,1.5325-.7636a7.6228,7.6228,0,0,1,1.4545-.5928,32.591,32.591,0,0,1,7.8559-1.4657,7.9587,7.9587,0,0,1,4.9136,1.5412c1.7646,1.1607,4.5347,4.85,5.8409,6.9744s.7985,3.5415.7985,3.5415a2.7406,2.7406,0,0,0,1.5087-.18,8.7177,8.7177,0,0,0,2.8231-1.99,7.66,7.66,0,0,0,.9978-1.7392c1.107-2.6657-.0508-5.6559-2.08-7.9531-1.8819-2.1308-4.15-4.9916-6.9053-5.84-2.6-.8009-5.2825.0875-7.6628.66-4.7748,1.1479-8.2859,3.9465-11.5751,7.1185Zm22.1563,48.2641a9.1574,9.1574,0,0,1,2.35-.8535,20.0983,20.0983,0,0,1,5.672-.7231c2.5418-.0428,3.069.5814,4.9577,1.492s3.1074,3.2845,4.3144,5.5684a6.5158,6.5158,0,0,1,.72,4.2626,7.1981,7.1981,0,0,0,2.4235-.2637,9.75,9.75,0,0,0,2.08-2.3407,5.38,5.38,0,0,0,.9365-1.9108c.7483-2.4306-.1161-5.05-1.5545-7.3411-1.5812-2.5183-3.4872-4.2478-6.3591-4.85a14.2858,14.2858,0,0,0-8.8011.9544c-2.72,1.2335-4.68,3.5458-6.7309,5.5981-.4922.4924-.9785.9769-1.4479,1.4678A7.14,7.14,0,0,1,574.8176,115.5521Z"/></g></g></g></svg>