<svg xmlns="http://www.w3.org/2000/svg" viewBox="0 0 283.45 271.45"><defs><style>.cls-1{fill:#ef4f64;}.cls-2{fill:#666;}</style></defs><title>Asset 2</title><g id="Layer_2" data-name="Layer 2"><g id="Layer_1-2" data-name="Layer 1"><path class="cls-1" d="M141.72.13a135.728,135.728,0,0,0,0,271.19,135.7276,135.7276,0,0,0,0-271.19Zm6,248.7q-3.015,0-6-.16-2.985.165-6,.16a113.105,113.105,0,0,1,0-226.21q3.015,0,6,.16,2.985-.165,6-.16a113.105,113.105,0,1,1,0,226.21Z"/><path class="cls-2" d="M283.45,135.72A135.7321,135.7321,0,0,1,147.72,271.45q-3.015,0-6-.13a135.7276,135.7276,0,0,0,0-271.19q2.985-.135,6-.13A135.73,135.73,0,0,1,283.45,135.72Z"/><path class="cls-1" d="M141.72.13q-2.985-.135-6-.13a135.725,135.725,0,0,0,0,271.45q3.015,0,6-.13a135.7276,135.7276,0,0,0,0-271.19Zm-6,248.7a113.105,113.105,0,0,1,0-226.21q3.015,0,6,.16a113.104,113.104,0,0,1,0,225.89Q138.735,248.835,135.72,248.83Z"/><path class="cls-1" d="M135.7239,41.1057a94.6192,94.6192,0,1,0,94.6192,94.6192A94.6053,94.6053,0,0,0,135.7239,41.1057Zm0,165.5836a70.9644,70.9644,0,1,1,70.9644-70.9644A70.9661,70.9661,0,0,1,135.7239,206.6894Z"/><path class="cls-1" d="M135.7239,86.9252a48.8,48.8,0,1,0,48.8,48.8A48.7925,48.7925,0,0,0,135.7239,86.9252Zm0,73.2a24.4,24.4,0,1,1,24.4-24.4A24.3963,24.3963,0,0,1,135.7239,160.1248Z"/><circle class="cls-1" cx="135.7239" cy="135.7249" r="8.0828"/></g></g></svg>