<svg xmlns="http://www.w3.org/2000/svg" viewBox="0 0 180.8273 442.2997">
    <defs>
        <style>
            .cls-1{fill:#f9b69b;}.cls-2{fill:#37b34a;}.cls-3{opacity:0.1;}.cls-4{fill:#ed1e79;}.cls-5{fill:#ff7bac;}.cls-6{fill:#f7931e;}.cls-7{fill:#fbb03b;}.cls-8{fill:#8bc53f;}.cls-9{stroke:#000;}.cls-10,.cls-9{stroke-miterlimit:10;stroke-width:3px;}.cls-10{fill:red;stroke:red;}.cls-11{fill:#231f20;}.cls-12{fill:none;}.cls-13{fill:#25a9e0;}.cls-14{fill:#fff;}
        </style>
    </defs>
    <title>Man</title>
    <g id="Layer_2" data-name="Layer 2">
        <g id="Layer_1-2" data-name="Layer 1">
            <path class="cls-1"
                  d="M162.0088,88.6124h20.393a0,0,0,0,1,0,0V95.41a10.1965,10.1965,0,0,1-10.1965,10.1965h0A10.1965,10.1965,0,0,1,162.0088,95.41V88.6124A0,0,0,0,1,162.0088,88.6124Z"
                  transform="translate(148.2624 293.3533) rotate(-112.4634)"/>
            <path class="cls-2"
                  d="M167.0095,86.8823l8.5712,20.73c-38.5652,21.4655-77.0023,37.864-115.2726,47.6611a11.2162,11.2162,0,0,1-14.6507-6.08h0a11.2162,11.2162,0,0,1,6.0795-14.6507Q112.7358,121.8615,167.0095,86.8823Z"/>
            <ellipse class="cls-3" cx="72.8097" cy="420.5472" rx="61.8587"
                     ry="21.7525"/>
            <ellipse class="cls-3" cx="74.5091" cy="419.8787" rx="38.4068"
                     ry="12.2246"/>
            <path class="cls-4"
                  d="M40.8607,401.5138h46.57a9.1705,9.1705,0,0,1,9.1705,9.1705v.6924a9.1705,9.1705,0,0,1-9.1705,9.1705h-37.4a9.1705,9.1705,0,0,1-9.1705-9.1705v-9.8629A0,0,0,0,1,40.8607,401.5138Z"/>
            <path class="cls-5"
                  d="M70.1873,407.6317h46.3771a11.3064,11.3064,0,0,1,11.3064,11.3064v2.3835a5.3435,5.3435,0,0,1-5.3435,5.3435H79.3578a11.3064,11.3064,0,0,1-11.3064-11.3064v-5.5911a2.1359,2.1359,0,0,1,2.1359-2.1359Z"/>
            <path class="cls-6"
                  d="M49.7867,226.8138H68.6421a10.2855,10.2855,0,0,1,10.2855,10.2855V397.3461a10.2855,10.2855,0,0,1-10.2855,10.2855H39.5012a0,0,0,0,1,0,0V237.0994A10.2855,10.2855,0,0,1,49.7867,226.8138Z"/>
            <path class="cls-7"
                  d="M76.9867,226.8138H94.4639a10.2949,10.2949,0,0,1,10.2949,10.2949V404.1345a10.2949,10.2949,0,0,1-10.2949,10.2949H66.6918a0,0,0,0,1,0,0V237.1087A10.2949,10.2949,0,0,1,76.9867,226.8138Z"/>
            <path class="cls-1"
                  d="M79.485,105.9514v.2583a4.2446,4.2446,0,0,1-.1224,1.0265l-.0748.4011a7.1787,7.1787,0,0,0-1.0129-.0748H56.6245c-.1563,0-.3127.0068-.469.0136l-.0272-.34a4.2439,4.2439,0,0,1-.1156-1.0265v-.0475c2.3724.4826,9.8023,1.5566,23.4587-.204C79.4782,105.9582,79.4782,105.9514,79.485,105.9514Z"/>
            <path class="cls-1"
                  d="M90.5449,58.9388a3.9982,3.9982,0,0,1-.537.2107,4.3208,4.3208,0,0,0,.5166-.2107,3.9461,3.9461,0,0,0,1.883-4.7584l-.36-1.1556V53.018l-.4894-1.5362.0136-.0136.0068.0136.4895,1.5362v.0068l.36,1.1556A3.9461,3.9461,0,0,1,90.5449,58.9388Z"/>
            <path class="cls-8"
                  d="M51.401,105.8155H76.8837a33.993,33.993,0,0,1,33.993,33.993v93.9942a8.6458,8.6458,0,0,1-8.6458,8.6458H42.0291a8.6458,8.6458,0,0,1-8.6458-8.6458v-109.97A18.0177,18.0177,0,0,1,51.401,105.8155Z"/>
            <path class="cls-1"
                  d="M77.2282,257.4033h20.393a0,0,0,0,1,0,0v6.7977a10.1965,10.1965,0,0,1-10.1965,10.1965h0A10.1965,10.1965,0,0,1,77.2282,264.201v-6.7977a0,0,0,0,1,0,0Z"/>
            <path class="cls-2"
                  d="M87.4247,123.4894h0a11.2161,11.2161,0,0,1,11.2161,11.2161V259.4426a0,0,0,0,1,0,0H76.2086a0,0,0,0,1,0,0V134.7055a11.2161,11.2161,0,0,1,11.2161-11.2161Z"/>
            <path class="cls-9"
                  d="M3.0581,1.5a1.4828,1.4828,0,0,1,1.0908.4414,1.4949,1.4949,0,0,1,.4673,1.09l.104,24.749a1.5237,1.5237,0,0,1-.4673,1.1167,1.4828,1.4828,0,0,1-1.0908.4414A1.5512,1.5512,0,0,1,1.604,27.8066L1.5,3.0581a1.57,1.57,0,0,1,.4414-1.1167A1.5687,1.5687,0,0,1,3.0581,1.5ZM1.9932,36.1689a1.4831,1.4831,0,0,1,1.0908-.4414,1.515,1.515,0,0,1,1.1167.4414,1.5685,1.5685,0,0,1,0,2.1816,1.5245,1.5245,0,0,1-1.1167.4673,1.4959,1.4959,0,0,1-1.0908-.4673,1.5068,1.5068,0,0,1,0-2.1816Z"/>
            <path class="cls-10"
                  d="M26.95,1.6558a9.7328,9.7328,0,0,1,7.1416,2.96,9.7468,9.7468,0,0,1,2.9346,7.1157,10.0694,10.0694,0,0,1-8.5181,9.9722v5.8433A1.5512,1.5512,0,0,1,26.95,29.0791a1.4793,1.4793,0,0,1-1.0908-.4414,1.5377,1.5377,0,0,1-.4414-1.09V20.2759a1.482,1.482,0,0,1,.4414-1.0908,1.4411,1.4411,0,0,1,1.0908-.4678,6.7265,6.7265,0,0,0,4.9341-2.0513,6.7278,6.7278,0,0,0,2.0518-4.9341,6.7288,6.7288,0,0,0-2.0518-4.9346,6.96,6.96,0,0,0-9.8682,0,6.727,6.727,0,0,0-2.0518,4.9346A1.552,1.552,0,0,1,18.4321,13.29a1.5223,1.5223,0,0,1-1.1167-.4678,1.48,1.48,0,0,1-.4414-1.09,9.7026,9.7026,0,0,1,2.96-7.1157A9.7018,9.7018,0,0,1,26.95,1.6558ZM25.8076,36.1689a1.4734,1.4734,0,0,1,1.09-.4155A1.4662,1.4662,0,0,1,28.43,37.26a1.5687,1.5687,0,0,1-.4414,1.1167,1.538,1.538,0,0,1-1.0908.4414,1.48,1.48,0,0,1-1.09-.4414A1.5223,1.5223,0,0,1,25.34,37.26,1.4938,1.4938,0,0,1,25.8076,36.1689Z"/>
            <path class="cls-11"
                  d="M96.4176,32.3028a6.8767,6.8767,0,0,0-4.94-2.05h-31.79a16.1224,16.1224,0,0,0-11.34,4.68,37.2008,37.2008,0,0,0-7.96,11.92,36.8244,36.8244,0,0,0-2.78,14.05v.12c0,10.74,3.91,22.71,10.95,30.99a7.7209,7.7209,0,0,0,5.86,2.72h14.44a5.5948,5.5948,0,0,0,5.18-3.68c.03-.13.08-.27.11-.4a5.8155,5.8155,0,0,0,.16-.85c0-.03.01-.07.01-.1.01-.16.01-.31.01-.46v-17.88a7.3363,7.3363,0,0,1,.1-1.15,1.4368,1.4368,0,0,1,.07-.36c.03-.13.05-.25.08-.36a2.1242,2.1242,0,0,1,.1-.36c.04-.11.08-.22.12-.34a6.2028,6.2028,0,0,1,.28-.66c.04-.11.1-.21.15-.32.06-.1.12-.21.18-.3.07-.11.13-.21.2-.31s.14-.2.21-.29a2.1812,2.1812,0,0,1,.14-.18c.03-.04.05-.07.07-.1h.01a.01.01,0,0,1,.01-.01c.11-.13.24-.27.37-.41.03-.03.06-.07.09-.1h.01v-.01c.17-.17.35-.33.52-.48h.01c.19-.15.37-.29.57-.42v-.01a7.8405,7.8405,0,0,1,2.64-1.11.17.17,0,0,0,.07-.01c.13-.03.26-.05.39-.07a7.3089,7.3089,0,0,1,1.05-.09h.01a2.0742,2.0742,0,0,1,2.06,2.08v7.42a2.057,2.057,0,0,0,2.06,2.06h.01a2.0109,2.0109,0,0,0,.65-.1,1.6025,1.6025,0,0,0,.3-.13,1.7963,1.7963,0,0,0,.5-.35,3.0782,3.0782,0,0,0,.37-.5c.03-.07.06-.15.09-.22a.547.547,0,0,0,.06-.18,1.9941,1.9941,0,0,0,.08-.56v-12.56a12.2607,12.2607,0,0,1,.09-1.6s1.12-6.64,3.51-7.79l.01-.01c.11-.13.22-.24.34-.36a.6467.6467,0,0,0,.09-.08v-.01l.06-.06,1.25-1.26.27-.27a1.6115,1.6115,0,0,0,.13-.13,1.7629,1.7629,0,0,0,.12-.14h.01v-.01a.01.01,0,0,0,.01-.01,17.5579,17.5579,0,0,0,4.63-11.9A6.92,6.92,0,0,0,96.4176,32.3028Z"/>
            <path class="cls-1"
                  d="M96.9676,62.1028v21.4a27.8093,27.8093,0,0,1-3.86,14.37c-2.2,3.67-4.46,5.51-9.12,5.51h-.72a6.6521,6.6521,0,0,1-3.78-1.16v3.73c-.01,0-.01.01-.02.01-13.65,1.76-21.08.68-23.45.2v-11.43h12.84a5.5948,5.5948,0,0,0,5.18-3.68c.03-.13.08-.27.11-.4a5.8155,5.8155,0,0,0,.16-.85c0-.03.01-.07.01-.1.01-.16.01-.31.01-.46v-15.57c0,.17.02.32.03.49v-.46h-.01v-2.37a8.3192,8.3192,0,0,1,.08-1.12c.02-.12.05-.25.07-.36.03-.13.05-.25.08-.36.03-.13.07-.24.11-.36.03-.11.07-.22.11-.34a6.2028,6.2028,0,0,1,.28-.66c.05-.11.1-.21.16-.32.06-.1.11-.21.17-.3.07-.11.13-.21.2-.31h.01c.07-.1.13-.2.2-.29a2.1812,2.1812,0,0,1,.14-.18c.03-.03.05-.07.08-.1a.01.01,0,0,1,.01-.01c.11-.13.24-.27.37-.41a.9423.9423,0,0,1,.1-.1v-.01c.17-.17.35-.33.52-.48h.01c.19-.15.37-.29.57-.42v-.01a7.8405,7.8405,0,0,1,2.64-1.11.17.17,0,0,0,.07-.01c.13-.03.26-.05.39-.07a7.3089,7.3089,0,0,1,1.05-.09h.01a2.0742,2.0742,0,0,1,2.06,2.08v7.42a2.057,2.057,0,0,0,2.06,2.06h.01a2.0109,2.0109,0,0,0,.65-.1,1.6025,1.6025,0,0,0,.3-.13,1.7963,1.7963,0,0,0,.5-.35,3.0782,3.0782,0,0,0,.37-.5c.03-.07.06-.15.09-.22a.547.547,0,0,0,.06-.18,1.9941,1.9941,0,0,0,.08-.56v-12.56a12.2607,12.2607,0,0,1,.09-1.6s1.12-6.64,3.51-7.79l.01-.01c.11-.12.23-.24.34-.36a.6467.6467,0,0,0,.09-.08v-.01l.06-.06,1.25-1.26.27-.27a1.6115,1.6115,0,0,0,.13-.13.8681.8681,0,0,0,.13-.14v-.01a.01.01,0,0,0,.01-.01A28.2393,28.2393,0,0,1,96.9676,62.1028Z"/>
            <path class="cls-12"
                  d="M91.9976,51.0328a.8778.8778,0,0,1-.43.44A5.98,5.98,0,0,1,91.9976,51.0328Z"/>
            <path class="cls-13"
                  d="M43.8752,76.7149a6.35,6.35,0,0,1-.853.3347,4.703,4.703,0,0,1-.8745.2159,5.7885,5.7885,0,0,1-1.0689.0972,4.8351,4.8351,0,0,1-1.1228-.1188h-.054c-.14-.0324-.27-.054-.41-.0863a6.1864,6.1864,0,0,1-.637-.1836,4.76,4.76,0,0,1-.583-.2591A6.2711,6.2711,0,0,1,35.27,69.168l.5723-1.8247.0107-.0324,4.2324-13.3771a1.0284,1.0284,0,0,1,.8421-.7234,1.2268,1.2268,0,0,1,.2807,0,.775.775,0,0,1,.27.0756,1.0186,1.0186,0,0,1,.5938.6478l3.4334,10.9155.0108.0216.7774,2.44v.0108l.5722,1.8355A6.2675,6.2675,0,0,1,43.8752,76.7149Z"/>
            <path class="cls-14"
                  d="M38.3085,70.8282a4.8753,4.8753,0,0,0-.0951,1.5578,3.672,3.672,0,0,0,.4716,1.5218,2.9145,2.9145,0,0,0,1.201,1.1393,5.2045,5.2045,0,0,0,1.7327.5451,5.4739,5.4739,0,0,1-1.91-.0774,3.67,3.67,0,0,1-1.7962-.9714,4.9026,4.9026,0,0,1-1.1523-1.784,6.5825,6.5825,0,0,1-.4425-2.127l-.0009-.0225a1.0125,1.0125,0,0,1,2.0236-.0765A1.0449,1.0449,0,0,1,38.3085,70.8282Z"/>
        </g>
    </g>
</svg>