<svg xmlns="http://www.w3.org/2000/svg" xmlns:xlink="http://www.w3.org/1999/xlink" viewBox="0 0 471.5564 607.8667"><defs><style>.cls-1{fill:#e6e6e6;}.cls-2{opacity:0.05;}.cls-3{fill:#ff7bac;opacity:0.2;}.cls-4{fill:#fff;}.cls-5{fill:#f7cbd0;}.cls-6{fill:#464646;}.cls-7{isolation:isolate;}.cls-8{clip-path:url(#clip-path);}.cls-9{fill:#ff1d25;}.cls-10,.cls-15{fill:#ffe1e1;}.cls-11{fill:#fde0e0;}.cls-12{fill:#999;}.cls-13{fill:none;stroke:#000;stroke-linecap:round;stroke-width:11px;}.cls-13,.cls-15{stroke-miterlimit:10;}.cls-14{fill:#ccc;}.cls-15{stroke:#fde0e0;stroke-width:0.4144px;}</style><clipPath id="clip-path"><path class="cls-1" d="M317.8922,341.7027v12.941a4.4649,4.4649,0,0,1-.4683,1.9647c-5.877,12.5184-67.4458,22.3679-142.5327,22.3679-78.9751,0-143.001-10.8927-143.001-24.3326V341.7027c0,13.44,64.0259,24.3326,143.001,24.3326,75.0869,0,136.6558-9.85,142.5327-22.3679A4.4649,4.4649,0,0,0,317.8922,341.7027Z"/></clipPath></defs><title>Asset 10</title><g id="Layer_2" data-name="Layer 2"><g id="Layer_1-2" data-name="Layer 1"><ellipse class="cls-2" cx="171.2286" cy="554.0512" rx="153.038" ry="53.8156"/><ellipse class="cls-2" cx="175.4329" cy="552.3971" rx="95.0181" ry="30.2435"/><circle class="cls-3" cx="260.0564" cy="211.5" r="211.5"/><ellipse class="cls-4" cx="337.531" cy="166.4041" rx="21.3746" ry="78.035" transform="translate(47.8683 406.6394) rotate(-65.9145)"/><ellipse class="cls-5" cx="337.5312" cy="166.4046" rx="13.227" ry="65.1434" transform="translate(47.8678 406.6396) rotate(-65.9145)"/><ellipse class="cls-4" cx="346.7848" cy="246.0794" rx="21.3764" ry="78.0354" transform="translate(-78.4384 245.864) rotate(-35.3306)"/><ellipse class="cls-5" cx="346.7857" cy="246.0785" rx="13.2279" ry="65.1425" transform="matrix(0.8158, -0.5783, 0.5783, 0.8158, -78.4376, 245.8759)"/><path class="cls-6" d="M268.3907,557.3673c-63.5522,10.8434-126.1675,11.3776-187.6543,0-8.9824,0-14.398-7.2733-12.7675-14.983,12.3761-58.528,10.9894-121.8045-1.3664-188.5831-1.3852-7.4876,4.2375-14.434,12.9447-14.434H270.1783c8.8733,0,14.7883,7.2367,12.8445,14.77-18.7874,72.823-19.5328,135.2913-2.0088,187.84C283.5777,549.6652,277.58,557.3673,268.3907,557.3673Z"/><g class="cls-7"><g class="cls-7"><path class="cls-1" d="M317.8922,341.7027v12.941a4.4649,4.4649,0,0,1-.4683,1.9647c-5.877,12.5184-67.4458,22.3679-142.5327,22.3679-78.9751,0-143.001-10.8927-143.001-24.3326V341.7027c0,13.44,64.0259,24.3326,143.001,24.3326,75.0869,0,136.6558-9.85,142.5327-22.3679A4.4649,4.4649,0,0,0,317.8922,341.7027Z"/><g class="cls-8"><g class="cls-7"><path class="cls-1" d="M317.8922,341.7027v12.941a4.294,4.294,0,0,1-.2078,1.3152v-12.941a4.294,4.294,0,0,0,.2078-1.3152"/><path class="cls-1" d="M317.6844,343.0179v12.941a4.97,4.97,0,0,1-.26.6495,6.2142,6.2142,0,0,1-.44.7793v-12.941a6.2142,6.2142,0,0,0,.44-.7793,4.97,4.97,0,0,0,.26-.6495"/><path class="cls-1" d="M316.9842,344.4467v12.941a9.559,9.559,0,0,1-1.6253,1.8317v-12.941a9.559,9.559,0,0,0,1.6253-1.8317"/><path class="cls-1" d="M315.3589,346.2785v12.941c-12.58,11.25-70.6863,19.7569-140.4677,19.7569-78.9751,0-143.001-10.8927-143.001-24.3326v-12.941c0,13.44,64.0259,24.3326,143.001,24.3326,69.7815,0,127.8877-8.5068,140.4677-19.7569"/></g></g></g><path class="cls-6" d="M317.8932,341.7073a4.3777,4.3777,0,0,1-.47,1.96c-3.93,8.36-32.68,15.53-73.7,19.37-20.42,1.91-43.88,3-68.83,3-16.48,0-32.32-.47-47.05-1.35-55.86-3.31-95.95-12.35-95.95-22.98,1.19-10.24,36.79-18.76,87.2-22.41,17.14-1.25,36-1.94,55.8-1.94,35.41,0,67.82,2.2,92.79,5.82C298.4132,327.6473,317.8932,334.2973,317.8932,341.7073Z"/></g><ellipse cx="174.8932" cy="344.1711" rx="98.5" ry="8.7772"/><path class="cls-9" d="M269.6744,486.2263s-101.712,36.8313-194.0518-.1687l.875-21.9167s77.8087,35.2619,189.8087,1.2619c1.03-.31,1.2249-.547,2.2152-.8471Z"/><path class="cls-4" d="M309.5934,198.4974c5.69-25.17-5.28-51.79-28.55-64.43-23.27-12.65-51.57-7.37-69.59,11.1-10.96,3.65-19.95,10.49-25.26,20.26-7.97,14.67-5.88,32.71,3.86,48.77a105.03,105.03,0,0,0-46.1,31.61c-15.18,17.86-29.84,42.93-35.55,64.73a83.0983,83.0983,0,0,0-1.88,9.14h-.01l-5,30.31,16.26,2.3c15.77.81,32.73,1.25,50.37,1.25,26.71,0,51.83-1.01,73.69-2.76a53.9931,53.9931,0,0,0,9.72-7.26,418.1026,418.1026,0,0,0,7.43,45.96c2.3,11.23,6.62,16.36,14.99,16.94,10.9.76,17.84-8.76,16.8-18.88-2.32-22.53-8.18-44.5-11.02-66.96a132.1338,132.1338,0,0,0-4.24-19.95c-.59-2.01-1.16-4.03-1.65-6.08-.2295-.98-1.09-3.74-1.1895-4.03-.08-.26-.15-.52-.22-.78-.72-2.76-.86-6.59-2.23-9.08a126.8563,126.8563,0,0,0-4.57-26.75c17.78-1.15,33.05-9.14,40.69-23.2C311.6529,220.9374,312.503,209.6673,309.5934,198.4974Zm-42.75,199.89a3.0344,3.0344,0,1,1,2.44-3.53A3.0327,3.0327,0,0,1,266.8434,398.3873Zm9.78,1.84a3.0334,3.0334,0,1,1,2.45-3.53A3.0353,3.0353,0,0,1,276.6231,400.2273Zm11.12-8.73a3.0344,3.0344,0,1,1-3.53-2.44A3.04,3.04,0,0,1,287.7433,391.4974Zm-16.09-18.64a9.4926,9.4926,0,1,1-7.65,11.03A9.491,9.491,0,0,1,271.6529,372.8573Z"/><path class="cls-10" d="M245.1334,267.6073c2.92,4.65-1.23,15.53-7.41,11.01.85,10.1-13.33,10.48-14.26,2.23-3.28,7.08-12.5,4.14-12.6-3.51-5.22,6.29-13.01-3.81-12.06-9.44-5.75,5.28-16.39-4.38-8.09-9.69-7.73,1.93-14.5-8.7-5.87-11.87-10.05-3.54-1.8-20.9,5.54-13.65-.78-4.99.75-10.98,6.63-6.05.11-.63-.47-2.87-.28-4.67,9.36,9.64,28.45,25.43,56.8,30.5.13,1.64-1.22,3.06-5.07,3.66C256.3629,260.0074,253.0431,271.4873,245.1334,267.6073Z"/><path class="cls-11" d="M244.5967,267.9211c2.12,4.1176-.5068,13.88-6.56,10.16a.6265.6265,0,0,0-.9353.5367c.2578,8.1972-11.553,10.4355-13.0393,2.0647a.6278.6278,0,0,0-1.1361-.1485c-3.5713,6.4869-10.9192,3.3291-11.4418-3.1963a.63.63,0,0,0-1.0611-.44c-5.4056,5.5566-11.4545-3.9069-10.9984-9,.054-.6032-.6865-.73-1.0611-.44-5.6448,4.3733-14.01-3.7957-7.3371-8.7137a.6248.6248,0,0,0-.479-1.1361c-6.4454,1.1315-13.3409-7.2049-5.3906-10.7339.5534-.2456.2782-.9571-.1485-1.1361-8.6275-3.62-1.8112-18.5388,4.9353-12.611.3572.3138,1.13.1415,1.0611-.44-.41-3.4542.4066-9.4331,5.6945-5.5133a.6254.6254,0,0,0,.9353-.5367c-.0511-1.5706-.3038-3.09-.28-4.67l-1.0611.44a110.2924,110.2924,0,0,0,21.9886,17.4145,106.0391,106.0391,0,0,0,15.93,7.8395q4.5029,1.762,9.1587,3.0922,2.43.6956,4.894,1.2658,1.6832.3908,3.3788.7242-.7889,2.7846-3.3462,2.7849a.6281.6281,0,0,0-.1485,1.1361c5.8483,3.352,5.1642,13.6452-2.8506,10.3438-.7391-.3045-1.0612.8978-.33,1.1988,9.2532,3.8114,10.9335-8.5324,3.8086-12.6161l-.1485,1.1361c2.5315-.5158,5.3615-1.2636,5.5267-4.2594a.6238.6238,0,0,0-.4564-.5994,106.64,106.64,0,0,1-56.526-30.34.6284.6284,0,0,0-1.0611.44c-.0027.1777.2871,3.9148.2561,3.9277.6183-.2565-1.5462-1.3768-1.6014-1.4a3.4573,3.4573,0,0,0-3.0368.0856c-2.548,1.4526-2.2448,5.7707-1.9676,8.1073l1.0611-.44c-8.3707-7.3549-16.5412,10.3263-6.1448,14.6889l-.1485-1.1361c-9.1964,4.082-1.5439,14.3916,6.3486,13.0061l-.479-1.1361c-8.0737,5.95,1.7192,16.1858,8.8436,10.6663l-1.0611-.44c-.5733,6.4021,6.9379,16.2351,13.1207,9.88l-1.0611-.44c.6218,7.7643,9.6154,11.3493,13.7584,3.8237l-1.1361-.1485c1.292,7.2765,12.0935,8.5881,14.9392,1.6224.1074-.263.4332-2.8425.5761-2.9354.003-.0019,1.6535.576,1.9347.5915a4.8228,4.8228,0,0,0,3.6009-1.4277c2.9863-2.7911,3.5677-8.05,1.7556-11.57C245.3038,266.582,244.2307,267.21,244.5967,267.9211Z"/><path class="cls-1" d="M230.2841,170.608c-.5873,4.15-.6814,9.7815,3.4355,12.2755,4.1263,2.5,8.9884-.391,12.2527-2.9583,1.7259-1.3574-.7052-3.7585-2.4143-2.4143-1.9589,1.5406-5.521,4.03-8.115,2.4244-2.5808-1.5969-2.2218-5.9072-1.8663-8.42.3041-2.1491-2.9853-3.0778-3.2924-.9077Z"/><path class="cls-1" d="M233.9136,181.4648q-5.9552,9.3639-11.9081,18.7292c-.5912.93.8856,1.7872,1.4741.8616q5.9542-9.3645,11.9081-18.7292c.5913-.93-.8855-1.7871-1.4741-.8616Z"/><path class="cls-1" d="M229.9394,204.7892c-3.3642-5.1947-9.2108-8.2228-15.3974-6.9336-2.15.448-1.24,3.74.9077,3.2924,4.6315-.9651,9.0489,1.5158,11.5415,5.3645,1.19,1.8379,4.1473.1283,2.9482-1.7233Z"/><path class="cls-12" d="M285.33,176.51q-2.874.5625-4.6113,1.085-1.8721.6021-5.709,1.5479-.0937,2.6265-.1953,5.2646-.1,3.0835.043,5.2646a1.9508,1.9508,0,0,1-.3789,1.37,1.9,1.9,0,0,1-1.3574.74,2.0413,2.0413,0,0,1-1.5273-.4258q-1.1455-.8862-.9531-4.9512.0938-1.147.2188-3.4541.0322-1.0459.08-3.1357-2.666.5068-6.6641,1.1592-1.3037.2476-3.9082.6318a2.1068,2.1068,0,0,1-2.3477-1.79,1.8644,1.8644,0,0,1,.3672-1.5,1.9163,1.9163,0,0,1,1.1914-.7041q1.2773-.1919,3.83-.6,2.7949-.4585,7.5664-1.3467-.0205-2.3818-.168-4.8623c-.0117-.1318-.0137-1.0342-.0117-2.707a11.5854,11.5854,0,0,0-.2578-2.6865,1.994,1.994,0,0,1,3.1738-2.08,3.6767,3.6767,0,0,1,.9609,2.1484,10.85,10.85,0,0,1,.2168,2.248q-.0205,1.03-.01,2.9961.1318,2.1182.16,4.209,2.9385-.79,5.8691-1.59,4.3887-1.0356,5.209-.4014a2.09,2.09,0,0,1,.8047,1.3721,1.8726,1.8726,0,0,1-.3672,1.5A1.9353,1.9353,0,0,1,285.33,176.51Z"/><path class="cls-12" d="M239.8219,147.0465q-1.8516.5134-2.96.9414-1.1909.4878-3.6514,1.2993.07,1.72.1367,3.4492.0923,2.0215.2949,3.438a1.2819,1.2819,0,0,1-.1787.915,1.2454,1.2454,0,0,1-.8506.5522,1.3439,1.3439,0,0,1-1.0205-.2012q-.791-.5215-.87-3.187.0029-.7551-.0332-2.269-.0293-.6841-.1045-2.0518-1.7153.4644-4.2969,1.0918-.8364.2292-2.5215.61a1.3795,1.3795,0,0,1-1.623-1.0508,1.22,1.22,0,0,1,.1641-.998,1.25,1.25,0,0,1,.7422-.5205q.8247-.1912,2.4727-.5859,1.8032-.4395,4.876-1.2612-.1333-1.5557-.3545-3.1689-.019-.1267-.1436-1.7671a7.5445,7.5445,0,0,0-.3047-1.7432,1.3071,1.3071,0,0,1,1.9688-1.5186,2.4049,2.4049,0,0,1,.7363,1.355,7.0126,7.0126,0,0,1,.2549,1.4585q.0381.6738.1445,1.9585.1934,1.377.3174,2.7422,1.8794-.6658,3.7549-1.3345,2.8154-.8987,3.3828-.5244a1.357,1.357,0,0,1,.5947.8555,1.2257,1.2257,0,0,1-.1631.9985A1.2741,1.2741,0,0,1,239.8219,147.0465Z"/><line class="cls-13" x1="66.0598" y1="335.534" x2="5.5" y2="559.6193"/><polygon class="cls-14" points="22.362 518.289 11.685 515.701 13.956 507.305 24.593 510.005 22.362 518.289"/><circle class="cls-15" cx="272.8098" cy="381.8673" r="10"/><circle class="cls-15" cx="275.9348" cy="396.8048" r="3.344" transform="translate(-199.764 311.3368) rotate(-45)"/><circle class="cls-15" cx="284.7161" cy="391.9298" r="3.3219" transform="translate(-193.7448 316.1183) rotate(-45)"/><circle class="cls-15" cx="266.2786" cy="395.3986" r="3.2998" transform="translate(-201.5978 304.097) rotate(-45)"/></g></g></svg>