<svg id="Layer_1" data-name="Layer 1" xmlns="http://www.w3.org/2000/svg" xmlns:xlink="http://www.w3.org/1999/xlink" viewBox="0 0 846 196"><defs><style>.cls-1{fill:none;}.cls-2{clip-path:url(#clip-path);}.cls-3{fill:url(#linear-gradient);}.cls-4{clip-path:url(#clip-path-2);}.cls-5{fill:url(#linear-gradient-2);}</style><clipPath id="clip-path"><path class="cls-1" d="M106.8716,104.5566q0,19.4766-12.74,31.1221-12.7419,11.65-32.396,11.6484-18.9309,0-30.8491-11.0117-11.9223-11.0082-11.9209-30.8486,0-18.0175,10.92-30.94Q40.8054,61.6062,63.01,61.605q22.2025,0,33.0327,12.831A45.256,45.256,0,0,1,106.8716,104.5566Zm-24.2061-.7275q0-12.5581-5.8237-18.3823A19.3272,19.3272,0,0,0,62.6455,79.623q-9.1026,0-14.2866,6.461-5.187,6.4621-5.187,18.1084,0,10.5585,4.8227,17.8369,4.82,7.28,14.4693,7.2793a17.9564,17.9564,0,0,0,14.6508-6.8252Q82.6644,115.6587,82.6655,103.8291Zm185.0933,41.6777h-34.398V99.2793q0-10.5542-3.5493-15.1064-3.5486-4.547-10.4648-4.55-8.3732,0-12.103,5.46-3.7324,5.46-3.731,14.0137v28.7558h10.92v17.6543H180.0347V99.2793q0-10.5542-3.5489-15.1064-3.5493-4.547-10.4653-4.55-8.5562,0-12.1938,5.46-3.6432,5.46-3.64,14.0137v28.7558h15.6524v17.6543h-50.05V127.8525h10.92V81.2607H115.9707V63.4248h34.2158v12.376q7.8237-14.0127,24.9341-14.0142a31.85,31.85,0,0,1,16.38,4.3682,23.0449,23.0449,0,0,1,10.3735,13.2861q7.2774-17.6514,26.7544-17.6543a30.3934,30.3934,0,0,1,19.6558,6.916q8.5524,6.9192,8.5542,21.4761v37.6738h10.92Zm107.9248,0H330.3652V127.8525h10.92V99.2793q0-10.5542-3.5489-15.1064-3.5493-4.547-10.4648-4.55-8.373,0-12.9219,5.1871-4.5513,5.187-4.7324,13.559v29.4834h10.92v17.6543H275.2192V127.8525h10.92V81.2607H274.31V63.4248h35.3076V75.9829q8.19-14.1958,26.3906-14.1963a31.1632,31.1632,0,0,1,20.2012,6.916q8.5531,6.9192,8.5547,21.4761v37.6738h10.92Zm53.3232,0H383.69V127.8525h10.92V81.2607h-11.83V63.4248h35.3076v64.4277h10.92ZM393.6992,48.8647V24.4771h23.4776V48.8647Zm49.3213,44.044V63.4248h24.3877V92.9087Zm0,52.5981V116.0225h24.3877v29.4843ZM577.334,102.5547q0,18.2022-9.5547,31.4863-9.5552,13.2876-28.1191,13.2861-17.2926,0-25.1163-12.1943v30.94h14.5606v18.1993h-48.958V166.0732h10.92V81.0786h-11.83V63.4248h35.3076V79.0767a32.6864,32.6864,0,0,1,9.8282-12.1939q6.5521-5.0933,17.8359-5.0962,15.65,0,25.3887,10.7383Q577.332,83.2658,577.334,102.5547Zm-24.3877,2.3662q0-12.0117-5.3692-18.291a17.2724,17.2724,0,0,0-13.7412-6.2788q-9.1025,0-13.9228,6.7339-4.8252,6.7353-5.1875,17.1074l-.1817,2.9121q0,10.0122,5.2784,15.834,5.2762,5.827,14.0136,5.8242a17.8544,17.8544,0,0,0,13.7412-5.8242Q552.9429,117.1157,552.9463,104.9209Zm119.9375-.3643q0,19.4766-12.74,31.1221-12.7413,11.65-32.3956,11.6484-18.9315,0-30.85-11.0117-11.9223-11.0082-11.9209-30.8486,0-18.0175,10.92-30.94,10.92-12.9207,33.124-12.9219t33.0332,12.831A45.256,45.256,0,0,1,672.8838,104.5566Zm-24.2061-.7275q0-12.5581-5.8242-18.3823a19.3242,19.3242,0,0,0-14.1953-5.8238q-9.104,0-14.2871,6.461-5.187,6.4621-5.1875,18.1084,0,10.5585,4.8232,17.8369,4.8208,7.28,14.4688,7.2793a17.9557,17.9557,0,0,0,14.6514-6.8252Q648.6758,115.6587,648.6777,103.8291ZM733.6709,62.333a34.3821,34.3821,0,0,1,7.7344,1.001,29.0438,29.0438,0,0,1,8.4629,3.5488l3.6406,28.7559-17.8359,2.0019L732.5781,83.627a12.8624,12.8624,0,0,0-6.37-2.1841,9.4719,9.4719,0,0,0-7.0068,3.0937q-3.003,3.0975-3.003,9.1v34.2158h14.5606v17.6543h-48.958V127.8525h10.92V81.2607h-11.83V63.4248h33.4883V79.0767A28.6808,28.6808,0,0,1,720.84,67.1558Q725.2974,62.3357,733.6709,62.333Zm97.0039,57.6934q-1.8208,14.1972-9.8271,20.748-8.0113,6.5523-20.7481,6.5527-13.6509,0-22.1133-6.8251t-8.4629-19.5655V80.1689H757.875V63.4248h11.6484V38.4907H793.001V63.4248h29.4844V80.1689H793.001v36.7637q0,10.7418,9.8281,10.7383a14.167,14.167,0,0,0,5.915-1.9111q3.7281-1.9116,4.8233-11.0108Z"/></clipPath><linearGradient id="linear-gradient" x1="1.6265" y1="47.3212" x2="896.6877" y2="47.3212" gradientUnits="userSpaceOnUse"><stop offset="0" stop-color="#ffc907"/><stop offset="0.5" stop-color="#ee1d51"/><stop offset="1" stop-color="#882890"/></linearGradient><clipPath id="clip-path-2"><rect class="cls-1" x="19.8931" y="166.1034" width="86.6525" height="19.4104"/></clipPath><linearGradient id="linear-gradient-2" x1="1.6265" y1="57.0967" x2="896.6877" y2="57.0967" xlink:href="#linear-gradient"/></defs><title>Artboard 1</title><g class="cls-2"><rect class="cls-3" x="1.6265" y="-101.8556" width="895.0612" height="298.3537"/></g><g class="cls-4"><rect class="cls-5" x="1.6265" y="-92.0802" width="895.0612" height="298.3537"/></g></svg>