<svg id="Layer_1" data-name="Layer 1" xmlns="http://www.w3.org/2000/svg" xmlns:xlink="http://www.w3.org/1999/xlink" viewBox="0 0 846 196"><defs><style>.cls-1{fill:none;}.cls-2{clip-path:url(#clip-path);}.cls-3{fill:url(#linear-gradient);}.cls-4{clip-path:url(#clip-path-2);}.cls-5{fill:url(#linear-gradient-2);}</style><clipPath id="clip-path"><path class="cls-1" d="M95.2231,104.5566q0,19.4766-12.74,31.1221-12.7419,11.65-32.396,11.6484-18.9309,0-30.8491-11.0117Q7.3159,125.3072,7.3174,105.4668q0-18.0175,10.92-30.94,10.92-12.9207,33.124-12.9219,22.2027,0,33.0327,12.831A45.256,45.256,0,0,1,95.2231,104.5566Zm-24.206-.7275q0-12.5581-5.8237-18.3823A19.3272,19.3272,0,0,0,50.9971,79.623q-9.1026,0-14.2867,6.461-5.187,6.4621-5.187,18.1084,0,10.5585,4.8228,17.8369,4.82,7.28,14.4692,7.2793a17.9565,17.9565,0,0,0,14.6509-6.8252Q71.0159,115.6587,71.0171,103.8291ZM256.11,145.5068h-34.398V99.2793q0-10.5542-3.5493-15.1064-3.5485-4.547-10.4649-4.55-8.373,0-12.103,5.46-3.7324,5.46-3.7309,14.0137v28.7558h10.92v17.6543h-34.398V99.2793q0-10.5542-3.5488-15.1064-3.5493-4.547-10.4653-4.55-8.5561,0-12.1939,5.46-3.643,5.46-3.64,14.0137v28.7558H154.19v17.6543H104.14V127.8525h10.92V81.2607H104.3223V63.4248h34.2158v12.376q7.8237-14.0127,24.9341-14.0142a31.85,31.85,0,0,1,16.38,4.3682,23.0446,23.0446,0,0,1,10.3736,13.2861q7.2772-17.6514,26.7544-17.6543a30.3931,30.3931,0,0,1,19.6557,6.916q8.5525,6.9192,8.5542,21.4761v37.6738h10.92Zm107.9248,0H318.7168V127.8525h10.92V99.2793q0-10.5542-3.5488-15.1064-3.5493-4.547-10.4649-4.55-8.373,0-12.9218,5.1871-4.5513,5.187-4.7324,13.559v29.4834h10.92v17.6543H263.5708V127.8525h10.92V81.2607h-11.83V63.4248h35.3077V75.9829q8.19-14.1958,26.3906-14.1963a31.1629,31.1629,0,0,1,20.2011,6.916q8.5533,6.9192,8.5547,21.4761v37.6738h10.92Zm53.3232,0H372.041V127.8525h10.92V81.2607h-11.83V63.4248h35.3076v64.4277h10.92ZM382.0508,48.8647V24.4771h23.4775V48.8647ZM486.3359,20.291l-35.49,125.2158H427.7314l35.49-125.2158Zm102.6465,82.2637q0,18.2022-9.5547,31.4863-9.5551,13.2876-28.1191,13.2861-17.2924,0-25.1162-12.1943v30.94h14.56v18.1993h-48.958V166.0732h10.92V81.0786h-11.83V63.4248h35.3076V79.0767a32.6861,32.6861,0,0,1,9.8281-12.1939q6.5523-5.0933,17.8359-5.0962,15.65,0,25.3887,10.7383Q588.9806,83.2658,588.9824,102.5547Zm-24.3877,2.3662q0-12.0117-5.3691-18.291a17.2725,17.2725,0,0,0-13.7412-6.2788q-9.1026,0-13.9229,6.7339-4.8252,6.7353-5.1875,17.1074l-.1816,2.9121q0,10.0122,5.2783,15.834,5.2764,5.827,14.0137,5.8242a17.8545,17.8545,0,0,0,13.7412-5.8242Q564.5912,117.1157,564.5947,104.9209Zm119.9375-.3643q0,19.4766-12.74,31.1221-12.7411,11.65-32.3955,11.6484-18.9316,0-30.85-11.0117-11.9225-11.0082-11.9209-30.8486,0-18.0175,10.92-30.94,10.92-12.9207,33.124-12.9219t33.0332,12.831A45.256,45.256,0,0,1,684.5322,104.5566Zm-24.206-.7275q0-12.5581-5.8242-18.3823a19.3244,19.3244,0,0,0-14.1954-5.8238q-9.104,0-14.2871,6.461-5.187,6.4621-5.1875,18.1084,0,10.5585,4.8233,17.8369,4.8207,7.28,14.4687,7.2793a17.9557,17.9557,0,0,0,14.6514-6.8252Q660.3242,115.6587,660.3262,103.8291ZM745.3193,62.333a34.3807,34.3807,0,0,1,7.7344,1.001,29.0438,29.0438,0,0,1,8.4629,3.5488l3.6406,28.7559-17.8359,2.0019L744.2266,83.627a12.8624,12.8624,0,0,0-6.37-2.1841,9.4721,9.4721,0,0,0-7.0068,3.0937q-3.0028,3.0975-3.0029,9.1v34.2158h14.56v17.6543h-48.958V127.8525h10.92V81.2607h-11.83V63.4248h33.4882V79.0767a28.6821,28.6821,0,0,1,6.461-11.9209Q736.9459,62.3357,745.3193,62.333Zm97.0049,57.6934q-1.8207,14.1972-9.8271,20.748-8.0112,6.5523-20.7481,6.5527-13.6509,0-22.1133-6.8251t-8.4628-19.5655V80.1689H769.5244V63.4248h11.6485V38.4907H804.65V63.4248h29.4844V80.1689H804.65v36.7637q0,10.7418,9.8281,10.7383a14.1678,14.1678,0,0,0,5.9151-1.9111q3.728-1.9116,4.8232-11.0108Z"/></clipPath><linearGradient id="linear-gradient" x1="-10.0222" y1="47.3212" x2="885.039" y2="47.3212" gradientUnits="userSpaceOnUse"><stop offset="0" stop-color="#ffc907"/><stop offset="0.5" stop-color="#ee1d51"/><stop offset="1" stop-color="#882890"/></linearGradient><clipPath id="clip-path-2"><rect class="cls-1" x="8.2444" y="166.1034" width="86.6525" height="19.4104"/></clipPath><linearGradient id="linear-gradient-2" x1="-10.0222" y1="57.0967" x2="885.039" y2="57.0967" xlink:href="#linear-gradient"/></defs><title>gitlogoArtboard 1128</title><g class="cls-2"><rect class="cls-3" x="-10.0222" y="-101.8556" width="895.0612" height="298.3537"/></g><g class="cls-4"><rect class="cls-5" x="-10.0222" y="-92.0802" width="895.0612" height="298.3537"/></g></svg>