<svg id="Layer_1" data-name="Layer 1" xmlns="http://www.w3.org/2000/svg" viewBox="0 0 443 128.0014"><defs><style>.cls-1{fill:#656ce2;}.cls-2{fill:#a3b6fb;}.cls-3{fill:#ba8be4;}.cls-4{fill:#8f52ec;}.cls-5{fill:#9d64ea;}.cls-6{fill:#7493e8;}.cls-7{fill:#9671f1;}.cls-8{fill:#5f6fe0;}</style></defs><title>omniport_wordmark</title><path class="cls-1" d="M156.9863,84.425a17.2671,17.2671,0,0,1-6.8994-1.32,15.4889,15.4889,0,0,1-5.19-3.57,15.7332,15.7332,0,0,1-3.2695-5.19,17.4737,17.4737,0,0,1,0-12.42,15.7434,15.7434,0,0,1,3.2695-5.19,15.5046,15.5046,0,0,1,5.19-3.57,17.2671,17.2671,0,0,1,6.8994-1.32,17.0554,17.0554,0,0,1,6.87,1.32,15.5828,15.5828,0,0,1,5.16,3.57,15.7949,15.7949,0,0,1,3.27,5.19,17.488,17.488,0,0,1,0,12.42,16.03,16.03,0,0,1-3.24,5.19,15.1679,15.1679,0,0,1-5.16,3.57A17.2714,17.2714,0,0,1,156.9863,84.425Zm-8.22-16.26a10.953,10.953,0,0,0,.63,3.81,9.3078,9.3078,0,0,0,1.74,2.97,7.7506,7.7506,0,0,0,2.61,1.95,7.9518,7.9518,0,0,0,6.48,0,7.7886,7.7886,0,0,0,2.61-1.95,9.25,9.25,0,0,0,1.7393-3,11.1838,11.1838,0,0,0,.6308-3.84,11.0072,11.0072,0,0,0-.6308-3.78,9.2556,9.2556,0,0,0-1.7393-3,7.81,7.81,0,0,0-2.61-1.95,7.6761,7.6761,0,0,0-3.24-.69,7.3828,7.3828,0,0,0-3.2392.72,8.1275,8.1275,0,0,0-2.61,1.98,9.2392,9.2392,0,0,0-1.74,3A11.03,11.03,0,0,0,148.7666,68.1648Z"/><path class="cls-1" d="M227.666,83.8249h-8.04v-17.64q0-3.78-1.29-5.52a4.1971,4.1971,0,0,0-3.57-1.74,6.7437,6.7437,0,0,0-4.5,1.83,10.0806,10.0806,0,0,0-3,4.77v18.3h-8.04v-17.64q0-3.78-1.29-5.52a4.1965,4.1965,0,0,0-3.5693-1.74,6.8422,6.8422,0,0,0-4.47,1.8,9.7836,9.7836,0,0,0-3.03,4.74v18.36h-8.04V52.385h7.26v5.82a12.0062,12.0062,0,0,1,4.77-4.71,14.2538,14.2538,0,0,1,6.93-1.65,8.9116,8.9116,0,0,1,6.12,1.92,8.5862,8.5862,0,0,1,2.76,4.74,13.5738,13.5738,0,0,1,4.86-4.95,13.1124,13.1124,0,0,1,6.72-1.71,9.3406,9.3406,0,0,1,4.74,1.08,7.81,7.81,0,0,1,2.88,2.82,11.8265,11.8265,0,0,1,1.41,3.96,25.9959,25.9959,0,0,1,.39,4.5Z"/><path class="cls-1" d="M263.9053,83.8249h-8.04v-17.64q0-3.78-1.32-5.52a4.3356,4.3356,0,0,0-3.6592-1.74,6.8853,6.8853,0,0,0-2.46.48,9.0494,9.0494,0,0,0-2.37,1.35,10.9761,10.9761,0,0,0-2.0108,2.07,8.1853,8.1853,0,0,0-1.3193,2.64v18.36h-8.04V52.385h7.26v5.82a11.9121,11.9121,0,0,1,5.04-4.68,16.166,16.166,0,0,1,7.44-1.68,9.4762,9.4762,0,0,1,4.8,1.08,7.8106,7.8106,0,0,1,2.88,2.82,11.8242,11.8242,0,0,1,1.41,3.96,25.9861,25.9861,0,0,1,.39,4.5Z"/><path class="cls-1" d="M270.9258,48.0051v-7.98h8.04v7.98Zm0,35.82V52.385h8.04v31.44Z"/><path class="cls-1" d="M286.7041,61.385v-8.64h6.54v8.64Zm0,22.44v-8.64h6.54v8.64Z"/><path class="cls-1" d="M319.8838,84.425a12.3932,12.3932,0,0,1-6.4805-1.65,11.7255,11.7255,0,0,1-4.3193-4.47v18.3h-8.04V52.385h7.02v5.4a12.8408,12.8408,0,0,1,4.5-4.35,12.52,12.52,0,0,1,6.36-1.59,13.4618,13.4618,0,0,1,5.88,1.29,14.5809,14.5809,0,0,1,4.65,3.48,16.2275,16.2275,0,0,1,3.06,5.16,17.7592,17.7592,0,0,1,1.11,6.27,19.8217,19.8217,0,0,1-1.0205,6.42,16.4289,16.4289,0,0,1-2.85,5.22,13.2837,13.2837,0,0,1-4.3506,3.48A12.1617,12.1617,0,0,1,319.8838,84.425Zm-2.7-6.84a7.2174,7.2174,0,0,0,3.33-.78,8.0632,8.0632,0,0,0,2.61-2.1,9.8541,9.8541,0,0,0,1.68-3.06,10.9773,10.9773,0,0,0,.6-3.6,10.1722,10.1722,0,0,0-.6592-3.69,9.1966,9.1966,0,0,0-1.83-2.97,8.5383,8.5383,0,0,0-2.7608-1.98,8.2618,8.2618,0,0,0-3.4492-.72,7.5476,7.5476,0,0,0-2.34.39,8.2562,8.2562,0,0,0-2.2207,1.11,9.7086,9.7086,0,0,0-1.83,1.68,6.9723,6.9723,0,0,0-1.2295,2.1v7.38a10.68,10.68,0,0,0,3.3,4.47A7.5459,7.5459,0,0,0,317.1836,77.5847Z"/><path class="cls-1" d="M353.6035,84.425a17.2664,17.2664,0,0,1-6.8994-1.32,15.4889,15.4889,0,0,1-5.19-3.57,15.735,15.735,0,0,1-3.27-5.19,17.4751,17.4751,0,0,1,0-12.42,15.7453,15.7453,0,0,1,3.27-5.19,15.5046,15.5046,0,0,1,5.19-3.57,17.2664,17.2664,0,0,1,6.8994-1.32,17.0554,17.0554,0,0,1,6.87,1.32,15.5828,15.5828,0,0,1,5.16,3.57,15.7949,15.7949,0,0,1,3.27,5.19,17.4895,17.4895,0,0,1,0,12.42,16.03,16.03,0,0,1-3.24,5.19,15.1689,15.1689,0,0,1-5.16,3.57A17.2714,17.2714,0,0,1,353.6035,84.425Zm-8.22-16.26a10.953,10.953,0,0,0,.63,3.81,9.3078,9.3078,0,0,0,1.74,2.97,7.7506,7.7506,0,0,0,2.61,1.95,7.9518,7.9518,0,0,0,6.4795,0,7.7886,7.7886,0,0,0,2.61-1.95,9.2521,9.2521,0,0,0,1.7393-3,11.1838,11.1838,0,0,0,.6308-3.84,11.0072,11.0072,0,0,0-.6308-3.78,9.2574,9.2574,0,0,0-1.7393-3,7.81,7.81,0,0,0-2.61-1.95,7.6761,7.6761,0,0,0-3.24-.69,7.3828,7.3828,0,0,0-3.2392.72,8.1275,8.1275,0,0,0-2.61,1.98,9.2392,9.2392,0,0,0-1.74,3A11.03,11.03,0,0,0,345.3838,68.1648Z"/><path class="cls-1" d="M394.1631,59.345a15.8588,15.8588,0,0,0-6.54,1.41,8.2528,8.2528,0,0,0-4.14,4.05v19.02h-8.04V52.385h7.38v6.72a14.345,14.345,0,0,1,1.98-2.91,15.2371,15.2371,0,0,1,2.461-2.25,11.4025,11.4025,0,0,1,2.67-1.47,7.3782,7.3782,0,0,1,2.6094-.51h.99a3.2482,3.2482,0,0,1,.63.06Z"/><path class="cls-1" d="M417.502,82.2048a35.9161,35.9161,0,0,1-3.96,1.44,16.6384,16.6384,0,0,1-4.92.72,11.4462,11.4462,0,0,1-3.15-.42,6.9068,6.9068,0,0,1-2.58-1.35,6.5772,6.5772,0,0,1-1.7695-2.4,8.6775,8.6775,0,0,1-.66-3.57v-18.06h-4.14v-6.18h4.14v-10.2h8.04v10.2h6.6v6.18h-6.6v15.36a2.8579,2.8579,0,0,0,.87,2.37,3.32,3.32,0,0,0,2.13.69,7.394,7.394,0,0,0,2.46-.42q1.2-.42,1.92-.72Z"/><path class="cls-2" d="M48.8908,42.6423v59.0469a2.2283,2.2283,0,0,1-2.13,2.3115h-19.2a2.2282,2.2282,0,0,1-2.13-2.3115V40.3307a2.2215,2.2215,0,0,0,2.13,2.3116Z"/><path class="cls-3" d="M105.4308,40.3307v47.33a2.4683,2.4683,0,0,0-2.13-2.7005h-21.34V43.0313h21.34A2.4683,2.4683,0,0,0,105.4308,40.3307Z"/><path class="cls-4" d="M89.0908,24.0007a2.4694,2.4694,0,0,0-2.7006,2.13v21.33H44.4613v-21.33a2.4612,2.4612,0,0,0-2.7-2.13Z"/><path class="cls-5" d="M105.4308,26.1307v19.2a2.1317,2.1317,0,0,1-2.13,2.13h-21.34v-21.33a2.1317,2.1317,0,0,1,2.13-2.13h19.21A2.1317,2.1317,0,0,1,105.4308,26.1307Z"/><path class="cls-6" d="M89.0908,104.0007H56.7175a2.3307,2.3307,0,0,1-2.4867-2.13v-19.21a2.3241,2.3241,0,0,1,2.4867-2.13H86.6041v21.34A2.3382,2.3382,0,0,0,89.0908,104.0007Z"/><path class="cls-7" d="M48.8908,26.1307v21.33h-21.33a2.1253,2.1253,0,0,1-2.13-2.13v-19.2a2.1253,2.1253,0,0,1,2.13-2.13h19.2A2.1255,2.1255,0,0,1,48.8908,26.1307Z"/><path class="cls-8" d="M105.4308,82.6608v19.21a2.1381,2.1381,0,0,1-2.13,2.13h-19.21a2.1381,2.1381,0,0,1-2.13-2.13v-21.34h21.34A2.1317,2.1317,0,0,1,105.4308,82.6608Z"/></svg>