<svg id="Layer_1" data-name="Layer 1" xmlns="http://www.w3.org/2000/svg" viewBox="0 0 980.18 128"><defs><style>.cls-1{fill:#293b52;}</style></defs><title>img_wordmark</title><path class="cls-1" d="M110.64,49.8227H94.6563a9.7516,9.7516,0,0,0-19.4126-.0988l-.0094.0988H59.1953a9.7815,9.7815,0,0,0-9.6064-8.8635,8.5322,8.5322,0,0,0-2.4542.2844,9.6973,9.6973,0,0,0-2.228.8568,9.8487,9.8487,0,0,0-3.4744,3.114,9.74,9.74,0,0,0-1.659,4.6083H23.791a25.3586,25.3586,0,0,1,3.732-12.4683,25.9849,25.9849,0,0,1,9.3714-9.0551A25.696,25.696,0,0,1,49.4843,25h.0745a25.6572,25.6572,0,0,1,17.0638,6.5479l.5922.53.5922-.53A25.7056,25.7056,0,0,1,110.64,49.8227Z"/><path class="cls-1" d="M39.768,25l-.33.1277A27.64,27.64,0,0,0,23.9027,40.6631l-.1276.33V25Z"/><path class="cls-1" d="M119.52,77.305A25.7416,25.7416,0,0,1,94.6971,103V87.016a9.7528,9.7528,0,0,0,7.1278-15.266q-.1038-.1491-.2129-.2943l-.5319-.7092-.7093.5319A25.7151,25.7151,0,0,1,59.2521,51.5957h15.98a9.7529,9.7529,0,0,0,19.4238,0H110.64a25.8342,25.8342,0,0,1-.679,5.0657l-.1259.5336.422.3511A25.6524,25.6524,0,0,1,119.52,77.305Z"/><path class="cls-1" d="M159.4484,42.0322a3.6126,3.6126,0,0,1,3.61,3.6094A3.55,3.55,0,0,1,162,48.2549a3.4764,3.4764,0,0,1-2.5518,1.0586,3.6158,3.6158,0,0,1-3.6719-3.6719,3.4764,3.4764,0,0,1,1.0586-2.5518A3.55,3.55,0,0,1,159.4484,42.0322ZM162,82.1729h-4.9786V53.8564H162Z"/><path class="cls-1" d="M193.9259,82.1729h-4.9785V67.3613A10.6305,10.6305,0,0,0,187.08,60.64a6.4205,6.4205,0,0,0-5.3525-2.3642q-7.2818,0-7.2813,9.335V82.1729h-4.9785V66.2412a13.0145,13.0145,0,0,1,3.36-9.3349,11.7629,11.7629,0,0,1,8.9619-3.5479,11.5646,11.5646,0,0,1,8.8057,3.5166,12.9745,12.9745,0,0,1,3.33,9.3037Z"/><path class="cls-1" d="M204.505,82.1729h-4.9785V51.8818q0-11.2821,11.3262-11.2812H214.96v4.2939h-3.1738q-3.797,0-5.5391,1.6924t-1.7422,5.2637V54.043H214.96v4.3564H204.505Z"/><path class="cls-1" d="M230.7043,53.3584a13.9907,13.9907,0,0,1,10.331,4.3564,14.4383,14.4383,0,0,1,4.294,10.5176,13.94,13.94,0,0,1-4.294,10.2061,14.0857,14.0857,0,0,1-10.331,4.2949,14.5087,14.5087,0,0,1-10.58-4.2949,14.198,14.198,0,0,1-4.3565-10.5176,13.9154,13.9154,0,0,1,4.3565-10.2686A14.5118,14.5118,0,0,1,230.7043,53.3584Zm0,4.917a9.5175,9.5175,0,0,0-6.9082,2.8,9.2117,9.2117,0,0,0-2.8623,6.8457,9.676,9.676,0,0,0,9.8945,9.8955,8.8637,8.8637,0,0,0,6.5351-2.8623,9.3,9.3,0,0,0,2.8008-6.7217,9.8369,9.8369,0,0,0-2.7695-7.0635A8.9215,8.9215,0,0,0,230.7043,58.2754Z"/><path class="cls-1" d="M255.2863,82.1729h-4.9785V53.9189h4.9785v4.9786a9.7115,9.7115,0,0,1,9.2109-5.6016h1.8672v4.6885h-.9961q-5.2279,0-7.6553,2.75-2.4257,2.751-2.4267,8.625Z"/><path class="cls-1" d="M308.7453,82.1729h-4.9785V65.2451a7.5373,7.5373,0,0,0-1.6182-5.1035,5.5455,5.5455,0,0,0-4.419-1.8662q-3.2988,0-4.48,1.7734a9.4733,9.4733,0,0,0-1.4317,2.8623,15.8382,15.8382,0,0,0-.249,3.2676V82.1729H286.59V65.6807q0-7.4049-6.2852-7.4053-3.1743,0-4.3877,1.8047a8.8048,8.8048,0,0,0-1.4,2.7383A17.8708,17.8708,0,0,0,274.33,65.93V82.1729h-4.9795v-16.99a17.694,17.694,0,0,1,.5918-5.2275,11.9984,11.9984,0,0,1,2.8936-4.2q2.3028-2.395,7.22-2.3965a9.9657,9.9657,0,0,1,9.086,5.2275,9.64,9.64,0,0,1,8.8994-5.2275,10.2039,10.2039,0,0,1,7.81,3.0811,11.5581,11.5581,0,0,1,2.8936,8.246Z"/><path class="cls-1" d="M342.1652,82.1729h-4.9785V69.7881a12.57,12.57,0,0,0-2.6455-8.37,8.834,8.834,0,0,0-7.125-3.1426,9.207,9.207,0,0,0-6.8457,2.8623,9.5962,9.5962,0,0,0-2.8008,6.9707,9.568,9.568,0,0,0,9.7705,9.708q3.7339,0,7.5928-3.4228v5.29a13.1088,13.1088,0,0,1-3.8584,2.3652,12.6506,12.6506,0,0,1-4.3565.6846,13.7016,13.7016,0,0,1-10.1445-4.2324,14.8782,14.8782,0,0,1,.1553-20.8174,14.356,14.356,0,0,1,10.5488-4.3252,13.9457,13.9457,0,0,1,10.5176,4.3564,15.3736,15.3736,0,0,1,4.17,11.0782Z"/><path class="cls-1" d="M352.4953,58.3994V71.5928q0,3.6738,1.3066,4.917,1.3067,1.245,5.29,1.2441h2.4267v4.419h-2.6758q-6.4731,0-8.8994-2.24t-2.4267-8.1533V45.4551h4.9785V54.043h9.0234v4.3564Z"/><path class="cls-1" d="M370.3566,42.0322a3.6126,3.6126,0,0,1,3.61,3.6094,3.55,3.55,0,0,1-1.0586,2.6133,3.4764,3.4764,0,0,1-2.5518,1.0586,3.6158,3.6158,0,0,1-3.6719-3.6719,3.4764,3.4764,0,0,1,1.0586-2.5518A3.55,3.55,0,0,1,370.3566,42.0322Zm2.5518,40.1407H367.93V53.8564h4.9786Z"/><path class="cls-1" d="M393.57,53.3584a13.9906,13.9906,0,0,1,10.331,4.3564,14.4379,14.4379,0,0,1,4.294,10.5176,13.94,13.94,0,0,1-4.294,10.2061,14.0856,14.0856,0,0,1-10.331,4.2949,14.5089,14.5089,0,0,1-10.58-4.2949,14.1979,14.1979,0,0,1-4.3564-10.5176,13.9153,13.9153,0,0,1,4.3564-10.2686A14.5119,14.5119,0,0,1,393.57,53.3584Zm0,4.917a9.5175,9.5175,0,0,0-6.9082,2.8,9.2117,9.2117,0,0,0-2.8623,6.8457,9.676,9.676,0,0,0,9.8945,9.8955,8.8639,8.8639,0,0,0,6.5352-2.8623,9.3,9.3,0,0,0,2.8008-6.7217,9.837,9.837,0,0,0-2.77-7.0635A8.9213,8.9213,0,0,0,393.57,58.2754Z"/><path class="cls-1" d="M436.5109,82.1729h-4.9785V67.3613a10.6311,10.6311,0,0,0-1.8672-6.7217,6.4205,6.4205,0,0,0-5.3525-2.3642q-7.2818,0-7.2813,9.335V82.1729h-4.9785V66.2412a13.0148,13.0148,0,0,1,3.36-9.3349,11.7633,11.7633,0,0,1,8.962-3.5479,11.5644,11.5644,0,0,1,8.8056,3.5166,12.9746,12.9746,0,0,1,3.33,9.3037Z"/><path class="cls-1" d="M500.2365,82.1729H495.258V65.2451a7.5373,7.5373,0,0,0-1.6182-5.1035,5.5454,5.5454,0,0,0-4.4189-1.8662q-3.2989,0-4.48,1.7734a9.47,9.47,0,0,0-1.4316,2.8623,15.83,15.83,0,0,0-.2491,3.2676V82.1729h-4.9785V65.6807q0-7.4049-6.2851-7.4053-3.1745,0-4.3877,1.8047a8.8034,8.8034,0,0,0-1.4,2.7383,17.8708,17.8708,0,0,0-.1866,3.1113V82.1729H460.842v-16.99a17.6906,17.6906,0,0,1,.5918-5.2275,11.9965,11.9965,0,0,1,2.8935-4.2q2.3028-2.395,7.22-2.3965a9.9656,9.9656,0,0,1,9.086,5.2275,9.64,9.64,0,0,1,8.8994-5.2275,10.2039,10.2039,0,0,1,7.81,3.0811,11.5581,11.5581,0,0,1,2.8936,8.246Z"/><path class="cls-1" d="M533.6554,82.1729h-4.9785V69.7881a12.57,12.57,0,0,0-2.6455-8.37,8.834,8.834,0,0,0-7.125-3.1426,9.2072,9.2072,0,0,0-6.8457,2.8623,9.5962,9.5962,0,0,0-2.8008,6.9707,9.568,9.568,0,0,0,9.77,9.708q3.7339,0,7.5928-3.4228v5.29a13.1075,13.1075,0,0,1-3.8584,2.3652,12.65,12.65,0,0,1-4.3564.6846,13.7018,13.7018,0,0,1-10.1446-4.2324,14.8782,14.8782,0,0,1,.1553-20.8174,14.356,14.356,0,0,1,10.5488-4.3252,13.9456,13.9456,0,0,1,10.5176,4.3564,15.3736,15.3736,0,0,1,4.17,11.0782Z"/><path class="cls-1" d="M563.6525,82.1729H558.674V67.3613a10.6311,10.6311,0,0,0-1.8672-6.7217,6.4205,6.4205,0,0,0-5.3525-2.3642q-7.2817,0-7.2813,9.335V82.1729h-4.9785V66.2412a13.0148,13.0148,0,0,1,3.36-9.3349,11.7633,11.7633,0,0,1,8.962-3.5479,11.5644,11.5644,0,0,1,8.8056,3.5166,12.9746,12.9746,0,0,1,3.33,9.3037Z"/><path class="cls-1" d="M597.0714,82.1729h-4.9785V69.7881a12.57,12.57,0,0,0-2.6455-8.37,8.8338,8.8338,0,0,0-7.125-3.1426,9.2072,9.2072,0,0,0-6.8457,2.8623,9.5962,9.5962,0,0,0-2.8008,6.9707,9.568,9.568,0,0,0,9.7705,9.708q3.7339,0,7.5928-3.4228v5.29a13.1063,13.1063,0,0,1-3.8584,2.3652,12.65,12.65,0,0,1-4.3564.6846A13.7018,13.7018,0,0,1,571.68,78.501a14.8782,14.8782,0,0,1,.1553-20.8174,14.356,14.356,0,0,1,10.5488-4.3252,13.9454,13.9454,0,0,1,10.5176,4.3564,15.3736,15.3736,0,0,1,4.17,11.0782Z"/><path class="cls-1" d="M606.0334,94.6816l.4355-4.48a30.2162,30.2162,0,0,0,8.5264,1.4316q5.9106,0,7.748-2.49a12.2513,12.2513,0,0,0,2.209-4.1074,20.5519,20.5519,0,0,0,.3731-4.418V69.9131q0-5.4156-2.5508-8.5264a8.603,8.603,0,0,0-7.0332-3.1113,9.3025,9.3025,0,0,0-6.9385,2.831,9.6241,9.6241,0,0,0-2.7695,7.002,9.4933,9.4933,0,0,0,2.7382,6.9072,10.0525,10.0525,0,0,0,10.61,2.1162,17.7385,17.7385,0,0,0,3.9521-2.8007v5.166a18.8834,18.8834,0,0,1-4.2627,2.5517,11.662,11.662,0,0,1-4.2011.6846,13.1823,13.1823,0,0,1-9.8643-4.3262,14.38,14.38,0,0,1-4.1387-10.2988,14.21,14.21,0,0,1,4.3252-10.4248,14.3563,14.3563,0,0,1,10.5489-4.3252,13.6019,13.6019,0,0,1,10.5175,4.4189q4.0444,4.4194,4.0459,11.5127V81.4883q0,6.9083-3.7968,10.7666t-10.58,3.8584A40.04,40.04,0,0,1,606.0334,94.6816Z"/><path class="cls-1" d="M660.0519,69.1035l3.4844,1.93q-3.4233,11.7012-14.625,11.7A14.3111,14.3111,0,0,1,638.4865,78.47a14.8747,14.8747,0,0,1-.0928-20.8789,14.2775,14.2775,0,0,1,10.5176-4.2324q8.3394,0,13.0693,8.4014L643.87,73.585l-2.1172-3.6729,13.7578-9.2051a8.08,8.08,0,0,0-6.5977-2.8681,9.185,9.185,0,0,0-6.8476,2.8007,9.73,9.73,0,0,0-2.7383,7.0948,10.3229,10.3229,0,0,0,2.9873,7.4062,9.569,9.569,0,0,0,7.1563,3.1114,9.838,9.838,0,0,0,6.66-2.3643A13.1753,13.1753,0,0,0,660.0519,69.1035Z"/><path class="cls-1" d="M706.7267,82.1729h-4.9785V65.2451a7.5368,7.5368,0,0,0-1.6182-5.1035,5.5453,5.5453,0,0,0-4.4189-1.8662q-3.2988,0-4.4805,1.7734a9.4726,9.4726,0,0,0-1.4316,2.8623,15.8382,15.8382,0,0,0-.249,3.2676V82.1729h-4.9786V65.6807q0-7.4049-6.2851-7.4053-3.1743,0-4.3877,1.8047a8.8034,8.8034,0,0,0-1.4,2.7383,17.8734,17.8734,0,0,0-.1865,3.1113V82.1729h-4.98v-16.99a17.694,17.694,0,0,1,.5918-5.2275,11.9979,11.9979,0,0,1,2.8935-4.2q2.3028-2.395,7.22-2.3965a9.9655,9.9655,0,0,1,9.0859,5.2275,9.64,9.64,0,0,1,8.8994-5.2275,10.204,10.204,0,0,1,7.8106,3.0811,11.558,11.558,0,0,1,2.8935,8.246Z"/><path class="cls-1" d="M736.4748,69.1035l3.4843,1.93q-3.4233,11.7012-14.625,11.7A14.3111,14.3111,0,0,1,714.9093,78.47a14.8746,14.8746,0,0,1-.0927-20.8789,14.2773,14.2773,0,0,1,10.5175-4.2324q8.3394,0,13.0694,8.4014l-18.11,11.8252-2.1172-3.6729,13.7579-9.2051a8.08,8.08,0,0,0-6.5977-2.8681,9.1851,9.1851,0,0,0-6.8477,2.8007,9.73,9.73,0,0,0-2.7382,7.0948,10.3229,10.3229,0,0,0,2.9873,7.4062,9.5688,9.5688,0,0,0,7.1562,3.1114,9.8381,9.8381,0,0,0,6.66-2.3643A13.1753,13.1753,0,0,0,736.4748,69.1035Z"/><path class="cls-1" d="M768.1515,82.1729H763.173V67.3613a10.6305,10.6305,0,0,0-1.8672-6.7217,6.4205,6.4205,0,0,0-5.3525-2.3642q-7.2817,0-7.2813,9.335V82.1729h-4.9785V66.2412a13.0145,13.0145,0,0,1,3.36-9.3349,11.7629,11.7629,0,0,1,8.9619-3.5479,11.5643,11.5643,0,0,1,8.8056,3.5166,12.9742,12.9742,0,0,1,3.33,9.3037Z"/><path class="cls-1" d="M778.5441,58.3994V71.5928q0,3.6738,1.3066,4.917,1.3067,1.245,5.29,1.2441h2.4267v4.419h-2.6757q-6.4733,0-8.8995-2.24t-2.4267-8.1533V45.4551h4.9785V54.043h9.0234v4.3564Z"/><path class="cls-1" d="M814.0783,94.6816l.4355-4.48a30.2173,30.2173,0,0,0,8.5264,1.4316q5.9106,0,7.748-2.49a12.2513,12.2513,0,0,0,2.209-4.1074,20.5455,20.5455,0,0,0,.3731-4.418V69.9131q0-5.4156-2.5508-8.5264a8.603,8.603,0,0,0-7.0332-3.1113,9.3025,9.3025,0,0,0-6.9385,2.831,9.6241,9.6241,0,0,0-2.7695,7.002,9.493,9.493,0,0,0,2.7383,6.9072,10.0523,10.0523,0,0,0,10.61,2.1162,17.7409,17.7409,0,0,0,3.9522-2.8007v5.166a18.8878,18.8878,0,0,1-4.2627,2.5517,11.6621,11.6621,0,0,1-4.2012.6846,13.1823,13.1823,0,0,1-9.8643-4.3262,14.38,14.38,0,0,1-4.1386-10.2988,14.2092,14.2092,0,0,1,4.3252-10.4248,14.356,14.356,0,0,1,10.5488-4.3252,13.6022,13.6022,0,0,1,10.5176,4.4189q4.0444,4.4194,4.0459,11.5127V81.4883q0,6.9083-3.7969,10.7666t-10.58,3.8584A40.0409,40.0409,0,0,1,814.0783,94.6816Z"/><path class="cls-1" d="M850.049,82.1729h-4.9785V53.9189h4.9785v4.9786a9.7115,9.7115,0,0,1,9.2109-5.6016h1.8672v4.6885h-.9961q-5.2279,0-7.6553,2.75-2.4256,2.751-2.4267,8.625Z"/><path class="cls-1" d="M877.2453,53.3584a13.9907,13.9907,0,0,1,10.331,4.3564,14.4383,14.4383,0,0,1,4.294,10.5176,13.94,13.94,0,0,1-4.294,10.2061,14.0857,14.0857,0,0,1-10.331,4.2949,14.5089,14.5089,0,0,1-10.58-4.2949,14.1979,14.1979,0,0,1-4.3564-10.5176,13.9153,13.9153,0,0,1,4.3564-10.2686A14.5119,14.5119,0,0,1,877.2453,53.3584Zm0,4.917a9.5175,9.5175,0,0,0-6.9082,2.8,9.2117,9.2117,0,0,0-2.8623,6.8457,9.676,9.676,0,0,0,9.8945,9.8955,8.8641,8.8641,0,0,0,6.5352-2.8623,9.3,9.3,0,0,0,2.8007-6.7217,9.8369,9.8369,0,0,0-2.7695-7.0635A8.9215,8.9215,0,0,0,877.2453,58.2754Z"/><path class="cls-1" d="M915.2072,53.9189h4.9785V69.9746a12.7931,12.7931,0,0,1-3.3613,9.2734,13.0247,13.0247,0,0,1-17.7364,0,12.7968,12.7968,0,0,1-3.36-9.2734V53.9189h4.9785V68.793a10.5059,10.5059,0,0,0,1.8672,6.6582,6.3448,6.3448,0,0,0,5.29,2.3652,7.1815,7.1815,0,0,0,3.5157-.8711,7.4727,7.4727,0,0,0,2.707-2.6455q1.1207-1.7724,1.1211-5.9434Z"/><path class="cls-1" d="M925.7863,95.4912V69.19a16.0983,16.0983,0,0,1,4.1074-11.4053,13.8559,13.8559,0,0,1,10.6416-4.4258,14.226,14.226,0,0,1,10.5488,4.3252,14.5392,14.5392,0,0,1,4.2627,10.6113,14.0415,14.0415,0,0,1-4.2314,10.2061,13.6687,13.6687,0,0,1-10.082,4.2939,13.0248,13.0248,0,0,1-8.2149-3.0488v-5.415a16.9148,16.9148,0,0,0,3.9209,2.7382,9.0368,9.0368,0,0,0,3.8584.81,9.1819,9.1819,0,0,0,6.8457-2.8008,10.24,10.24,0,0,0,0-13.94,8.87,8.87,0,0,0-6.6592-2.8623,9.8955,9.8955,0,0,0-4.6054,1.0908,10.3689,10.3689,0,0,0-3.7647,3.5215q-1.6494,2.4316-1.6494,7.3564V95.4912Z"/></svg>