<svg id="Layer_1" data-name="Layer 1" xmlns="http://www.w3.org/2000/svg" xmlns:xlink="http://www.w3.org/1999/xlink" viewBox="0 0 2036.6591 200"><defs><style>.cls-1{fill:none;}.cls-2{clip-path:url(#clip-path);}.cls-3{fill:url(#linear-gradient);}.cls-4{clip-path:url(#clip-path-2);}.cls-5{fill:url(#linear-gradient-2);}</style><clipPath id="clip-path" transform="translate(1.6591 4)"><path class="cls-1" d="M59.583,58.43a22.7752,22.7752,0,0,0-6.5176,1.0639,4.6139,4.6139,0,0,0-2.7265,3.0591,26.0769,26.0769,0,0,0-.7315,7.315v65.9677a26.0473,26.0473,0,0,0,.7315,7.3145,4.6127,4.6127,0,0,0,2.7265,3.0605,22.7109,22.7109,0,0,0,6.5176,1.0625v2.66q-7.1821-.3984-20.083-.3984-14.2339,0-21.0146.3984v-2.66a23.08,23.08,0,0,0,6.4511-1.0625A4.6061,4.6061,0,0,0,27.73,143.15a26.1246,26.1246,0,0,0,.7314-7.3145V69.8682a26.1544,26.1544,0,0,0-.7314-7.315,4.6072,4.6072,0,0,0-2.793-3.0591A23.148,23.148,0,0,0,18.4854,58.43V55.77q6.7836.3991,21.0146.3989,12.8979,0,20.083-.3989ZM131.2686,84.498a14.5447,14.5447,0,0,1,3.1923,6.5171,49.5141,49.5141,0,0,1,.9307,10.772v35.7774q0,5.455,1.9287,7.5156,1.9263,2.0625,6.583,2.0605v2.793q-13.3008-.53-17.5556-.5313-3.99,0-17.29.5313v-2.793q3.99,0,5.586-2.0605,1.5951-2.0625,1.5957-7.5156V96.2021q0-5.452-1.795-8.246t-6.4511-2.793a11.8939,11.8939,0,0,0-9.31,4.4556,16.172,16.172,0,0,0-3.8574,10.9731v36.9727q0,5.455,1.5967,7.5156,1.5951,2.0625,5.5859,2.0605v2.793q-12.2388-.53-16.4922-.5313-3.99,0-18.3545.5313v-2.793q4.7886,0,6.65-2.0605,1.86-2.0625,1.8623-7.5156V95.67q0-6.1157-1.8623-8.9106-1.8648-2.7934-6.65-2.793V81.1729q4.2554.3991,8.2461.3994A83.5052,83.5052,0,0,0,94.8262,79.71V91.68q5.9853-12.3692,21.8125-12.3692Q126.7447,79.311,131.2686,84.498ZM198.167,50.3169a11.9909,11.9909,0,0,1,3.2588,4.1894A13.0431,13.0431,0,0,1,202.69,60.292a8.9283,8.9283,0,0,1-2.66,6.4507,9.0725,9.0725,0,0,1-6.7832,2.7265,10.4808,10.4808,0,0,1-7.3154-2.5273,8.8567,8.8567,0,0,1-2.793-6.916,9.9268,9.9268,0,0,1,1.9951-6.1177,10.5273,10.5273,0,0,1,5.8526-3.7241,3.0926,3.0926,0,0,0-1.6631-1.33,8.11,8.11,0,0,0-3.125-.5317q-5.0567,0-7.1827,3.458a12.8682,12.8682,0,0,0-1.9941,5.852,92.0372,92.0372,0,0,0-.5322,11.5708V81.3062h14.23v2.66h-14.23v52.2681q0,6.12,3.125,8.5136t9.3769,2.3926v2.793l-3.7246-.1328q-14.7627-.3984-19.1513-.3985-3.99,0-17.29.5313v-2.793q4.7871,0,6.6494-2.0605,1.8618-2.0625,1.8623-7.5156V83.9663H148.292v-2.66h9.0439q0-11.5709,1.8623-17.8887a24.5059,24.5059,0,0,1,6.5166-10.8394,21.8739,21.8739,0,0,1,7.8477-4.7881,29.07,29.07,0,0,1,10.374-1.8618A23.4072,23.4072,0,0,1,198.167,50.3169Zm55.7256,37.7056q8.6441,8.7129,8.6455,27.5966,0,18.8877-8.6455,27.5313-8.647,8.6484-23.9395,8.6465-15.1626,0-23.874-8.6465-8.7114-8.6425-8.7109-27.5313,0-18.8817,8.7109-27.5966,8.71-8.7093,23.874-8.7115Q245.2461,79.311,253.8926,88.0225Zm-33.05,2.2612q-3.3926,8.3138-3.3916,25.3354,0,17.0274,3.3916,25.2715,3.391,8.2471,9.11,8.2461,5.8506,0,9.1768-8.18,3.3237-8.18,3.3252-25.3379,0-17.1562-3.3916-25.4018t-9.11-8.2461Q224.2329,81.9712,220.8428,90.2837Zm104.7353-7.3818a12.8941,12.8941,0,0,1,3.0586,8.645,11.4586,11.4586,0,0,1-2.8594,8.0469,9.7062,9.7062,0,0,1-7.5146,3.125,10.5138,10.5138,0,0,1-7.1816-2.3282,7.798,7.798,0,0,1-2.66-6.1836q0-6.3837,5.8516-10.374a7.1668,7.1668,0,0,0-1.5957-.1328,6.9353,6.9353,0,0,0-2.128.2661q-5.0566.7976-8.5781,6.1177a19.5183,19.5183,0,0,0-3.5244,10.9062v35.2442q0,6.12,2.9922,8.5136t9.51,2.3926v2.793a28.3591,28.3591,0,0,1-3.06-.1328q-13.566-.3984-18.0879-.3985-3.59,0-16.3584.3985a21.8556,21.8556,0,0,1-2.66.1328v-2.793q4.7871,0,6.6494-2.0605,1.862-2.0625,1.8623-7.5156V95.67q0-6.1157-1.8623-8.9106-1.8632-2.7934-6.6494-2.793V81.1729q4.2554.3991,8.2461.3994a83.5111,83.5111,0,0,0,19.418-1.8623V92.0791a22.5517,22.5517,0,0,1,7.3144-9.2437,17.7364,17.7364,0,0,1,10.7735-3.5244Q322.518,79.311,325.5781,82.9019ZM441.7529,145.08q1.9263,2.0625,6.583,2.0605v2.793q-13.3006-.53-17.5556-.5313-3.7251,0-16.4922.5313v-2.793q3.5917,0,4.9873-1.9941,1.3974-1.9952,1.3965-7.582V96.2021q0-5.5862-1.6621-8.3125-1.6641-2.7246-6.3174-2.7265a11.15,11.15,0,0,0-8.5791,4.123,17.7609,17.7609,0,0,0-4.3223,10.1084v38.17q0,5.455,1.6631,7.5156,1.6611,2.0625,6.0508,2.0605v2.793q-12.7676-.53-16.7578-.5313-3.7251,0-16.4922.5313v-2.793q3.5917,0,4.9883-2.0605,1.3959-2.0625,1.3964-7.5156V96.2021q0-5.5862-1.4638-8.3125-1.4649-2.7246-5.7188-2.7265a11.5793,11.5793,0,0,0-9.11,4.4556,16.3532,16.3532,0,0,0-3.79,10.9731v36.9727q0,5.455,1.3965,7.5156,1.3961,2.0625,4.9873,2.0605v2.793q-11.7055-.53-15.6943-.5313-3.99,0-18.3535.5313v-2.793q4.7871,0,6.6494-2.0605,1.8618-2.0625,1.8623-7.5156V95.67q0-6.1157-1.8623-8.9106-1.8633-2.7934-6.6494-2.793V81.1729q4.2538.3991,8.2461.3994A83.51,83.51,0,0,0,360.5566,79.71V91.68q5.8506-12.3692,20.6143-12.3692,10.106,0,14.63,5.187,2.5254,2.6624,3.3252,7.98,3.4571-7.1821,9.0439-10.1743a27.1928,27.1928,0,0,1,13.0342-2.9927q10.106,0,14.63,5.187a14.435,14.435,0,0,1,3.06,6.5171,50.6646,50.6646,0,0,1,.9306,10.772v35.7774Q439.8242,143.02,441.7529,145.08Zm16.3594,1.3965q-4.19-4.3887-4.1894-11.5723a15.4079,15.4079,0,0,1,3.125-9.9082,21.3585,21.3585,0,0,1,7.581-6.0508A112.0846,112.0846,0,0,1,476,114.4238a58.9836,58.9836,0,0,0,10.707-4.59,6.3346,6.3346,0,0,0,3.3916-5.6524V93.8081q0-5.5861-2.5937-8.7114-2.5928-3.1238-8.0469-3.1255-6.3839,0-9.709,3.1919a12.37,12.37,0,0,1,5.7862,3.99,9.9186,9.9186,0,0,1,2.0615,6.251,9.0318,9.0318,0,0,1-3.06,7.1816,10.9468,10.9468,0,0,1-7.4473,2.66,8.971,8.971,0,0,1-7.1826-2.9258,11.9271,11.9271,0,0,1-.7314-13.6328,17.8165,17.8165,0,0,1,5.5195-4.8545,30.7387,30.7387,0,0,1,8.8447-3.3247,51.7624,51.7624,0,0,1,11.5039-1.1973,42.6053,42.6053,0,0,1,11.3057,1.33,17.7737,17.7737,0,0,1,7.9795,4.522,14.6769,14.6769,0,0,1,3.9238,7.1821,52.9744,52.9744,0,0,1,.9971,11.5708v36.1758a12.0657,12.0657,0,0,0,.5986,4.5215,2.3006,2.3006,0,0,0,2.3282,1.33q1.995,0,4.788-2.26l1.3291,2.26a22.2778,22.2778,0,0,1-14.63,4.9218q-7.3155,0-10.24-2.9257a11.0407,11.0407,0,0,1-3.06-7.8477q-6.6519,10.7724-19.5508,10.7734Q462.3,150.8652,458.1123,146.4766ZM490.0986,136.9V109.6348q-1.5966,2.6631-6.7832,5.8515a32.37,32.37,0,0,0-7.8466,6.65q-2.6631,3.3252-2.66,9.5762,0,5.4551,2.2607,8.0469a7.551,7.551,0,0,0,5.9854,2.5937Q486.2417,142.3535,490.0986,136.9Zm59.0508-55.7275h15.6934v2.66H549.1494v53.7315q0,3.99,1.3965,5.6523a5.4916,5.4916,0,0,0,4.4551,1.6641q5.7173,0,9.0439-7.9805l2.2608,1.1973q-5.0553,13.6992-18.2207,13.6992-8.7774,0-13.3-4.5235a14.3324,14.3324,0,0,1-3.7911-6.9824,52.0124,52.0124,0,0,1-.997-11.5039V83.833H518.8252v-2.66h11.1719V63.6172a40.677,40.677,0,0,0,19.1523-4.2564Zm47.48,56.3916q0,5.455,1.9277,7.5156,1.9263,2.0625,6.584,2.0605v2.793q-13.3008-.53-17.6894-.5313-4.1236,0-18.4864.5313v-2.793q4.7873,0,6.6495-2.0605,1.8618-2.0625,1.8623-7.5156V95.67q0-6.1157-1.8623-8.9106-1.8633-2.7934-6.6495-2.793V81.1729q4.254.3991,8.2461.3994a83.5105,83.5105,0,0,0,19.418-1.8623Zm-1.53-87.9791A9.2735,9.2735,0,0,1,598.3574,57.1a9.2706,9.2706,0,0,1-3.2588,7.5146q-3.2607,2.7276-8.8437,2.7266-5.5869,0-8.8447-2.7266A9.2646,9.2646,0,0,1,574.1514,57.1a9.2675,9.2675,0,0,1,3.2588-7.5147q3.2577-2.7238,8.8447-2.7265Q591.84,46.8589,595.0986,49.5854Zm74.0137,38.4371q8.644,8.7129,8.6445,27.5966,0,18.8877-8.6445,27.5313-8.6469,8.6484-23.94,8.6465-15.1611,0-23.8731-8.6465-8.7129-8.6425-8.7119-27.5313,0-18.8817,8.7119-27.5966,8.7086-8.7093,23.8731-8.7115Q660.4649,79.311,669.1123,88.0225Zm-33.0508,2.2612q-3.3911,8.3138-3.3916,25.3354,0,17.0274,3.3916,25.2715,3.3912,8.2471,9.11,8.2461,5.8506,0,9.1767-8.18,3.3238-8.18,3.3252-25.3379,0-17.1562-3.3916-25.4018t-9.11-8.2461Q639.4517,81.9712,636.0615,90.2837ZM750.1074,84.498A14.5448,14.5448,0,0,1,753.3,91.0151a49.52,49.52,0,0,1,.9307,10.772v35.7774q0,5.455,1.9287,7.5156,1.9263,2.0625,6.583,2.0605v2.793q-13.3008-.53-17.5557-.5313-3.99,0-17.29.5313v-2.793q3.99,0,5.5859-2.0605,1.5968-2.0625,1.5957-7.5156V96.2021q0-5.452-1.7949-8.246t-6.45-2.793a11.8958,11.8958,0,0,0-9.31,4.4556,16.1758,16.1758,0,0,0-3.8565,10.9731v36.9727q0,5.455,1.5957,7.5156,1.5952,2.0625,5.586,2.0605v2.793q-12.2388-.53-16.4922-.5313-3.99,0-18.3535.5313v-2.793q4.7871,0,6.6494-2.0605,1.8618-2.0625,1.8623-7.5156V95.67q0-6.1157-1.8623-8.9106-1.8633-2.7934-6.6494-2.793V81.1729q4.2539.3991,8.246.3994A83.5105,83.5105,0,0,0,713.666,79.71V91.68Q719.65,79.3111,735.4775,79.311,745.5835,79.311,750.1074,84.498ZM907.8428,59.4941a4.6138,4.6138,0,0,0-2.7266,3.0591,26.0778,26.0778,0,0,0-.7314,7.315v65.9677a26.0482,26.0482,0,0,0,.7314,7.3145,4.5971,4.5971,0,0,0,2.793,3.0605,23.0657,23.0657,0,0,0,6.4512,1.0625v2.66q-7.317-.3984-20.8809-.3984-14.234,0-21.0147.3984v-2.66a26.4632,26.4632,0,0,0,6.9825-1.0625A4.7833,4.7833,0,0,0,882.44,143.15a24.024,24.024,0,0,0,.7979-7.3145V66.2769l-32.0537,83.7895h-2.128L813.1475,64.415v63.708a59.3841,59.3841,0,0,0,.7978,11.504,7.9,7.9,0,0,0,3.458,5.32q2.6588,1.6639,8.6446,2.3261v2.66q-5.1872-.3984-14.3643-.3984-7.3155,0-11.57.3984v-2.66a14.1173,14.1173,0,0,0,6.45-2.26,8.2814,8.2814,0,0,0,2.7929-5.0547,53.3746,53.3746,0,0,0,.7315-10.24V69.8682a26.15,26.15,0,0,0-.7315-7.315,4.6048,4.6048,0,0,0-2.7929-3.0591,23.1467,23.1467,0,0,0-6.45-1.0639V55.77q4.2539.3991,11.57.3989,12.2358,0,21.0146-.3989l26.8663,64.771,24.4716-64.3721H893.48q13.5659,0,20.8809-.3989v2.66A22.7745,22.7745,0,0,0,907.8428,59.4941Zm18.9511,86.9825q-4.1893-4.3887-4.1894-11.5723a15.4079,15.4079,0,0,1,3.125-9.9082,21.3594,21.3594,0,0,1,7.581-6.0508,112.0941,112.0941,0,0,1,11.3711-4.5215,58.9884,58.9884,0,0,0,10.7071-4.59,6.3348,6.3348,0,0,0,3.3916-5.6524V93.8081q0-5.5861-2.5938-8.7114-2.5928-3.1238-8.0469-3.1255-6.3837,0-9.7089,3.1919a12.37,12.37,0,0,1,5.7861,3.99,9.9186,9.9186,0,0,1,2.0615,6.251,9.0321,9.0321,0,0,1-3.0595,7.1816,10.9469,10.9469,0,0,1-7.4473,2.66,8.9709,8.9709,0,0,1-7.1826-2.9258,11.9269,11.9269,0,0,1-.7315-13.6328,17.8182,17.8182,0,0,1,5.52-4.8545,30.7387,30.7387,0,0,1,8.8447-3.3247,51.7612,51.7612,0,0,1,11.5039-1.1973,42.6058,42.6058,0,0,1,11.3057,1.33,17.7733,17.7733,0,0,1,7.9794,4.522,14.677,14.677,0,0,1,3.9239,7.1821,52.9816,52.9816,0,0,1,.997,11.5708v36.1758a12.0632,12.0632,0,0,0,.5987,4.5215,2.3005,2.3005,0,0,0,2.3281,1.33q1.9952,0,4.7881-2.26l1.3291,2.26a22.2783,22.2783,0,0,1-14.63,4.9218q-7.3153,0-10.24-2.9257a11.0407,11.0407,0,0,1-3.06-7.8477q-6.6519,10.7724-19.5508,10.7734Q930.9814,150.8652,926.7939,146.4766ZM958.78,136.9V109.6348q-1.5968,2.6631-6.7832,5.8515a32.3728,32.3728,0,0,0-7.8467,6.65q-2.6631,3.3252-2.66,9.5762,0,5.4551,2.2608,8.0469a7.5506,7.5506,0,0,0,5.9853,2.5937Q954.9233,142.3535,958.78,136.9Zm96.1572-52.4024a14.5459,14.5459,0,0,1,3.1924,6.5171,49.5213,49.5213,0,0,1,.9306,10.772v35.7774q0,5.455,1.9288,7.5156,1.9262,2.0625,6.583,2.0605v2.793q-13.3008-.53-17.5557-.5313-3.99,0-17.29.5313v-2.793q3.99,0,5.5859-2.0605,1.5967-2.0625,1.5957-7.5156V96.2021q0-5.452-1.7949-8.246t-6.45-2.793a11.8961,11.8961,0,0,0-9.3106,4.4556,16.1762,16.1762,0,0,0-3.8564,10.9731v36.9727q0,5.455,1.5957,7.5156,1.5952,2.0625,5.5859,2.0605v2.793q-12.2387-.53-16.4922-.5313-3.99,0-18.3535.5313v-2.793q4.7871,0,6.6494-2.0605,1.862-2.0625,1.8624-7.5156V95.67q0-6.1157-1.8624-8.9106-1.8632-2.7934-6.6494-2.793V81.1729q4.254.3991,8.2461.3994a83.5105,83.5105,0,0,0,19.418-1.8623V91.68q5.984-12.3692,21.8115-12.3692Q1050.4136,79.311,1054.9375,84.498Zm22.4111,61.9786q-4.1894-4.3887-4.1894-11.5723a15.4079,15.4079,0,0,1,3.125-9.9082,21.3594,21.3594,0,0,1,7.581-6.0508,112.0941,112.0941,0,0,1,11.3711-4.5215,58.9884,58.9884,0,0,0,10.7071-4.59,6.3348,6.3348,0,0,0,3.3916-5.6524V93.8081q0-5.5861-2.5938-8.7114-2.5927-3.1238-8.0469-3.1255-6.3837,0-9.7089,3.1919a12.37,12.37,0,0,1,5.7861,3.99,9.9186,9.9186,0,0,1,2.0615,6.251,9.0318,9.0318,0,0,1-3.06,7.1816,10.9465,10.9465,0,0,1-7.4472,2.66,8.9707,8.9707,0,0,1-7.1826-2.9258,11.9269,11.9269,0,0,1-.7315-13.6328,17.8177,17.8177,0,0,1,5.5195-4.8545,30.7406,30.7406,0,0,1,8.8448-3.3247A51.7612,51.7612,0,0,1,1104.28,79.311a42.6045,42.6045,0,0,1,11.3056,1.33,17.7737,17.7737,0,0,1,7.9795,4.522,14.6778,14.6778,0,0,1,3.9239,7.1821,52.9816,52.9816,0,0,1,.997,11.5708v36.1758a12.0632,12.0632,0,0,0,.5987,4.5215,2.3005,2.3005,0,0,0,2.3281,1.33q1.9951,0,4.7881-2.26l1.3291,2.26a22.2783,22.2783,0,0,1-14.63,4.9218q-7.3155,0-10.24-2.9257a11.0407,11.0407,0,0,1-3.06-7.8477q-6.6519,10.7724-19.5508,10.7734Q1081.5361,150.8652,1077.3486,146.4766ZM1109.335,136.9V109.6348q-1.5967,2.6631-6.7832,5.8515a32.3709,32.3709,0,0,0-7.8467,6.65q-2.6631,3.3252-2.66,9.5762,0,5.4551,2.2608,8.0469a7.5506,7.5506,0,0,0,5.9853,2.5937Q1105.478,142.3535,1109.335,136.9Zm90.5713-44.7549a6.7783,6.7783,0,0,1-1.8624-5.1206,14.9883,14.9883,0,0,1,1.5967-6.5166,21.5965,21.5965,0,0,0-5.2539,2.9922,14.8936,14.8936,0,0,0-3.5244,4.1894q4.1207,4.9227,4.1231,12.7691,0,10.5059-7.2481,15.8262-7.251,5.32-19.2187,5.32h-2.3946q-5.4551,3.19-5.4531,7.0488,0,4.2568,5.32,4.2559h14.4971q11.7025,0,18.6865,4.3222,6.9829,4.3242,6.9824,13.2344a19.4822,19.4822,0,0,1-4.3222,12.3027q-4.3244,5.5167-13.1006,8.8438-8.7774,3.3222-21.5459,3.3242-12.9024,0-20.6817-3.2578-7.78-3.2607-7.78-9.377a9.6373,9.6373,0,0,1,3.7236-7.3808q3.7221-3.2609,11.0391-5.1211l1.1972,2.1289q-4.7886,3.99-4.7881,9.1758a9.4483,9.4483,0,0,0,5.0537,8.58q5.0538,2.9913,13.9649,2.9922,9.309,0,15.0957-3.7246a11.8114,11.8114,0,0,0,5.7852-10.5078,8.2759,8.2759,0,0,0-3.2579-6.916q-3.2607-2.5224-11.372-2.5254h-8.2461q-8.5122,0-13.3-2.8594a9.4692,9.4692,0,0,1-4.7881-8.7129,12.7826,12.7826,0,0,1,3.458-8.7773q3.4571-3.8555,10.5078-7.4473-9.5772-1.1982-15.1621-6.3847-5.5869-5.1885-5.5859-14.3633,0-10.5066,7.248-15.8281,7.248-5.3175,19.2188-5.32,13.2978,0,20.3486,6.251a19.2349,19.2349,0,0,1,6.251-5.7187,15.1255,15.1255,0,0,1,7.581-2.1285,8.5417,8.5417,0,0,1,6.3174,2.3277,8.1934,8.1934,0,0,1,2.3281,6.0517,7.8237,7.8237,0,0,1-2.0615,5.7852,6.6392,6.6392,0,0,1-4.8545,2.0615A6.27,6.27,0,0,1,1199.9063,92.1455Zm-25.7354,22.81q1.9263-4.254,1.9287-14.4961,0-10.2416-1.9287-14.4981-1.9291-4.2546-5.6523-4.2558-3.7251,0-5.6524,4.2558-1.9307,4.2584-1.9287,14.4981,0,10.2421,1.9287,14.4961,1.9263,4.2569,5.6524,4.2558Q1172.2407,119.2109,1174.1709,114.9551Zm97.4219,15.2949,2.3945.7988a31.72,31.72,0,0,1-9.51,14.6953q-6.851,6.0558-17.0908,6.0528-14.0976,0-22.41-8.9785-8.313-8.9766-8.3125-26.5332,0-17.9561,8.9111-27.4644,8.9091-9.5076,23.6738-9.51,25.0035,0,25.0039,29.5269H1236.88q-.1334,1.9952-.1328,6.25a37.8783,37.8783,0,0,0,2.4609,14.6309q2.46,5.8535,6.3838,8.5117a14.76,14.76,0,0,0,8.4453,2.66Q1264.9413,140.8906,1271.5928,130.25Zm-31.0547-42.2275q-3.1275,5.9195-3.9238,18.288h20.8808q.2652-10.5058-2.0615-17.3569-2.3291-6.8481-6.9824-6.85Q1243.6626,82.104,1240.5381,88.0225Zm150.289,57.0576q1.9263,2.0625,6.5831,2.0605v2.793q-13.3008-.53-17.5557-.5313-3.7251,0-16.4922.5313v-2.793q3.5918,0,4.9873-1.9941,1.3976-1.9952,1.3965-7.582V96.2021q0-5.5862-1.6621-8.3125-1.6641-2.7246-6.3174-2.7265a11.15,11.15,0,0,0-8.5791,4.123,17.7609,17.7609,0,0,0-4.3223,10.1084v38.17q0,5.455,1.6631,7.5156,1.6611,2.0625,6.0508,2.0605v2.793q-12.7676-.53-16.7578-.5313-3.7251,0-16.4922.5313v-2.793q3.5918,0,4.9883-2.0605,1.3959-2.0625,1.3965-7.5156V96.2021q0-5.5862-1.4639-8.3125-1.4649-2.7246-5.7187-2.7265a11.5793,11.5793,0,0,0-9.11,4.4556,16.3537,16.3537,0,0,0-3.79,10.9731v36.9727q0,5.455,1.3964,7.5156,1.3961,2.0625,4.9873,2.0605v2.793q-11.7055-.53-15.6943-.5313t-18.3535.5313v-2.793q4.7871,0,6.6494-2.0605,1.8618-2.0625,1.8623-7.5156V95.67q0-6.1157-1.8623-8.9106-1.8633-2.7934-6.6494-2.793V81.1729q4.2539.3991,8.2461.3994a83.5111,83.5111,0,0,0,19.418-1.8623V91.68q5.8506-12.3692,20.6142-12.3692,10.106,0,14.63,5.187,2.5254,2.6624,3.3252,7.98,3.457-7.1821,9.0439-10.1743a27.1931,27.1931,0,0,1,13.0342-2.9927q10.106,0,14.63,5.187a14.435,14.435,0,0,1,3.06,6.5171,50.6646,50.6646,0,0,1,.9306,10.772v35.7774Q1388.8984,143.02,1390.8271,145.08Zm68.1622-14.83,2.3945.7988a31.72,31.72,0,0,1-9.51,14.6953q-6.8511,6.0558-17.0908,6.0528-14.0976,0-22.41-8.9785-8.3128-8.9766-8.3125-26.5332,0-17.9561,8.9112-27.4644,8.9091-9.5076,23.6738-9.51,25.0035,0,25.0039,29.5269h-37.373q-.1333,1.9952-.1328,6.25a37.8783,37.8783,0,0,0,2.4609,14.6309q2.4594,5.8535,6.3838,8.5117a14.7592,14.7592,0,0,0,8.4453,2.66Q1452.3378,140.8906,1458.9893,130.25Zm-31.0547-42.2275q-3.1275,5.9195-3.9239,18.288h20.8809q.2652-10.5058-2.0615-17.3569-2.3292-6.8481-6.9824-6.85Q1431.0591,82.104,1427.9346,88.0225Zm105.5342-3.5245a14.5447,14.5447,0,0,1,3.1923,6.5171,49.5141,49.5141,0,0,1,.9307,10.772v35.7774q0,5.455,1.9287,7.5156,1.9263,2.0625,6.583,2.0605v2.793q-13.3008-.53-17.5556-.5313-3.99,0-17.29.5313v-2.793q3.99,0,5.586-2.0605,1.5966-2.0625,1.5957-7.5156V96.2021q0-5.452-1.795-8.246t-6.45-2.793a11.8958,11.8958,0,0,0-9.3105,4.4556,16.1758,16.1758,0,0,0-3.8565,10.9731v36.9727q0,5.455,1.5957,7.5156,1.5952,2.0625,5.586,2.0605v2.793q-12.2388-.53-16.4922-.5313-3.99,0-18.3535.5313v-2.793q4.7871,0,6.6494-2.0605,1.8618-2.0625,1.8623-7.5156V95.67q0-6.1157-1.8623-8.9106-1.8633-2.7934-6.6494-2.793V81.1729q4.2539.3991,8.2461.3994a83.51,83.51,0,0,0,19.4179-1.8623V91.68q5.984-12.3692,21.8116-12.3692Q1528.9448,79.311,1533.4688,84.498Zm44.5556-3.3251h15.6934v2.66h-15.6934v53.7315q0,3.99,1.3965,5.6523a5.4916,5.4916,0,0,0,4.4551,1.6641q5.7172,0,9.0439-7.9805l2.2608,1.1973q-5.0553,13.6992-18.2207,13.6992-8.7774,0-13.3-4.5235a14.3324,14.3324,0,0,1-3.7911-6.9824,52.0124,52.0124,0,0,1-.997-11.5039V83.833H1547.7v-2.66h11.1719V63.6172a40.677,40.677,0,0,0,19.1523-4.2564Zm115.374-25.004a48.1886,48.1886,0,0,1,11.1055,6.3843,4.8449,4.8449,0,0,0,2.66,1.1968q1.3271,0,2.1279-1.9282a22.6987,22.6987,0,0,0,1.1963-6.0518h3.06q-.5333,9.0462-.5323,32.1861h-3.0586a65.4906,65.4906,0,0,0-3.1259-14.63,21.533,21.533,0,0,0-6.85-9.4429,22.503,22.503,0,0,0-7.8466-4.7881,27.332,27.332,0,0,0-9.5762-1.729,20.7915,20.7915,0,0,0-15.4941,6.3174q-6.1847,6.3186-9.11,16.6914a83.5211,83.5211,0,0,0-2.9268,22.7422q0,46.02,25.5362,46.0195a15.4836,15.4836,0,0,0,9.4433-2.66,6.971,6.971,0,0,0,2.46-2.793,9.9745,9.9745,0,0,0,.7324-4.1231V126.5254q0-6.249-1.0644-9.1094a6.4092,6.4092,0,0,0-3.79-3.9238,29.0664,29.0664,0,0,0-8.5791-1.33v-2.66q8.2457.3984,22.7432.3984,11.8359,0,17.8223-.3984v2.66a8.7515,8.7515,0,0,0-3.8575,1.0645,4.6085,4.6085,0,0,0-1.6621,3.0586,40.3334,40.3334,0,0,0-.4658,7.3144v26.334h-2.66a15.266,15.266,0,0,0-1.13-5.1856q-.9976-2.3964-2.7266-2.3945-2.2632,0-7.1826,2.793-11.5708,6.65-21.8115,6.65-23.0114,0-35.2452-12.5684-12.2387-12.5712-12.2363-35.3125,0-14.8938,6.1846-26.2012a44.319,44.319,0,0,1,17.0908-17.5556,49.117,49.117,0,0,1,24.8711-6.251A37.5754,37.5754,0,0,1,1693.3984,56.1689Zm87.9776,26.733a12.8941,12.8941,0,0,1,3.0586,8.645,11.4586,11.4586,0,0,1-2.8594,8.0469,9.7062,9.7062,0,0,1-7.5147,3.125,10.514,10.514,0,0,1-7.1816-2.3282,7.7979,7.7979,0,0,1-2.66-6.1836q0-6.3837,5.8515-10.374a7.1662,7.1662,0,0,0-1.5957-.1328,6.9341,6.9341,0,0,0-2.1279.2661q-5.0566.7976-8.5781,6.1177a19.5184,19.5184,0,0,0-3.5245,10.9062v35.2442q0,6.12,2.9922,8.5136t9.51,2.3926v2.793a28.3611,28.3611,0,0,1-3.06-.1328q-13.5659-.3984-18.0879-.3985-3.59,0-16.3593.3985a21.8264,21.8264,0,0,1-2.6592.1328v-2.793q4.7871,0,6.6494-2.0605,1.8618-2.0625,1.8623-7.5156V95.67q0-6.1157-1.8623-8.9106-1.8633-2.7934-6.6494-2.793V81.1729q4.2539.3991,8.2461.3994a83.51,83.51,0,0,0,19.4179-1.8623V92.0791a22.5446,22.5446,0,0,1,7.3145-9.2437,17.7363,17.7363,0,0,1,10.7734-3.5244Q1778.316,79.311,1781.376,82.9019Zm65.5683,5.1206q8.644,8.7129,8.6446,27.5966,0,18.8877-8.6446,27.5313-8.6469,8.6484-23.94,8.6465-15.1611,0-23.873-8.6465-8.7129-8.6425-8.712-27.5313,0-18.8817,8.712-27.5966,8.7084-8.7093,23.873-8.7115Q1838.2969,79.311,1846.9443,88.0225Zm-33.0507,2.2612q-3.3912,8.3138-3.3916,25.3354,0,17.0274,3.3916,25.2715,3.391,8.2471,9.11,8.2461,5.8506,0,9.1768-8.18,3.3237-8.18,3.3252-25.3379,0-17.1562-3.3916-25.4018t-9.11-8.2461Q1817.2837,81.9712,1813.8936,90.2837Zm116.1738,45.1538q0,6.1172,1.9287,8.91,1.9263,2.7948,6.584,2.7929v2.793q-4.125-.3984-8.2461-.3984a85.6519,85.6519,0,0,0-19.418,1.8613V139.4277q-6.12,12.3692-21.4131,12.3692-9.9756,0-14.497-5.1875a15.9592,15.9592,0,0,1-3.126-6.584,46.37,46.37,0,0,1-.9971-10.707V95.67q0-6.1157-1.9287-8.9106-1.9291-2.7934-6.584-2.793V81.1729q4.1221.3991,8.2461.3994a85.6345,85.6345,0,0,0,19.418-1.8623v55.0615q0,5.5869,1.6631,8.3789,1.6611,2.795,6.3173,2.793a11.5731,11.5731,0,0,0,9.11-4.4551,16.3455,16.3455,0,0,0,3.791-10.9727V95.67q0-6.1157-1.9287-8.9106-1.9292-2.7934-6.584-2.793V81.1729q4.2553.3991,8.2461.3994a85.6406,85.6406,0,0,0,19.418-1.8623Zm74.4111-52.4023a24.3609,24.3609,0,0,1,8.4453,11.1718q3.0586,7.45,3.06,18.2207,0,19.0225-8.3125,29.1934-8.313,10.1748-22.5439,10.1758a25.8716,25.8716,0,0,1-7.5137-1.0645,16.8136,16.8136,0,0,1-6.0518-3.1914V160.84q0,5.8506,2.9258,8.1133,2.9238,2.2588,9.044,2.2617v2.793l-3.5909-.1328q-14.7627-.4014-18.7529-.4t-16.7578.5332v-2.793q4.3887,0,6.1846-1.93,1.7943-1.9278,1.7949-7.1153V95.67q0-6.1157-1.9287-8.9106-1.9293-2.7934-6.583-2.793V81.1729q4.2553.3991,8.2461.3994a85.6463,85.6463,0,0,0,19.4179-1.8623V91.9463a20.7951,20.7951,0,0,1,8.1123-9.3765,23.4637,23.4637,0,0,1,12.503-3.2588A21.1214,21.1214,0,0,1,2004.4785,83.0352ZM1992.1768,139.76q3.7206-8.4434,3.7236-24.6719,0-16.2246-2.9922-23.1416-2.9927-6.9141-8.5791-6.916a11.9262,11.9262,0,0,0-8.0459,3.0586,15.1872,15.1872,0,0,0-4.7217,8.5122v48.0122a10.6727,10.6727,0,0,0,8.3789,3.5918Q1988.45,148.2051,1992.1768,139.76Z"/></clipPath><linearGradient id="linear-gradient" y1="102" x2="2036.6591" y2="102" gradientUnits="userSpaceOnUse"><stop offset="0" stop-color="#ffc907"/><stop offset="0.5" stop-color="#ee1d51"/><stop offset="1" stop-color="#882890"/></linearGradient><clipPath id="clip-path-2" transform="translate(1.6591 4)"><rect class="cls-1" x="13.9636" y="166.1667" width="1120.0848" height="2.7674"/></clipPath><linearGradient id="linear-gradient-2" y1="98" x2="2036.6591" y2="98" xlink:href="#linear-gradient"/></defs><title>wordmark</title><g class="cls-2"><rect class="cls-3" y="4" width="2036.6591" height="196"/></g><g class="cls-4"><rect class="cls-5" width="2036.6591" height="196"/></g></svg>