<svg id="Layer_2" data-name="Layer 2" xmlns="http://www.w3.org/2000/svg" viewBox="0 0 554.12 426.14"><defs><style>.cls-1,.cls-2{fill:#f4c756;}.cls-1{opacity:0.5;}.cls-2{opacity:0.65;}.cls-3{fill:#00aeef;stroke:#d1d3d4;stroke-linecap:round;opacity:0.25;}.cls-15,.cls-17,.cls-3,.cls-4{stroke-miterlimit:10;}.cls-17,.cls-4{fill:none;}.cls-4{stroke:#fff;}.cls-15,.cls-5{fill:#fff;}.cls-6{fill:#232120;}.cls-7{fill:#bae4ef;opacity:0.54;}.cls-11,.cls-8{fill:#6f3114;}.cls-8{opacity:0.81;}.cls-10,.cls-9{fill:#e48868;}.cls-9{opacity:0.8;}.cls-12{fill:#f15b56;}.cls-13{fill:#2d2d51;}.cls-14{opacity:0.37;}.cls-15{stroke:#053f4c;stroke-width:3px;}.cls-16{fill:#f1e0d4;}.cls-17{stroke:#4c2818;stroke-width:4px;}.cls-18{fill:#feffff;}.cls-19{fill:#373563;}.cls-20{opacity:0.73;}.cls-21{fill:#053f4c;}.cls-22{fill:#464648;}</style></defs><title>Lost_and_Found</title><path class="cls-1" d="M632.81,422.54c-14.59-5.29-22.54-20.28-17.75-33.49,3.47-9.58,12.7-15.59,23.07-16.14-11.54-19.44-33.4-31.46-37.17-33.53-19.89-10.95-42.11-13.66-52.66-14.95-27.26-3.32-34.45,2.09-42.73-4.42-15.12-11.87,3.18-34.35-9.31-62.87-11.51-26.28-43.82-45.49-72.62-48.46-27.84-2.87-50.84,9.61-64.19,16.86-22.64,12.28-24.14,21.6-44.82,26.64-6.34,1.56-29.79,7.27-49-3.93-14-8.16-12.23-17.38-25.29-23-14-6-34.94-3.54-44.46,8.79-11.57,15-.12,36.81,2,40.85,10.84,20.59,26.59,19.28,31.65,35,6.47,20.08-16.31,31.38-8.74,49.41a24.18,24.18,0,0,0,5.65,8.07,17.6,17.6,0,0,1,1.06-5.62c3.68-10.14,15.73-15.07,26.94-11s17.31,15.57,13.63,25.71a18.07,18.07,0,0,1-6.82,8.75c27.71,10.18,51.07,10.22,55,10.08C363,393.7,382.09,366.21,407,377c22.64,9.81,20.8,38.65,47.44,46.25,10.8,3.07,15.05-.54,27.87-1,44.13-1.49,60.94,39.14,95.5,40.15,23,.67,48.28-16.36,60.34-38.48A30.41,30.41,0,0,1,632.81,422.54ZM252.59,317.93c-17.91-6.49-27.66-24.9-21.79-41.11s25.16-24.09,43.07-17.6,27.66,24.9,21.79,41.11S270.5,324.42,252.59,317.93Z" transform="translate(-148.06 -81.13)"/><path class="cls-2" d="M702,399.24c-2.94-43.07-44.57-67.72-50.39-71.16-23.87-14.14-51.32-16.24-64.36-17.23-33.66-2.57-43.06,5.83-52.84-2.88-17.85-15.87,6.76-49.75-6.46-89.82-12.19-36.93-50.85-62-86.47-63.9-34.43-1.86-64.09,18-81.3,29.53-29.2,19.55-31.83,33.09-58,42-8,2.76-37.67,12.92-60.7-1.65-16.77-10.61-13.82-24.06-29.61-31.08-17-7.54-43.23-2.25-56.08,16.29-15.65,22.6-3.15,53-.85,58.7,11.82,28.79,31.54,25.61,36.56,47.84,6.41,28.4-22.88,46.55-14.92,71.9,5,15.8,20.62,22.48,40.77,31.06,36.75,15.65,69.88,13.56,75.18,13,47-4.93,73-32.56,97-36.12a32.72,32.72,0,0,1,6.76-.33A29.76,29.76,0,0,1,407,398.1l.47.22c26.86,12.55,22.46,53.83,54.81,62.55,13.2,3.55,18.79-2,34.77-3.67,55.07-5.76,72.69,51.42,115.64,50C654.47,505.92,705.44,449.67,702,399.24Zm-63.91,24.7c-12,22.11-37.34,39.14-60.33,38.48-34.56-1-51.37-41.65-95.5-40.15-12.81.43-17.07,4-27.87,1C427.77,415.64,429.61,386.8,407,377c-24.88-10.77-44,16.72-90.71,18.32-4,.14-27.32.1-55-10.08-2-.75-4.1-1.55-6.18-2.42-12.07-5-22.19-9.2-28.63-15.42a24,24,0,0,1-5.65-8.07c-7.57-18,15.2-29.33,8.73-49.42-5-15.71-20.8-14.4-31.64-35-2.13-4-13.58-25.82-2-40.85,9.52-12.34,30.46-14.81,44.46-8.79,13.07,5.62,11.29,14.84,25.29,23,19.24,11.21,42.68,5.49,49,3.93,20.67-5,22.18-14.36,44.82-26.64,13.34-7.25,36.35-19.73,64.19-16.86,28.8,3,61.11,22.18,72.62,48.46,12.49,28.51-5.81,51,9.31,62.87,8.28,6.5,15.47,1.09,42.73,4.42,10.55,1.28,32.77,4,52.66,14.94,3.78,2.07,25.63,14.09,37.17,33.53a49.87,49.87,0,0,1,6.71,18.34C646.44,402.4,643.68,413.72,638.1,423.94Z" transform="translate(-148.06 -81.13)"/><path class="cls-3" d="M672,242.53a35.66,35.66,0,0,1-1.46-5.48" transform="translate(-148.06 -81.13)"/><path class="cls-4" d="M675.13,215" transform="translate(-148.06 -81.13)"/><path class="cls-5" d="M485,203.59h5.4c3.22,0,3.22-5,0-5H485c-3.22,0-3.22,5,0,5Z" transform="translate(-148.06 -81.13)"/><path class="cls-6" d="M523.22,431.85l-9.88,6.8,15.74-1,1.74-3.65S528.77,430.81,523.22,431.85Z" transform="translate(-148.06 -81.13)"/><path class="cls-7" d="M481.6,96.85c-.85,4.16-9.05,0-9.05,0s-6.64-8-13.95-4a26.44,26.44,0,0,0-8.05,10,5.56,5.56,0,0,1-1.49,1.86c-2.75,2.25-9.91,9.35-4.93,18.78A1,1,0,0,1,443,125c-5.24-1.39-16.1-2.92-9.13,11,0,0,7.08,9.67,12.71,13.39a31.06,31.06,0,0,1,7,6.22,5.87,5.87,0,0,1,1.23,2.92c.35,2.64,1.87,8.08,8.49,7.6-.11.14-.05.16.18,0l.1,0,.67-.09c2.2.79-1,14.31-1,14.31l-1.35,55.34c-1.8,28.8,12.2,45.86,12.2,45.86a100.79,100.79,0,1,1-2.75-194.45h0C471.72,87.28,482.44,92.78,481.6,96.85Z" transform="translate(-148.06 -81.13)"/><path class="cls-4" d="M463.25,166.12l.28,0-.1,0C463.2,166.28,463.14,166.26,463.25,166.12Z" transform="translate(-148.06 -81.13)"/><path class="cls-4" d="M464.21,166l-.67.09A.82.82,0,0,1,464.21,166Z" transform="translate(-148.06 -81.13)"/><path class="cls-8" d="M545.14,166c-.4-1.08-3.81-1.3-5.25-1.34a8.16,8.16,0,0,1-1.33-.15,42.07,42.07,0,0,1-6.62-1.94,5.1,5.1,0,0,1-1.19-.7c-3.48-2.58-9.87-3.38-13.28-3.63a6.24,6.24,0,0,0-4,1.08c-12.57,8.52-19.8,5.22-19.8,5.22-11.25-6.07-16.65-4.38-16.65-4.38-2.81.76-8.51,4.11-10.07,5a3.64,3.64,0,0,1-.85.38,15.6,15.6,0,0,1-1.92.4.82.82,0,0,0-.67.09l-.28,0c-6.61.49-8.14-5-8.49-7.6a5.87,5.87,0,0,0-1.23-2.92,31.06,31.06,0,0,0-7-6.22c-5.62-3.72-12.71-13.39-12.71-13.39-7-13.95,3.89-12.43,9.13-11a1,1,0,0,0,1.14-1.48c-5-9.43,2.18-16.53,4.93-18.78a5.56,5.56,0,0,0,1.49-1.86,26.44,26.44,0,0,1,8.05-10c7.31-4.08,13.95,4,13.95,4s8.21,4.16,9.05,0-9.88-9.58-10.29-9.77a100.92,100.92,0,0,1,71.37,68.83A97.05,97.05,0,0,1,545.14,166Z" transform="translate(-148.06 -81.13)"/><path class="cls-4" d="M464.21,166l-.67.09A.82.82,0,0,1,464.21,166Z" transform="translate(-148.06 -81.13)"/><path class="cls-4" d="M463.53,166.1l-.1,0c-.23.13-.29.12-.18,0Z" transform="translate(-148.06 -81.13)"/><path class="cls-9" d="M546.86,184.68a100.73,100.73,0,0,1-3.63,26.88c-.6,2.18-1.27,4.34-2,6.45q-1.55,4.43-3.49,8.66a101.11,101.11,0,0,1-63.67,54.86s-14-17.06-12.2-45.86l1.35-55.34s3.19-13.52,1-14.31a15.6,15.6,0,0,0,1.92-.4,3.64,3.64,0,0,0,.85-.38c1.56-.93,7.26-4.27,10.07-5,0,0,5.4-1.69,16.65,4.38,0,0,7.23,3.3,19.8-5.22a6.24,6.24,0,0,1,4-1.08c3.41.24,9.8,1,13.28,3.63a5.1,5.1,0,0,0,1.19.7,42.07,42.07,0,0,0,6.62,1.94,8.16,8.16,0,0,0,1.33.15c1.44,0,4.84.26,5.25,1.34A100.9,100.9,0,0,1,546.86,184.68Z" transform="translate(-148.06 -81.13)"/><path class="cls-10" d="M549,229.65a8.31,8.31,0,0,1-3,3.89c-1.69.94-.36,3.67.13,4.55a.64.64,0,0,1,0,.58,9.69,9.69,0,0,0-.72,3.17l.35,9.05c-.77.74-1.93.49-2.67.93a11.6,11.6,0,0,1-3.63,1.47l2.69,1.94a15.89,15.89,0,0,1-3.29,1.85h0l-2.81.82-2.37.69-1.57.46h0a12.34,12.34,0,0,1,2.06-3.41,12.67,12.67,0,0,0,2.5-4.36c.79-3.26-1.12-4.27-1.12-4.27s-5.37,3.71-7.13-3.94a1.84,1.84,0,0,1,0-.22,100.49,100.49,0,0,0,9.36-16.21q1.94-4.23,3.49-8.66l.84-.57s4.32.4,4.81,2.45-2.4,6.33-2.4,6.33a39.26,39.26,0,0,0-.82,5.07s1.66,1.46,4.13-4.5C547.77,226.78,550.27,225.71,549,229.65Z" transform="translate(-148.06 -81.13)"/><path class="cls-11" d="M550.78,236.62l-4.63,2.05a.64.64,0,0,0,0-.58c-.49-.88-1.82-3.62-.13-4.55a8.31,8.31,0,0,0,3-3.89c1.23-3.93-1.27-2.86-1.27-2.86-2.47,6-4.13,4.5-4.13,4.5a39.26,39.26,0,0,1,.82-5.07s2.89-4.27,2.4-6.33-4.81-2.45-4.81-2.45l-.84.57c.75-2.11,1.41-4.27,2-6.45l.34-.19s10,2.2,10.3,5.17S550.78,236.62,550.78,236.62Z" transform="translate(-148.06 -81.13)"/><path class="cls-4" d="M543.9,325.43l0,.44a1.75,1.75,0,0,0-.34-.84Z" transform="translate(-148.06 -81.13)"/><path class="cls-12" d="M545.29,331.51l-.17,2.1c-3.57,2.57-9.11,2.48-13.31,1.93a54,54,0,0,1-5.81-1.17c-.72-.15-.15-2.82.27-4.5a.91.91,0,0,0,.18-.08l0-.17c0-.2.09-.57.16-1.08v0l0-.11c.05-.36.13-.78.2-1.27,1.23-7.85,4.88-31,6.49-40.39,1.94-11.4,2-24.5,6.22-30.1a15.89,15.89,0,0,0,3.29-1.85l1.54,1.12a1.77,1.77,0,0,1,.66,1.94l-3.12,10.56,0,.12,0,.13-1,7-1.42,5.82-.4,1.62a1.65,1.65,0,0,0-.05.42v22.35l.59,6.52.6,3.82.75,3.6.08.38.22.29,3.09,4.11a1.75,1.75,0,0,1,.34.84l.43,4.2.2,1.88Z" transform="translate(-148.06 -81.13)"/><path class="cls-12" d="M532.89,257.86c-.22.24-.29.19-.15.24l-.2.22s-8.41,36-9.15,48.15a20.5,20.5,0,0,0,1.05,10.5s1.49.75-3,8.1a5.75,5.75,0,0,0-.37,1.21c0,.1,0,.19,0,.29a2.22,2.22,0,0,0,0,.35,2.12,2.12,0,0,0,.88,1.93l-.88,2.81a3.7,3.7,0,0,1-1.78-.1,12.25,12.25,0,0,1-3-1.32c-3.15-7.51,2.4-19.8,2.4-19.8l-2.33-.64a3,3,0,0,1-1.89-1.5L512.64,305a3.33,3.33,0,0,0-1.66-1.5,4.62,4.62,0,0,1-1.76-1.61,10.13,10.13,0,0,1-1.84-4.19,6.93,6.93,0,0,0-.59-1.68l-1.61-3.16-1.93-2.74a7.37,7.37,0,0,1-1.34-4.1l0-1.22a3.09,3.09,0,0,0-.63-1.83l-2.31-3.09c3.6-.22,4.95-4.5,4.95-4.5l1.63,1.94,1.73.14a4.52,4.52,0,0,1,3.2,1.72c1.21,1.52,2.87,3.64,3,3.84s2.39,3.07,2.39,3.07l4.72-10.27a89.18,89.18,0,0,0,4.27-11.63,15,15,0,0,1,10.65-9.91l-.07.42C533.8,256.7,532.89,257.86,532.89,257.86Z" transform="translate(-148.06 -81.13)"/><path class="cls-13" d="M526.52,432.54c-1.43-.11-2.72-.32-2.72-.32-3.88-4.77-4.74-79.94-4.91-100.74a3.7,3.7,0,0,0,1.78.1l.88-2.81a2.77,2.77,0,0,0,1.05.4,14.29,14.29,0,0,0,1.75.23l-.69,10.87s-2,64.49,0,68.54c0,0,1.29,15.9,2.82,23.7Z" transform="translate(-148.06 -81.13)"/><path class="cls-10" d="M488.36,276.78s9.25,2.16,10.65,4a5.3,5.3,0,0,0,4.8-5.18s-1.09-5.55-2.19-6A116.1,116.1,0,0,1,488.36,276.78Z" transform="translate(-148.06 -81.13)"/><g class="cls-14"><ellipse class="cls-15" cx="318.7" cy="127.26" rx="18.45" ry="27.33"/><ellipse class="cls-15" cx="361.91" cy="127.26" rx="18.45" ry="27.33"/></g><path class="cls-16" d="M539.78,256.3c-4.27,5.6-4.27,18.7-6.22,30.1-1.61,9.4-5.26,32.54-6.49,40.39-.07.49-.14.91-.2,1.27l0,.11v0c0,.1-.14.49-.29,1l-.08.3a5.2,5.2,0,0,1-2.12.15,14.29,14.29,0,0,1-1.75-.23,2.77,2.77,0,0,1-1.05-.4,2.12,2.12,0,0,1-.88-1.93,2.22,2.22,0,0,1,0-.35c0-.1,0-.19,0-.29a5.75,5.75,0,0,1,.37-1.21c4.5-7.35,3-8.1,3-8.1a20.5,20.5,0,0,1-1.05-10.5c.75-12.15,9.15-48.15,9.15-48.15l.74-.22H533a32.18,32.18,0,0,0,6.75-2Z" transform="translate(-148.06 -81.13)"/><circle class="cls-17" cx="297.95" cy="103.55" r="101.55"/><path class="cls-18" d="M364.22,151.24l16.2,6.75s-13.5,72.77,7.65,92.41C388.06,250.39,350.73,226.38,364.22,151.24Z" transform="translate(-148.06 -81.13)"/><path class="cls-19" d="M538.06,403.53c-3.46,15.3-2.7,30.15-4.36,30.74s-6.59-1.26-7.17-1.48h0l0,0c-1.53-7.8-2.82-23.7-2.82-23.7-2-4,0-68.54,0-68.54l.69-10.87a5.2,5.2,0,0,0,2.12-.15c-.42,1.68-1,4.35-.27,4.5a54,54,0,0,0,5.81,1.17c4.2.56,9.74.65,13.31-1.93l.17-2.1a13.34,13.34,0,0,0,3-.14C550,363.07,541.46,388.44,538.06,403.53Z" transform="translate(-148.06 -81.13)"/><path class="cls-10" d="M545.17,330.51s-4,5.56-1.6,8c0,0-1.64,6.15,0,6.75s7.94-1.5,12-5.85c0,0,.94-1.75-4.08-9.73Z" transform="translate(-148.06 -81.13)"/><path d="M526.52,431.85l-9.88,6.8,15.74-1,1.74-3.65S532.07,430.81,526.52,431.85Z" transform="translate(-148.06 -81.13)"/><path class="cls-12" d="M559.26,276.46a7.43,7.43,0,0,1-.05,2.28L558,285.85a8.06,8.06,0,0,0-.12,1.23l-.06,6.12a7.86,7.86,0,0,1-.2,1.66l-.77,3.39a8.18,8.18,0,0,0-.19,1.48l-.15,4.65a8,8,0,0,1-.49,2.47l-.33.89a8.73,8.73,0,0,0-.52,2.34l-.35,4.13a7.53,7.53,0,0,1-.31,1.6l-1.57,5a1.64,1.64,0,0,1-.21.44l-1,1.48a1.78,1.78,0,0,0-.21,1.52l.77,2.37a1.67,1.67,0,0,1,.09.55v2.3a1.78,1.78,0,0,1-1.26,1.7,28.54,28.54,0,0,1-4,.91,13.34,13.34,0,0,1-3,.14h0l-.2-1.88-.43-4.2,0-.44-.3-.4-3.09-4.11a1.85,1.85,0,0,1-.3-.67l-.75-3.6-.6-3.82-.59-6.52V285.86a15.6,15.6,0,0,1,.45-3.71l1.42-5.82,1-7a1.17,1.17,0,0,1,.05-.24l3.12-10.56.36-1.21-1-.74-1.54-1.12c-.49-.36-2.39-1.28-2.69-1.94-.58-1.27,2.31-1.18,2.92-1.42a8.84,8.84,0,0,0,.81-.56c.56-.33,1-.22,1.63-.72a1.76,1.76,0,0,1,1.44-.41,14.62,14.62,0,0,1,11.42,9.64c2.52,6.8,2.23,11,1.9,12.76a7.91,7.91,0,0,0-.08,2.39Z" transform="translate(-148.06 -81.13)"/><g class="cls-20"><path class="cls-21" d="M484.35,202.37h7.8a1.88,1.88,0,0,0,0-3.75h-7.8a1.88,1.88,0,0,0,0,3.75Z" transform="translate(-148.06 -81.13)"/></g><g class="cls-20"><path class="cls-21" d="M527.11,203.31a107.3,107.3,0,0,1,13.3,4.79c2.19,1,4.1-2.27,1.89-3.24a114.57,114.57,0,0,0-14.2-5.17c-2.32-.67-3.31,2.95-1,3.62Z" transform="translate(-148.06 -81.13)"/></g><path class="cls-5" d="M407.58,396.84c0-2.65-.36-6.14-4.09-5.71-1.6.37-2.87,2-3.61,4.74A31.08,31.08,0,0,1,407,398.1l.47.22A5.69,5.69,0,0,0,407.58,396.84Zm-11-6.45c-.49-3.31-1.72-5.27-3.45-5.78-3.69-.66-4.27,2.8-4.45,5.44a17,17,0,0,0,.9,5.73,32.72,32.72,0,0,1,6.76-.33A15.65,15.65,0,0,0,396.57,390.39Z" transform="translate(-148.06 -81.13)"/><path class="cls-22" d="M404.35,406.2c-1,8.79-9.2,5-4.46-1.51C401.3,405.23,402.56,405.58,404.35,406.2Z" transform="translate(-148.06 -81.13)"/><path class="cls-22" d="M391.3,399.6c1.84-.5,3.11-.77,4.56-1.22C400.16,405.2,391.72,408.43,391.3,399.6Z" transform="translate(-148.06 -81.13)"/><path class="cls-22" d="M396.33,395.45c-.06.3-.13.57-.2.82-.39,1.06-.26,1-.65,1.19-1.5.29-3,.61-4.5.94a5.78,5.78,0,0,1-1.41-2.62A32.72,32.72,0,0,1,396.33,395.45Z" transform="translate(-148.06 -81.13)"/><path class="cls-22" d="M407.47,398.32c-.35,2.25-1.5,5.91-2.72,6.7-1.48-.42-3-.84-4.42-1.22-.38-.22-.26-.15-.59-1.24a15.9,15.9,0,0,1-.06-5.89c.06-.28.13-.54.2-.8A31.08,31.08,0,0,1,407,398.1Z" transform="translate(-148.06 -81.13)"/><path class="cls-22" d="M426.32,435.63c1.31-.75,2.38-1.5,4-2.49C436.48,439.48,428.35,443.43,426.32,435.63Zm-1.17-10.94c-2.05-1.68-5-3.62-7-.47-.81,1.61-.22,3.84,1.86,6.47a15.84,15.84,0,0,0,4.59,3.69c1,.44.91.49,1.32.33,1.23-.9,2.49-1.76,3.76-2.64C429.87,430.23,426.4,425.51,425.15,424.69Zm-7.72,8.48a15.85,15.85,0,0,0-4.26-4.07c-2.88-1.72-5.16-2-6.65-1-2.86,2.43-.56,5.07,1.37,6.89,1,1.13,6.1,4,7.91,3.53.71-1.38,1.4-2.73,2.13-4.07C418,434,418,434.15,417.43,433.17Zm-.5,5.85c7.08,5.29,10-3.28,2-4.29C418.31,436.13,417.71,437.28,416.93,439Z" transform="translate(-148.06 -81.13)"/><path class="cls-5" d="M397.79,364.25c1.51-.08,2.8-.26,4.69-.42C405.11,372.28,396.07,372.13,397.79,364.25Zm3.9-10.29c-1.07-2.42-2.8-5.47-6-3.59-1.45,1.07-1.93,3.32-1.26,6.61a15.84,15.84,0,0,0,2.42,5.37c.73.87.59.85,1,.9,1.51-.24,3-.45,4.55-.65C403.39,361,402.43,355.26,401.69,354ZM391,358a15.85,15.85,0,0,0-2-5.56c-1.79-2.84-3.69-4.13-5.48-3.91-3.65.88-2.79,4.27-1.89,6.77.36,1.45,3.65,6.29,5.46,6.73,1.25-.91,2.48-1.8,3.74-2.67C391.13,359.06,391,359.17,391,358Zm-3.09,5c3.93,7.92,10.36,1.57,3.68-2.94C390.42,361.08,389.36,361.84,387.88,363Z" transform="translate(-148.06 -81.13)"/><path class="cls-5" d="M375,327.93c1.29-.94,2.33-1.85,3.92-3.09C386.1,330.8,378,335.91,375,327.93Zm-2.51-11.38c-2.35-1.53-5.65-3.23-7.43.32-.66,1.79.21,4.06,2.71,6.59a16.78,16.78,0,0,0,5.26,3.36c1.15.34,1,.41,1.43.2,1.2-1.09,2.41-2.14,3.65-3.21C378.06,321.83,373.86,317.27,372.45,316.55Zm-7.14,9.82a16.79,16.79,0,0,0-5-3.79c-3.23-1.48-5.67-1.52-7.12-.29-2.73,2.89,0,5.41,2.24,7.09,1.16,1.08,6.88,3.46,8.74,2.8.58-1.53,1.16-3,1.77-4.53C366,327.19,366,327.34,365.31,326.37Zm.15,6.21c8.07,4.75,10.1-4.61,1.56-4.74C366.58,329.39,366.09,330.67,365.47,332.59Z" transform="translate(-148.06 -81.13)"/><path class="cls-5" d="M335.28,316.67c.88-1.34,1.53-2.55,2.58-4.27C346.72,315.43,340.94,323.06,335.28,316.67Zm-6.35-9.76c-2.74-.6-6.43-1-6.84,2.92,0,1.91,1.63,3.73,4.86,5.21a16.78,16.78,0,0,0,6.11,1.29c1.2-.08,1.1,0,1.41-.32.74-1.44,1.5-2.85,2.29-4.29C336,309.86,330.5,307.08,328.93,306.9Zm-3.22,11.71a16.79,16.79,0,0,0-6-1.81c-3.54-.25-5.84.57-6.77,2.24-1.53,3.67,1.91,5.06,4.6,5.85,1.47.6,7.66.82,9.16-.46,0-1.64,0-3.25.06-4.86C326.68,319.11,326.72,319.26,325.71,318.61Zm2.33,5.76c9.23,1.6,7.83-7.87-.21-5C328,321,327.95,322.36,328,324.37Z" transform="translate(-148.06 -81.13)"/><path class="cls-5" d="M304.09,297.17c1.56-.38,2.86-.82,4.8-1.36C313.3,304.07,303.87,305.7,304.09,297.17Zm2-11.47c-1.6-2.31-4-5.14-7-2.53-1.29,1.4-1.35,3.84,0,7.13a16.78,16.78,0,0,0,3.59,5.11c.93.76.79.77,1.25.73,1.52-.55,3-1.06,4.6-1.58C309.28,292.71,307.14,286.9,306.11,285.69Zm-10.34,6.36a16.79,16.79,0,0,0-3.13-5.39c-2.42-2.6-4.66-3.57-6.47-3-3.62,1.64-2.06,5-.63,7.41.66,1.44,5,5.82,7,5.91,1.12-1.19,2.23-2.37,3.36-3.52C296.13,293.09,296.06,293.22,295.77,292.06Zm-2.22,5.8c5.66,7.47,11.09-.42,3.25-3.79C295.79,295.33,294.84,296.33,293.54,297.86Z" transform="translate(-148.06 -81.13)"/><path class="cls-5" d="M295.88,265.58c1.58.24,3,.32,5,.56C301.79,275.46,292.44,273.4,295.88,265.58Zm6.21-9.86c-.6-2.74-1.75-6.27-5.51-5-1.73.81-2.7,3-2.7,6.59a16.78,16.78,0,0,0,1.38,6.08c.58,1.05.44,1,.88,1.15,1.61.07,3.22.17,4.86.28C302.37,263.42,302.59,257.23,302.09,255.73Zm-12,2a16.79,16.79,0,0,0-.86-6.18c-1.26-3.32-3-5.07-4.86-5.21-4,.14-3.8,3.85-3.39,6.62.07,1.58,2.46,7.3,4.25,8.13,1.49-.68,3-1.35,4.44-2C290.06,258.79,289.94,258.89,290.11,257.7Zm-4.26,4.53c2.41,9.05,10.42,3.82,4.44-2.28C288.9,260.73,287.64,261.3,285.86,262.23Z" transform="translate(-148.06 -81.13)"/><path class="cls-5" d="M292.14,224.45l-.56.06c-.45-.08-.31-.05-1-1a17.18,17.18,0,0,1-1.81-3.91c.33.54.69,1.07,1.05,1.6C290.51,222.27,291.3,223.36,292.14,224.45Z" transform="translate(-148.06 -81.13)"/><path class="cls-22" d="M296.64,229.7c-1.21,4.16-6.92,2.43-5.15-4.14.51,0,1,0,1.49,0C294.11,226.94,295.34,228.34,296.64,229.7Z" transform="translate(-148.06 -81.13)"/><path class="cls-22" d="M281.07,223.76c1.63-1.19,2.78-1.94,4-2.92C292,226,284.82,232.34,281.07,223.76Z" transform="translate(-148.06 -81.13)"/><path class="cls-22" d="M284.39,220.07c-1.37.85-2.72,1.73-4.09,2.63-1.9-.56-5.13-5.85-5.43-7.4-.82-2.68-1.56-6.32,2.35-7.06,1.9-.15,3.85,1.32,5.59,4.42a16.84,16.84,0,0,1,1.79,6C284.61,219.84,284.71,219.73,284.39,220.07Z" transform="translate(-148.06 -81.13)"/><path class="cls-22" d="M296.64,229.7c-1.3-1.36-2.53-2.76-3.66-4.18,1.05,0,2.12-.11,3.49-.16A8.49,8.49,0,0,1,296.64,229.7Z" transform="translate(-148.06 -81.13)"/><path class="cls-22" d="M296.43,224c-1.45.12-2.87.25-4.29.4-.84-1.09-1.63-2.18-2.36-3.25-.36-.53-.72-1.06-1.05-1.6a11.43,11.43,0,0,1-.47-1.9c-.54-3.51.09-5.87,1.67-6.93,3.53-1.82,5.2,1.49,6.21,4.11C296.86,216.29,297.58,222.44,296.43,224Z" transform="translate(-148.06 -81.13)"/><path class="cls-22" d="M287.84,184.4c1.56-.35,2.88-.77,4.82-1.28C296.94,191.46,287.47,192.94,287.84,184.4ZM290.06,173c-1.55-2.33-3.9-5.21-7-2.65-1.32,1.38-1.42,3.82-.13,7.13a16.78,16.78,0,0,0,3.5,5.17c.92.77.77.78,1.23.75,1.53-.52,3.06-1,4.63-1.5C293.11,180,291.07,174.19,290.06,173Zm-10.45,6.18a16.79,16.79,0,0,0-3-5.45c-2.38-2.64-4.6-3.65-6.42-3.09-3.65,1.57-2.14,5-.76,7.4.64,1.45,4.94,5.91,6.91,6,1.14-1.17,2.27-2.33,3.42-3.46C280,180.19,279.88,180.32,279.61,179.15Zm-2.32,5.76c5.53,7.56,11.1-.22,3.31-3.73C279.58,182.42,278.61,183.4,277.29,184.91Z" transform="translate(-148.06 -81.13)"/><path class="cls-22" d="M271.89,153.85c1.37-.84,2.47-1.66,4.15-2.77C282.78,157.59,274.3,162,271.89,153.85Zm-1.6-11.54c-2.23-1.71-5.38-3.66-7.44-.26-.8,1.73-.11,4.07,2.18,6.78a16.78,16.78,0,0,0,5,3.76c1.12.43,1,.49,1.41.31,1.28-1,2.57-1.95,3.89-2.92C275.46,148,271.64,143.14,270.29,142.31Zm-7.89,9.23a16.79,16.79,0,0,0-4.64-4.17c-3.1-1.73-5.53-2-7.08-.85-2.95,2.67-.42,5.39,1.68,7.25,1.07,1.17,6.59,4,8.49,3.47.7-1.48,1.39-2.94,2.12-4.38C263.06,152.41,263,152.56,262.4,151.54Zm-.33,6.21c7.67,5.37,10.43-3.8,1.93-4.6C263.43,154.64,262.83,155.89,262.06,157.75Z" transform="translate(-148.06 -81.13)"/></svg>
