<svg xmlns="http://www.w3.org/2000/svg" xmlns:xlink="http://www.w3.org/1999/xlink" width="575" height="381" fill="none" xmlns:v="https://vecta.io/nano"><path d="M123.324 222.303c-26.858-26.437-38.202-54.018-31.942-77.661 8.033-30.341 43.72-51.319 97.91-57.556l.2 1.74c-53.436 6.149-88.578 26.656-96.416 56.263-6.092 23.009 5.087 49.988 31.477 75.965l-1.229 1.248zm259.133 93.846c-33.52 0-69.946-4.981-106.127-14.559-44.743-11.844-85.767-29.722-118.638-51.701l.974-1.455c32.712 21.872 73.555 39.668 118.112 51.463 40.266 10.659 80.834 15.598 117.304 14.295l.063 1.75c-3.851.138-7.747.207-11.688.207z" fill="#bfbcbc"/><path d="M459.356 305.134l-.561-1.659c29.98-10.136 48.731-26.463 54.226-47.218 6.985-26.384-8.191-57.002-42.732-86.212-34.718-29.359-84.781-53.72-140.971-68.594l.449-1.693c56.434 14.939 106.742 39.426 141.653 68.95 35.087 29.671 50.463 60.923 43.294 87.998-5.652 21.35-24.795 38.096-55.358 48.428z" fill="#ccc"/><path d="M184.077 316.881c-65.866-29.21-116.62-67.106-142.913-106.708l1.459-.969c26.111 39.328 76.599 76.999 142.163 106.076l-.709 1.601z" fill="#bfbcbc"/><path d="M415.654 367.484c-6.794 0-13.703-.152-20.729-.455l.075-1.75c52.431 2.27 98.692-4.004 133.79-18.147l.656 1.625c-30.618 12.336-69.642 18.727-113.792 18.727z" fill="#cacaca"/><path d="M377.438 88.657a623.15 623.15 0 0 0-33.281-9.808c-64.439-17.058-127.782-23.114-183.185-17.511l-.177-1.743c55.61-5.621 119.171.45 183.81 17.561a625.04 625.04 0 0 1 33.376 9.837l-.543 1.665zM82.16 224.93c-26.858-26.437-38.201-54.018-31.942-77.661 8.033-30.341 43.72-51.319 97.91-57.556l.2 1.74c-53.436 6.149-88.578 26.656-96.417 56.263-6.092 23.009 5.087 49.988 31.477 75.966l-1.229 1.247z" fill="#bfbcbc"/><path d="M341.293 318.776c-33.521 0-69.946-4.981-106.128-14.559-44.742-11.844-85.767-29.722-118.637-51.7l.973-1.456c32.713 21.872 73.555 39.668 118.113 51.463 40.266 10.659 80.834 15.598 117.303 14.295l.063 1.75a326.36 326.36 0 0 1-11.687.207z" fill="#cacaca"/><path d="M418.193 307.761l-.561-1.659c29.979-10.136 48.73-26.462 54.225-47.217 6.986-26.385-8.19-57.002-42.732-86.213-34.717-29.359-84.781-53.72-140.97-68.594l.448-1.693c56.435 14.939 106.742 39.426 141.653 68.95 35.087 29.671 50.463 60.923 43.295 87.998-5.653 21.35-24.796 38.096-55.358 48.428z" fill="#bfbcbc"/><path d="M142.913 319.508C77.047 290.298 26.293 252.402 0 212.8l1.459-.969c26.111 39.328 76.599 76.999 142.163 106.076l-.709 1.601z" fill="#b1c2d5"/><path d="M374.49 370.111c-6.794 0-13.703-.151-20.729-.455l.075-1.749c52.431 2.269 98.692-4.005 133.79-18.148l.655 1.625c-30.617 12.336-69.641 18.727-113.791 18.727zM336.274 91.284c-10.887-3.544-22.084-6.844-33.282-9.808-64.438-17.058-127.782-23.114-183.185-17.511l-.176-1.743c55.61-5.622 119.17.449 183.809 17.561a624.49 624.49 0 0 1 33.376 9.837l-.542 1.665z" fill="#bfbcbc"/><path d="M29.856 178.017c12.588-14.112 32.667-22.713 50.864-17.565-16.787 11.879-28.831 29.313-34.001 49.216-1.966 7.683-3.353 16.433-9.743 21.131-3.976 2.923-9.245 3.621-14.134 2.956s-9.514-2.568-14.075-4.452l-1.227.107c3.529-18.578 9.729-37.281 22.317-51.393z" fill="#b8d670"/><g fill="#fff"><path d="M80.664 160.845a74.48 74.48 0 0 0-39.057 23.958 32.06 32.06 0 0 0-5.408 8.469 18.39 18.39 0 0 0-1.086 9.619c.409 3.035 1.178 6.093.842 9.176-.196 1.575-.722 3.091-1.545 4.448a11.25 11.25 0 0 1-3.229 3.428c-3.195 2.334-7.039 3.379-10.833 4.272-4.212.99-8.603 1.953-12.037 4.752-.416.339-.918-.326-.503-.665 5.974-4.87 14.277-4.245 20.887-7.782 3.084-1.651 5.69-4.241 6.323-7.795.554-3.108-.237-6.262-.677-9.332-.538-3.159-.293-6.402.711-9.445a29.65 29.65 0 0 1 5.062-8.645 72.26 72.26 0 0 1 16.823-15.064c7.235-4.73 15.227-8.186 23.628-10.221.52-.126.615.702.098.827h0z"/><path d="M44.659 180.781a11.17 11.17 0 0 1-2.829-7.168c-.063-2.649.818-5.235 2.485-7.295.339-.416 1.001.091.661.508a10.34 10.34 0 0 0-2.313 6.79 10.35 10.35 0 0 0 2.66 6.663c.359.398-.308.899-.665.502h0zm-9.956 20.598a21.54 21.54 0 0 0 14.963-4.738c.417-.337.919.328.503.665a22.4 22.4 0 0 1-15.58 4.898c-.536-.037-.418-.862.115-.825zm29.658-34.78a6.33 6.33 0 0 0 2.154 2.222 6.32 6.32 0 0 0 2.95.934c.536.03.418.856-.115.826-1.155-.075-2.274-.431-3.26-1.037a7.07 7.07 0 0 1-2.394-2.443.43.43 0 0 1 .081-.583c.088-.067.199-.095.309-.08s.208.073.275.161h0z"/></g><path d="M106.55 219.036l-1.01-.022c-4.51-.104-9.021.159-13.489.787l-1.041.144c-10.747 1.626-21.098 5.232-30.529 10.637-3.751 2.153-7.332 4.59-10.713 7.287-4.669 3.725-9.435 8.135-14.901 10.045-.568.205-1.148.375-1.737.509L7.764 230.899c-.038-.069-.08-.132-.118-.201l-1.045-.654.503-.456c.095-.088.196-.172.291-.26.065-.058.131-.115.186-.171a1.02 1.02 0 0 1 .061-.051c.056-.056.113-.102.165-.152l2.934-2.564c7.542-6.459 15.675-12.34 24.441-16.799.264-.134.531-.274.807-.4 3.963-1.988 8.082-3.649 12.315-4.966 2.32-.714 4.676-1.31 7.056-1.786 6.154-1.217 12.461-1.458 18.69-.716 12.417 1.482 24.221 6.919 31.917 16.57l.581.743z" fill="#b8d670"/><g fill="#fff"><path d="M106.271 219.319a74.48 74.48 0 0 0-45.611-4.384c-3.304.666-6.482 1.849-9.417 3.505-2.807 1.706-5.106 4.132-6.659 7.027-1.502 2.67-2.728 5.575-4.853 7.833-1.105 1.14-2.438 2.034-3.912 2.622a11.25 11.25 0 0 1-4.642.793c-3.956-.06-7.655-1.539-11.221-3.11-3.96-1.745-8.045-3.621-12.472-3.453-.536.02-.537-.813-.001-.833 7.703-.292 13.955 5.205 21.363 6.36 3.457.539 7.096.04 9.742-2.417 2.314-2.148 3.581-5.142 5.078-7.859a19.63 19.63 0 0 1 6.255-7.113 29.65 29.65 0 0 1 9.247-3.854 72.28 72.28 0 0 1 22.502-1.901 75.81 75.81 0 0 1 25.02 6.064c.491.212.068.931-.42.72h0z"/><path d="M65.519 213.56a11.17 11.17 0 0 1 8.434-11.755c.521-.128.744.675.222.803a10.35 10.35 0 0 0-5.936 4.03c-1.434 2.008-2.104 4.463-1.887 6.921.046.535-.787.533-.833.001zm-20.351 10.453c4.1 3.541 9.385 5.407 14.799 5.225.536-.018.537.815.001.834-5.635.178-11.13-1.775-15.389-5.469-.406-.353.185-.941.589-.59h0zm44.622-9.916a6.32 6.32 0 0 0 .382 3.071 6.33 6.33 0 0 0 1.793 2.522c.41.347-.181.935-.589.59a7.08 7.08 0 0 1-1.979-2.79c-.422-1.077-.573-2.242-.441-3.392a.43.43 0 0 1 .417-.417c.11-.004.216.045.294.122a.42.42 0 0 1 .123.294h0z"/></g><path d="M523.087 293.702c-7.112-17.522-23.132-32.371-42.001-33.637a87.12 87.12 0 0 1 15.481 57.78c-.731 7.897-2.366 16.604 2.073 23.176 2.762 4.089 7.49 6.517 12.319 7.533s9.823.78 14.752.538l1.12.513c2.921-18.683 3.368-38.381-3.744-55.903z" fill="#b8d670"/><g fill="#fff"><path d="M481.007 260.454a74.47 74.47 0 0 1 28.732 35.69 32.07 32.07 0 0 1 2.247 9.794c.118 3.282-.645 6.536-2.21 9.424-1.406 2.722-3.158 5.343-3.878 8.359-.345 1.549-.359 3.154-.04 4.709s.962 3.025 1.889 4.314c2.225 3.271 5.493 5.548 8.766 7.663 3.635 2.349 7.447 4.731 9.74 8.522.278.459.974.001.697-.458-3.99-6.594-12.02-8.796-17.056-14.349-2.35-2.591-3.933-5.906-3.335-9.466.523-3.114 2.328-5.818 3.774-8.562a19.61 19.61 0 0 0 2.505-9.134c-.058-3.363-.687-6.692-1.862-9.844-2.531-7.138-6.169-13.833-10.78-19.841-5.225-6.886-11.59-12.828-18.818-17.567-.448-.294-.816.455-.371.746h0z"/><path d="M508.216 291.331c2.326-1.271 4.125-3.327 5.075-5.801a11.17 11.17 0 0 0 .111-7.706c-.179-.505-.973-.25-.793.256a10.35 10.35 0 0 1-.105 7.173c-.889 2.302-2.572 4.211-4.745 5.381-.472.255-.012.95.457.697h0zm2.454 22.745a21.54 21.54 0 0 1-12.5-9.491c-.28-.458-.976 0-.697.458a22.4 22.4 0 0 0 13.027 9.849c.518.145.684-.672.17-.816h0zm-16.242-42.724a6.33 6.33 0 0 1-2.776 1.369c-1.024.219-2.087.181-3.092-.112-.516-.152-.682.665-.17.816a7.09 7.09 0 0 0 3.419.119 7.08 7.08 0 0 0 3.076-1.496c.09-.062.152-.157.174-.264s.003-.219-.054-.313a.4.4 0 0 0-.264-.178.42.42 0 0 0-.313.059h0z"/></g><path d="M437.067 306.56l.96.318c4.282 1.419 8.442 3.182 12.439 5.274l.931.486c9.576 5.143 18.113 12.019 25.178 20.278 2.808 3.289 5.362 6.787 7.64 10.463 3.145 5.078 6.151 10.834 10.658 14.469a14.86 14.86 0 0 0 1.465 1.064l29.781-7.981c.059-.052.119-.097.178-.149l1.204-.265-.321-.598c-.06-.115-.126-.228-.186-.343-.042-.076-.085-.153-.118-.224a1.59 1.59 0 0 0-.041-.069c-.033-.071-.072-.133-.104-.198l-1.902-3.401c-4.931-8.618-10.615-16.89-17.373-24.036-.203-.215-.408-.437-.625-.648-3.064-3.204-6.385-6.153-9.929-8.816-1.946-1.452-3.964-2.805-6.046-4.053a59.83 59.83 0 0 0-17.362-6.955c-12.192-2.777-25.138-1.624-35.63 4.879l-.797.505z" fill="#b8d670"/><g fill="#fff"><path d="M437.235 306.92c15.619-1.028 31.166 2.89 44.431 11.199a32.11 32.11 0 0 1 7.691 6.467 18.4 18.4 0 0 1 3.909 8.856c.517 3.019.696 6.167 1.938 9.008.657 1.445 1.612 2.735 2.803 3.784s2.59 1.836 4.105 2.308c3.747 1.272 7.727 1.122 11.614.841 4.316-.313 8.795-.706 12.908.94.498.199.778-.586.281-.785-7.156-2.863-14.894.213-22.258-1.189-3.437-.654-6.697-2.347-8.363-5.55-1.457-2.801-1.645-6.047-2.142-9.108-.43-3.176-1.632-6.198-3.5-8.802-2.071-2.65-4.578-4.929-7.413-6.738-6.319-4.176-13.255-7.331-20.555-9.352a75.79 75.79 0 0 0-25.602-2.698c-.534.035-.377.854.153.819h0z"/><path d="M477.552 315.192a11.16 11.16 0 0 0 .559-7.686 11.17 11.17 0 0 0-4.55-6.219c-.448-.296-.928.386-.48.681a10.35 10.35 0 0 1 4.236 5.791c.676 2.373.481 4.91-.549 7.152-.223.488.562.766.785.281h-.001zm15.654 16.684a21.54 21.54 0 0 1-15.695-.052c-.499-.198-.779.587-.281.785a22.41 22.41 0 0 0 16.332.021c.5-.196.142-.948-.356-.754h0zm-38.693-24.334c-.228 1.022-.706 1.972-1.391 2.763a6.33 6.33 0 0 1-2.537 1.773c-.503.189-.143.942.356.754 1.08-.416 2.042-1.09 2.801-1.963a7.08 7.08 0 0 0 1.556-3.046.43.43 0 0 0-.021-.317c-.046-.099-.129-.176-.231-.216s-.218-.031-.318.016a.42.42 0 0 0-.215.235v.001z"/></g><use xlink:href="#B" fill="#fd6584"/><g fill="#e6e6e6"><use xlink:href="#B" x="24.819" y="-119.329"/><path d="M279.552 39.7a7.01 7.01 0 0 0 7.007-7.006 7.01 7.01 0 0 0-7.007-7.006 7.01 7.01 0 0 0-7.007 7.006 7.01 7.01 0 0 0 7.007 7.006z"/></g><path d="M132.724 301.447l.183 5.336.668 6.297c1.036 7.018 3.016 13.864 5.887 20.352l.44.969.22.484.228.477.301.624.381.77c.015.03.03.066.052.103l.33.653a1.25 1.25 0 0 0 .074.14l.389.756.433.8c.352.653.719 1.299 1.093 1.945l.338.572.315.529.221.359.359.587.822 1.299h.008c.125.199.257.397.389.588v.007l1.196 1.754c.33.477.668.932.998 1.387v.007l.654.866.543.712c.036.052.08.096.117.147v.007c.052.067.103.125.154.191.778.998 1.581 1.975 2.408 2.929l.132.154c.044.051.095.103.139.161.074.081.14.162.213.242.066.081.14.162.213.243a79.75 79.75 0 0 0 14.555 12.836c.712.492 1.439.969 2.165 1.431l.551.345c.051.037.11.074.161.11.103.059.198.118.301.184l.294.176c.389.242.785.477 1.182.712.095.059.198.117.301.176.095.051.198.11.3.169l.015.007v.008h.007a48.07 48.07 0 0 0 1.498.836l.829.441a52.39 52.39 0 0 0 1.909.99l.69.338.572.271c.059.03.11.052.162.081l.477.22.521.243.587.256c.734.331 1.475.646 2.217.947 2.656 1.089 5.371 2.03 8.132 2.819l.389.11c1.182.33 2.371.631 3.567.902a76.48 76.48 0 0 0 6.335 1.189h.014l.764.11c.022 0 .044.008.073.008l.852.11c.019.005.038.008.058.007.264.037.536.066.8.096l.859.088.661.066c.019.006.039.009.058.007l.595.051h.029l.514.045c2.048.161 4.103.234 6.188.234 2.253 0 4.492-.088 6.701-.279h.022l1.417-.132.366-.036c.023 0 .052-.008.074-.008.037-.007.073-.007.117-.014.02 0 .04-.002.059-.008.162-.014.323-.036.492-.051l.55-.066c.184-.022.367-.052.551-.074.044-.007.081-.007.125-.014.132-.015.264-.037.396-.059l.191-.022.389-.059h.007a77.53 77.53 0 0 0 11.891-2.678c.205-.067.411-.125.616-.191.008 0 .015-.008.022-.008.059-.022.125-.036.184-.058l1.637-.551c.748-.249 1.49-.521 2.231-.8l.594-.235a55.22 55.22 0 0 0 1.197-.477c.675-.271 1.35-.557 2.018-.851l1.857-.851c.015-.008.037-.008.052-.022l.411-.199h.007a78.69 78.69 0 0 0 9.755-5.57c.998-.668 1.981-1.358 2.95-2.07l2.305-1.769c3.766-2.995 7.252-6.326 10.415-9.952v-.007c.228-.25.441-.506.661-.763.037-.037.066-.074.095-.103l.411-.492v-.007c.184-.213.367-.433.544-.653l.117-.14v-.007c.147-.176.286-.352.433-.536l.213-.264v-.007l1.27-1.644.337-.455c.529-.712 1.043-1.439 1.542-2.166v-.007l.565-.822.55-.837.558-.873.022-.044c.184-.279.367-.572.543-.859l.419-.69.271-.469c.035-.05.067-.101.096-.154l.616-1.079c.243-.419.477-.844.712-1.27.088-.176.184-.352.279-.528.037-.059.066-.118.096-.177a16.96 16.96 0 0 0 .323-.631l.33-.631.315-.631.235-.484c.006-.014.013-.026.022-.037.037-.081.074-.154.103-.228.009-.011.016-.023.022-.036.081-.162.154-.331.235-.492l.301-.646.205-.455c.096-.213.199-.426.287-.646a18.43 18.43 0 0 0 .293-.668c.028-.055.052-.111.074-.169.051-.102.088-.205.132-.308l.345-.822a24.15 24.15 0 0 0 .374-.932c.118-.286.228-.58.338-.873l.044-.103a79.49 79.49 0 0 0 3.875-13.893v-.008a80.25 80.25 0 0 0 1.05-8.176c.007-.154.022-.301.029-.447a78.85 78.85 0 0 0 .191-5.593 92.26 92.26 0 0 0-.037-2.473 78.69 78.69 0 0 0-17.454-47.119l-.712-.88c-.242-.294-.492-.58-.734-.866-8.046-9.422-18.194-16.822-29.625-21.603a79.09 79.09 0 0 0-36.184-5.922 79.1 79.1 0 0 0-34.967 11.032c-10.63 6.366-19.616 15.14-26.233 25.615l-1.064 1.733c-.353.587-.69 1.174-1.028 1.768-6.649 11.819-10.133 25.155-10.114 38.715z" fill="#b1c2d5"/><g fill="#fff"><path d="M208.66 249.73a186.62 186.62 0 0 0 39.744 5.736c2.029.11 4.063.096 6.09-.042 4.454-.375 8.27-1.774 12.52-2.54 2.042-.366 4.318-.634 6.375-1.031l-1.452-1.747c-4.434.375-8.938 1.601-13.426 2.171-7.63.97-16.178-.112-21.962-2.782-2.806-1.295-4.955-2.912-7.751-4.214a3.62 3.62 0 0 0-1.217-.372c-.806-.025-1.603.182-2.295.595-4.692 2.368-11.503 4.293-17.825 3.234-.471.369.424.789 1.199.992zm-27.975 8.334l-.174-.029a4.7 4.7 0 0 0 .683-.515l-.509.544z"/><path d="M142.84 262.736l7.962.471a50.3 50.3 0 0 0 6.09-.041c4.454-.377 8.27-1.775 12.52-2.54 3.894-.7 8.627-1.037 11.1-2.591-6.392-1.106-13.013 1.146-19.603 1.984-5.331.655-10.735.388-15.975-.789-.73 1.147-1.428 2.316-2.094 3.506z"/></g><path d="M174.781 371.325l1.909.99.69.338.572.272.162.08.477.221.521.242.587.257 2.217.946c2.656 1.089 5.371 2.03 8.132 2.819l.389.11 3.567.902 6.335 1.189h.014l.764.11c.022 0 .044.008.073.008l.852.11c.019.006.038.008.058.007l.8.096.859.088.661.066c.019.006.039.009.058.007l.595.052h.029l.514.044 6.188.234 6.701-.278h.022l1.417-.133.367-.036c.022 0 .051-.008.073-.008.037-.007.073-.007.117-.014.02 0 .04-.002.059-.008l.492-.051.55-.066.551-.073c.044-.008.081-.008.125-.015l.396-.059.191-.022.389-.059h.007a77.53 77.53 0 0 0 11.891-2.678l.616-.191c-.947-4.42-2.898-8.562-5.702-12.108s-6.385-6.398-10.467-8.339c1.009-.962 1.707-2.205 2.003-3.567a6.82 6.82 0 0 0 .045-2.67 6.83 6.83 0 0 0-.984-2.483c-.953-1.462-2.447-2.486-4.155-2.847l-10.877-2.275a6.77 6.77 0 0 0-7.927 5.284 7.13 7.13 0 0 0-.147 1.629c-10.474 6.972-18.012 14.202-22.776 21.879z" fill="#009dff"/><path d="M206.9 338.237c12.516 0 22.662-10.146 22.662-22.661s-10.146-22.66-22.662-22.66-22.663 10.145-22.663 22.66 10.147 22.661 22.663 22.661z" fill="#ffb8b8"/><path d="M192.774 335.113c-2.416-1.651-4.884-4.823-6.532-7.2-2.183-3.125-3.685-6.674-4.409-10.416s-.653-7.596.207-11.309c.275-1.485.949-2.867 1.951-3.996 1.067-1.057 2.811-1.557 4.113-.811a7.44 7.44 0 0 1-.46-2.981c.052-1.015.312-2.008.763-2.919.915-1.818 2.242-3.398 3.875-4.615 3.122-2.404 6.837-3.918 10.75-4.381s7.88.141 11.477 1.75c1.416.656-.909-4.41.572-3.922a6.04 6.04 0 0 0 4.56-.08c1.393-.701 6.012 3.466 5.478 2.001 1.057.48 1.976 1.22 2.671 2.151a6.88 6.88 0 0 1 .91 6.579 6.89 6.89 0 0 1-1.987 2.795c-1.17.987-2.63 1.556-3.911 2.394-2.243 1.578-3.832 3.923-4.464 6.593s-.266 5.477 1.03 7.895c-1.347-.866-2.826-1.508-4.378-1.902a5.03 5.03 0 0 0-2.371-.004c-.779.187-1.503.558-2.11 1.081a5.67 5.67 0 0 0-1.126 1.993 5.64 5.64 0 0 0-.244 2.276c.051 1.537.417 3.052.458 4.59.12 4.514 2.537 13.094-.962 15.493-2.762 1.893-12.561-.801-15.861-3.055z" fill="#2f2e41"/><path d="M572.793 128.24l-.183 5.335-.668 6.297a78.67 78.67 0 0 1-5.887 20.352l-.44.969-.22.484-.228.477-.301.624-.381.771-.052.103-.33.653c-.021.048-.046.094-.073.139l-.389.756-.433.8-1.094 1.945-.338.573-.315.528-.221.36-.359.587-.822 1.299h-.008a14.54 14.54 0 0 1-.389.587v.007l-1.196 1.754-.998 1.388v.007l-.653.866-.544.712c-.036.051-.08.095-.117.147v.007l-.154.191-2.408 2.928-.132.154-.139.162-.213.242-.213.242a79.76 79.76 0 0 1-14.555 12.837l-2.165 1.431-.551.345-.161.11-.301.183a7.88 7.88 0 0 1-.294.176l-1.181.712-.301.177-.301.168-.015.008v.007h-.007a50.24 50.24 0 0 1-1.498.837l-.829.44-1.908.991-.69.337-.573.272-.161.081-.477.22-.522.242-.587.257a65.81 65.81 0 0 1-2.216.947c-2.657 1.089-5.372 2.03-8.133 2.818l-.389.11-3.567.903-6.335 1.189h-.014l-.764.11c-.022 0-.044.007-.073.007l-.851.11c-.019.006-.039.008-.059.008l-.8.095-.859.088-.66.066c-.019.007-.039.009-.059.008l-.595.051h-.029l-.514.044-6.187.235a77.88 77.88 0 0 1-6.702-.279h-.022l-1.416-.132-.367-.037c-.022 0-.052-.007-.074-.007-.036-.008-.073-.008-.117-.015-.02.001-.04-.002-.059-.007l-.492-.052-.55-.066-.551-.073-.124-.015-.397-.058-.191-.022-.389-.059h-.007a77.68 77.68 0 0 1-11.891-2.679l-.616-.191c-.007 0-.015-.007-.022-.007l-.184-.059-1.636-.55-2.232-.8-.594-.235-1.197-.477-2.018-.852-1.857-.851c-.015-.007-.037-.007-.051-.022l-.412-.198h-.007c-3.38-1.622-6.64-3.484-9.755-5.571a82.17 82.17 0 0 1-2.95-2.069l-2.305-1.769c-3.766-2.995-7.252-6.326-10.415-9.952v-.008c-.228-.249-.441-.506-.661-.763-.036-.036-.066-.073-.095-.103l-.411-.491v-.008a21.34 21.34 0 0 1-.543-.653l-.118-.139v-.008c-.147-.176-.286-.352-.433-.535l-.213-.265v-.007c-.433-.543-.851-1.086-1.27-1.644l-.337-.455c-.529-.712-1.042-1.438-1.542-2.165v-.007l-.565-.822-.55-.837-.558-.873-.022-.044a32.78 32.78 0 0 1-.543-.859l-.419-.69-.271-.47c-.035-.049-.066-.101-.096-.154l-.616-1.079-.712-1.269c-.088-.177-.184-.353-.279-.529-.037-.059-.066-.117-.095-.176-.111-.206-.221-.418-.323-.631l-.331-.631-.315-.632-.235-.484a.2.2 0 0 0-.022-.037c-.037-.08-.074-.154-.103-.227-.009-.011-.016-.024-.022-.037-.081-.161-.154-.33-.235-.492-.103-.212-.198-.433-.301-.645l-.205-.456c-.096-.212-.198-.425-.287-.645a20.11 20.11 0 0 1-.293-.668c-.028-.055-.052-.112-.074-.169-.051-.103-.088-.206-.132-.308l-.345-.822c-.132-.309-.257-.624-.374-.932-.117-.287-.227-.58-.338-.874l-.044-.103a79.49 79.49 0 0 1-3.875-13.893v-.007a80.32 80.32 0 0 1-1.05-8.176c-.007-.154-.022-.301-.029-.448-.132-1.857-.191-3.721-.191-5.592l.037-2.474a78.69 78.69 0 0 1 17.454-47.118l.712-.881.734-.866c8.046-9.422 18.194-16.822 29.625-21.603s23.826-6.809 36.185-5.922 24.336 4.667 34.966 11.032a79.08 79.08 0 0 1 26.233 25.615l1.064 1.732c.353.587.69 1.174 1.028 1.769a78.71 78.71 0 0 1 10.114 38.715h0z" fill="#d8e7f0"/><g fill="#fff"><path d="M496.856 76.522a186.56 186.56 0 0 1-39.744 5.736 49.78 49.78 0 0 1-6.089-.041c-4.455-.375-8.27-1.775-12.52-2.54-2.043-.367-4.318-.635-6.375-1.031a76.95 76.95 0 0 1 1.451-1.747c4.435.375 8.939 1.601 13.427 2.171 7.629.97 16.178-.112 21.961-2.782 2.806-1.295 4.956-2.912 7.752-4.214a3.61 3.61 0 0 1 1.217-.373 4.23 4.23 0 0 1 2.295.596c4.691 2.368 11.502 4.293 17.824 3.234.472.369-.424.789-1.199.992zm27.976 8.334l.173-.029a4.78 4.78 0 0 1-.683-.515l.51.543z"/><path d="M562.678 89.528l-7.963.471c-2.029.11-4.062.096-6.089-.041-4.455-.377-8.271-1.775-12.52-2.54-3.895-.7-8.627-1.037-11.1-2.591 6.391-1.106 13.013 1.146 19.603 1.984a46.81 46.81 0 0 0 15.974-.789c.73 1.148 1.428 2.316 2.095 3.506z"/></g><path d="M484.799 162.838c13.117 0 23.75-10.87 23.75-24.278s-10.633-24.278-23.75-24.278-23.751 10.869-23.751 24.278 10.633 24.278 23.751 24.278z" fill="#ffb6b6"/><path d="M530.736 198.117l-1.908.991-.69.338-.573.271-.161.081-.477.22-.521.242-.588.257-2.216.947c-2.657 1.089-5.372 2.03-8.133 2.818l-.389.11-3.567.903-6.334 1.189h-.015l-.763.11c-.022 0-.044.007-.074.007l-.851.11c-.019.006-.039.009-.059.008l-.8.095-.859.088-.66.066c-.019.007-.039.009-.059.008l-.595.051h-.029l-.514.044-6.187.235a77.88 77.88 0 0 1-6.702-.279h-.022l-1.416-.132-.367-.037c-.022 0-.052-.007-.074-.007-.036-.007-.073-.007-.117-.015-.02.001-.04-.002-.059-.007l-.492-.052-.55-.066-.551-.073-.124-.015-.397-.058-.19-.022-.389-.059h-.008c-4.027-.58-8.003-1.476-11.89-2.679l-.617-.191c.948-4.419 2.899-8.562 5.703-12.107a29.49 29.49 0 0 1 10.467-8.34c-1.01-.962-1.708-2.204-2.004-3.567a6.8 6.8 0 0 1 .94-5.152 6.58 6.58 0 0 1 4.154-2.848l10.878-2.275a6.77 6.77 0 0 1 5.05 1.012c1.484.989 2.518 2.525 2.877 4.272a7.14 7.14 0 0 1 .146 1.63c10.474 6.972 18.013 14.201 22.776 21.878z" fill="#009dff"/><path d="M548.354 128.031c-4.038-4.708-5.957-10.954-9.184-16.299s-8.844-10.131-14.777-8.887c-4.09.858-7.251 4.467-8.851 8.49s-1.9 8.461-2.181 12.808c.099-8.933-5.786-17.593-13.894-20.443s-17.81.329-22.904 7.505c-2.223-2.06-5.125-3.233-8.156-3.297s-5.979.987-8.286 2.952c-4.557 4.072-5.566 11.824-2.214 17.018s10.608 7.129 15.934 4.249l1.883 1.731c-1.06 3.707.995 8.085 4.45 9.48 2.802 1.132 6.757.944 7.805 3.883.733 2.054-.636 4.247-2.093 5.825s-3.186 3.209-3.361 5.393c-.264 3.296 3.142 5.604 6.238 6.3 7.466 1.676 15.75-1.781 20.053-8.369.083-.127.173-.254.27-.381a28.83 28.83 0 0 0 5.171-10.424 28.82 28.82 0 0 0 .628-11.619c-.242-1.523.002-2.655 1.052-3.016 4.538-1.558 17.252 1.713 21.099 4.669s6.93 6.87 10.636 10.017 8.429 5.575 13.135 4.718c3.769-.686 6.976-3.422 9.133-6.723s3.397-7.147 4.509-10.97c-8.334 4.814-19.741 2.799-26.095-4.61z" fill="#2f2e41"/><path d="M60.793 79.066l.184 5.336.668 6.297c1.036 7.018 3.016 13.864 5.887 20.352l.44.969.22.484c.073.162.154.323.228.477l.301.624.382.771c.015.029.029.066.051.102l.33.654a1.36 1.36 0 0 0 .073.139l.389.756.433.8a73.14 73.14 0 0 0 1.094 1.945l.338.572.316.529.22.359c.117.199.235.389.36.587l.822 1.3h.007c.125.198.257.396.389.587v.007l1.196 1.754c.33.477.668.932.998 1.387v.008l.653.866.543.712c.037.051.081.095.117.146v.008c.051.066.103.124.154.19.778.999 1.581 1.975 2.408 2.929l.132.154c.044.051.095.103.139.161.073.081.139.162.213.243.066.08.139.161.213.242 4.311 4.855 9.199 9.166 14.555 12.836.712.492 1.439.969 2.165 1.431l.55.345c.051.037.11.074.162.11.103.059.198.118.301.184l.294.176c.389.242.785.477 1.182.712.095.059.198.117.301.176l.301.169.014.007v.008h.008c.492.286.991.565 1.497.836l.83.441c.631.345 1.269.675 1.908.99l.69.338.572.272c.059.029.11.051.162.08l.477.221.521.242.587.257c.734.33 1.476.645 2.217.946 2.657 1.089 5.372 2.03 8.132 2.819l.389.11c1.182.33 2.371.631 3.568.903a76.87 76.87 0 0 0 6.334 1.188h.015l.763.111c.022 0 .044.007.073.007l.852.11c.019.006.039.008.059.007.264.037.535.066.8.096l.858.088.661.066c.019.006.039.009.059.007l.594.052h.03l.513.044c2.048.161 4.103.234 6.188.234 2.253 0 4.492-.088 6.701-.278h.022l1.417-.133.367-.036c.022 0 .051-.008.073-.008.037-.007.074-.007.118-.014.019.001.039-.002.058-.008.162-.014.323-.036.492-.051l.551-.066.55-.073c.044-.008.081-.008.125-.015a7.72 7.72 0 0 0 .396-.059l.191-.022c.132-.022.257-.036.389-.058h.007a77.65 77.65 0 0 0 11.891-2.679l.617-.191c.007 0 .014-.008.022-.008.058-.022.124-.036.183-.058a59.31 59.31 0 0 0 1.637-.551c.749-.249 1.49-.521 2.231-.8l.595-.235 1.196-.477a66.92 66.92 0 0 0 2.019-.851l1.857-.851c.014-.008.036-.008.051-.022l.411-.198h.007a78.75 78.75 0 0 0 9.755-5.571c.998-.668 1.982-1.358 2.951-2.07.778-.579 1.541-1.167 2.304-1.768a79.56 79.56 0 0 0 10.416-9.953v-.007c.227-.249.44-.506.66-.763.037-.037.066-.074.096-.103l.411-.492v-.007a24.39 24.39 0 0 0 .543-.653l.117-.14v-.007c.147-.176.287-.352.433-.536.074-.088.14-.176.213-.264v-.007a70.42 70.42 0 0 0 1.27-1.644l.338-.455a74.16 74.16 0 0 0 1.541-2.165v-.008l.565-.822.551-.836.558-.874.022-.044a33.78 33.78 0 0 0 .543-.859l.418-.689.272-.47c.034-.05.066-.101.095-.154l.617-1.079.712-1.27c.088-.176.183-.352.279-.528.036-.059.066-.118.095-.176a17.83 17.83 0 0 0 .323-.632l.33-.631.316-.631.235-.484c.005-.014.013-.026.022-.037.036-.081.073-.154.102-.228.009-.011.017-.023.022-.036.081-.162.155-.331.235-.492l.301-.646.206-.455c.095-.213.198-.426.286-.646a18.44 18.44 0 0 0 .294-.668c.027-.055.052-.111.073-.168.051-.103.088-.206.132-.309l.345-.822a24.15 24.15 0 0 0 .374-.932c.118-.286.228-.58.338-.873l.044-.103a79.58 79.58 0 0 0 3.876-13.893v-.007c.489-2.706.84-5.434 1.049-8.176l.03-.448c.132-1.857.19-3.721.19-5.593l-.036-2.473a78.69 78.69 0 0 0-17.455-47.118l-.711-.881-.734-.866c-8.047-9.422-18.194-16.822-29.625-21.603S146.558-.684 134.199.203 109.863 4.87 99.232 11.236s-19.616 15.14-26.233 25.615l-1.064 1.732-1.028 1.769a78.73 78.73 0 0 0-10.114 38.715h0z" fill="#bac6de"/><g fill="#fff"><path d="M136.73 27.349a186.56 186.56 0 0 0 39.744 5.736 49.78 49.78 0 0 0 6.089-.041c4.455-.375 8.27-1.775 12.52-2.54 2.043-.367 4.318-.635 6.375-1.031l-1.451-1.747c-4.435.375-8.939 1.601-13.427 2.171-7.629.97-16.178-.112-21.961-2.782-2.806-1.296-4.956-2.912-7.752-4.214a3.61 3.61 0 0 0-1.217-.373 4.23 4.23 0 0 0-2.295.596c-4.691 2.368-11.502 4.293-17.824 3.234-.472.369.424.789 1.199.992zm-27.976 8.334l-.173-.029a4.78 4.78 0 0 0 .683-.515l-.51.543z"/><path d="M70.909 40.355l7.963.471a50.17 50.17 0 0 0 6.089-.041c4.455-.377 8.27-1.775 12.52-2.54 3.895-.7 8.628-1.037 11.1-2.591-6.391-1.106-13.012 1.146-19.603 1.984-5.331.655-10.734.389-15.975-.789-.73 1.148-1.428 2.316-2.094 3.506z"/></g><path d="M102.851 148.944l1.908.991.69.337.572.272.162.08.477.221.521.242.587.257 2.217.946c2.657 1.089 5.372 2.03 8.133 2.819l.389.11 3.567.903 6.334 1.189h.015l.763.11c.022 0 .044.007.074.007l.851.11c.019.006.039.008.059.007l.8.096.858.088.661.066c.019.006.039.009.059.007l.594.052h.03l.513.044 6.188.235 6.701-.279h.022l1.417-.132.367-.037c.022 0 .051-.007.073-.007.037-.008.074-.008.118-.015.02.001.039-.002.058-.007l.492-.052.551-.066.55-.073c.044-.008.081-.008.125-.015l.396-.059.191-.022.389-.058h.008c4.027-.58 8.003-1.476 11.89-2.679l.617-.191a29.48 29.48 0 0 0-5.703-12.107c-2.804-3.546-6.385-6.399-10.467-8.34a6.97 6.97 0 0 0 2.004-3.567c.19-.879.205-1.786.044-2.67a6.8 6.8 0 0 0-.984-2.482 6.58 6.58 0 0 0-4.154-2.848l-10.878-2.275c-1.751-.342-3.566.022-5.05 1.012s-2.519 2.524-2.877 4.272c-.111.536-.16 1.082-.147 1.629-10.474 6.973-18.012 14.202-22.775 21.879z" fill="#009dff"/><path d="M145.883 112.81c14.623 0 26.477-11.854 26.477-26.475s-11.854-26.475-26.477-26.475-26.477 11.853-26.477 26.475 11.854 26.475 26.477 26.475z" fill="#9e616a"/><path d="M142.12 111.395c-6.628 1.79-13.936-.59-19.109-5.105s-8.409-10.911-10.273-17.519c-1.366-4.839-2.013-10.211.142-14.754s7.954-7.608 12.428-5.313c-2.76-3.216-1.381-8.534 1.843-11.285s7.65-3.539 11.866-3.97c6.118-.626 12.438-.696 18.261 1.286s11.112 6.315 12.934 12.189a9.28 9.28 0 0 0 5.959.639c2.003-.452 3.799-1.555 5.107-3.137a8.41 8.41 0 0 1-.771 5.342c-.837 1.647-2.194 2.973-3.86 3.772l8.92-2.892c1.535 3.247-1.154 7.266-4.591 8.306s-7.149-.097-10.411-1.599-6.424-3.402-9.967-3.987-7.706.552-9.345 3.748c-.858 1.674-.903 3.634-1.401 5.448s-1.761 3.694-3.637 3.843c-1.184.094-2.344-.537-3.526-.408-.725.143-1.393.494-1.921 1.01a3.8 3.8 0 0 0-1.055 1.897 11.16 11.16 0 0 0-.01 4.389l2.266 17.319.151.783z" fill="#2f2e41"/><defs ><path id="B" d="M385.111 353.365a7.01 7.01 0 0 0 7.006-7.006 7.01 7.01 0 0 0-7.006-7.006 7.01 7.01 0 0 0-7.007 7.006 7.01 7.01 0 0 0 7.007 7.006z"/></defs></svg>