<svg id="Layer_1" data-name="Layer 1" xmlns="http://www.w3.org/2000/svg" viewBox="0 0 531.98 623.09"><defs><style>.cls-1{fill:#f9c8d7;}.cls-2{fill:#fbd9e5;}.cls-3{fill:none;stroke:#fff;stroke-miterlimit:10;}.cls-4{fill:#393863;}.cls-5{fill:#e48868;}.cls-6{fill:#df687a;}.cls-7{fill:#d15d73;}.cls-8{fill:#ffc62a;}.cls-9{fill:#f58a69;}.cls-10{fill:#383563;}.cls-11{fill:#eeb32b;}.cls-12{fill:#46478f;}.cls-13{fill:#c5546a;}</style></defs><title>Valentine</title><path class="cls-1" d="M625.33,586.31c-2.8-1.38-4.36-1.91-5.64-2.83C582.39,556.84,545,530.33,507.9,503.42c-29.72-21.56-58.09-44.77-83.84-71.05-19.32-19.72-36.78-40.92-50.91-64.68-26-43.65-40.06-90.47-37.4-141.71a158.17,158.17,0,0,1,9.79-47.31,99.54,99.54,0,0,1,16.64-29.44c19.1-22.84,43.69-32.48,73.19-29.65,23.06,2.21,43.73,11.11,63.19,23.19,21.25,13.19,39.52,29.91,56.51,48.1a358.12,358.12,0,0,1,42.13,55.23c2.83,4.55,5.7,9.07,9.23,14.7,2.69-3.68,5-6.41,6.86-9.44,11.2-18.42,21.81-37.22,33.54-55.29a221.65,221.65,0,0,1,47.36-52.78c18.36-14.7,38.57-25.6,61.82-30.36a99.35,99.35,0,0,1,38.59-.45c24.85,4.7,43.31,18.53,55.33,40.76,10.43,19.28,15.73,40.05,17.09,61.86,1.76,28.35-2.42,55.9-11.44,82.78-7.41,22.08-17.49,42.9-29.28,62.93a563.72,563.72,0,0,1-72,97.42c-19.4,21-39.49,41.33-59.72,61.51C674,540.3,652.85,560.32,631.9,580.56,630,582.41,627.88,584.08,625.33,586.31Z" transform="translate(-335.43 -110.8)"/><path class="cls-2" d="M607.91,324.37c.58-2.58,1.29-5.13,1.72-7.74,1.89-11.46,4.27-22.79,8.25-33.73-9.35,25.74-13.39,11.58,11.87-22.84a64.28,64.28,0,0,1,26.57-21.45c18-7.6,34.58-4.88,49.35,8.34,9.77,8.74,16.1,20.09,20.59,32.59a118.29,118.29,0,0,1,6.66,33c1.77,30-5.37,58.18-18.93,85a203.34,203.34,0,0,1-25.37,38.06,320.92,320.92,0,0,1-33.36,34.51c-19.35,17.26-38.95,34.25-58.46,51.33a20.2,20.2,0,0,1-2.76,1.7,32.84,32.84,0,0,1-3.2-2.46c-16.59-16.23-33.27-32.35-49.67-48.77a321.38,321.38,0,0,1-35.11-41.29c-28.16-39.79-39.51-84.15-35.74-132.51,1.1-14.12,5-27.5,13.08-39.38,7-10.33,16.46-17.32,28.8-19.68a60.41,60.41,0,0,1,26.4.78A69.71,69.71,0,0,1,571.94,259a97.07,97.07,0,0,1,19.23,27.58c4.54,9.9,8.31,20.15,12.35,30.28,1,2.5,1.75,5.09,2.61,7.64Z" transform="translate(-335.43 -110.8)"/><path class="cls-3" d="M633.54,391.15" transform="translate(-335.43 -110.8)"/><path class="cls-3" d="M634,390.71" transform="translate(-335.43 -110.8)"/><path class="cls-4" d="M634.66,390.76c2.4-1.13,4.7-2.08,6.53-4.07,1.33-1.44,2.81-3.61,2.54-5.69-.33-2.46-8.35.21-8.7.33,1-1,5-4,5-4a9.08,9.08,0,0,0,.34-7.58c-1.24-3.14-3.73-4.42-6.52-5.9-2.63-1.4-5.13-2.77-8.13-2.84a27.78,27.78,0,0,1-9.14-1.93c-1-.38-2.91-.77-3.51-1.78-.41-.69.07-1.12.4-1.68a2.1,2.1,0,0,0,.45-1.94,13,13,0,0,1-.12-3.54c.5-3.59,3.17-5.78,6.63-6.47,0,0,5.69-3.18,13.4,0a4.09,4.09,0,0,1,5.27-2.73,7.34,7.34,0,0,1,3.95,2.72c1.8,2.36,5.74,7,10.06,8.85a10.31,10.31,0,0,1,4.64,3.73c2.46,3.68,5.18,11,2.71,24.29a32,32,0,0,0-.06,12.47c.73,3.28,2.84,5.22,4.57,8a26.73,26.73,0,0,1,3.85,10.8,10.78,10.78,0,0,1-3.1,9,27.42,27.42,0,0,0-2.88,3.37c-2,3.09-1.29,7.52-.84,11s1.53,7.77,5,9.29a8.16,8.16,0,0,1,2.87,2c3,3.35,8.9,11.46,5.31,19.66-4.69,10.72-9,6.7-12.9,6.2s-5.19-4.86-15.41,5-15.24,6-15.24,6a6.07,6.07,0,0,1-1.88-1.46,8.41,8.41,0,0,1-1.92-3.94,15.62,15.62,0,0,1,.54-7.35,34.07,34.07,0,0,1,2.25-5.8A16.74,16.74,0,0,1,634,460.2c.65-.63,1.32-1.17,1.91-1.85a12.45,12.45,0,0,0,2.76-4.85,8.86,8.86,0,0,0,.21-1,5.45,5.45,0,0,0-.77-3.75,17.3,17.3,0,0,0-2.81-2.84,12.63,12.63,0,0,1-3.69-7.59c-.37-3.15.77-6.18,1.11-9.29a25.56,25.56,0,0,0-.71-8.74c-.59-2.45-1.28-5.76-2.69-7.88,0,0-5.36-10.63-.17-17.16" transform="translate(-335.43 -110.8)"/><path class="cls-5" d="M634.85,390.71c-.52.17-.87.48-1.23.6l-4.46,3.92c-5.19,6.53.17,17.16.17,17.16.36.84.68,1.64,1,2.42a44.25,44.25,0,0,1,1.86,6.18c-.06-.28-.59-.64-.78-.8a19.66,19.66,0,0,0-2.91-2,90.56,90.56,0,0,0-16.7-7.26,29.22,29.22,0,0,1-3.15-1.1,7.38,7.38,0,0,1,1.2-1.34,18.15,18.15,0,0,0,1.83-2.47,10.11,10.11,0,0,0,1.32-3.14c.07-.33.29-3.31-.3-3.28-6.21.29-11.94-.54-17.08-4.45a3.59,3.59,0,0,1-1.25-1.41,5.22,5.22,0,0,1-.42-3.56,27.46,27.46,0,0,1,4.74-9.15c2.55-3.26,5.13-6.51,7.54-9.88s4.37-7,7.11-10.12a7.57,7.57,0,0,1,2.63-2.24,30.43,30.43,0,0,0,5.9,1.88,18.58,18.58,0,0,0,3.62.4l.69,0h.13a7.29,7.29,0,0,1,4.05,1h0l.51.29.5.28c.71.4,1.48.82,2.24,1.22l.81.42.79.4.38.19.58.27a7.2,7.2,0,0,1,3.32,3.07,13.75,13.75,0,0,1,1,2.11c0,.11.07.22.11.33s.13.44.19.66.06.26.09.4,0,.24.07.36a7.78,7.78,0,0,1-.88,5.31s-4,3-5,4c.35-.11,8.37-2.79,8.7-.33S641.22,388.53,634.85,390.71Z" transform="translate(-335.43 -110.8)"/><path class="cls-6" d="M632.17,462.06s11.72-9.55,4.19-15.24-4-15.24-4-15.24,1.39-3.52-.17-10.57h0c-.17-.25-3.16-4.37-23.61-11.19a43.63,43.63,0,0,0-20.14,3.3l4.66,2.2c4.65,2.2,8.07,3.87,8.86,4.25l.07,0,.1,0L614.18,426s5.38,15.19-17,22.78l-13.07-8a23.87,23.87,0,0,0,1.78-3c-3.67-.73-10-3.36-16.71-6.46a57.18,57.18,0,0,0-5.27,17.45,227.65,227.65,0,0,0,6.92,42.43s2,12.34-.33,23.9c0,0,25.82,2.92,46.42-4.73,1.47-.54,2.92-1.15,4.33-1.8,0,0,1.79-17.53,8.51-26.75" transform="translate(-335.43 -110.8)"/><path class="cls-7" d="M597.22,448.83l-13.07-8a23.87,23.87,0,0,0,1.78-3c2-3.68,5.09-11,7.14-22.54,4.65,2.2,8.07,3.87,8.86,4.25l.07,0,.1,0L614.18,426S619.56,441.24,597.22,448.83Z" transform="translate(-335.43 -110.8)"/><path class="cls-8" d="M462.81,499" transform="translate(-335.43 -110.8)"/><path class="cls-6" d="M680.23,613.32c-.9,9-15,14.67-23.45,17.28-3.72,1.14-6.37,1.7-6.37,1.7-4.83,7.82-12.75,10.68-19.5,11.57a42.71,42.71,0,0,1-12.46-.19c-4.67,5.5-13.34,7.69-20.79,8.52a77.71,77.71,0,0,1-13.51.3,15.79,15.79,0,0,1-9.57.6c-11.74-3.16-16.2-20.79-16.2-20.79-15.56,1.48-24.63-21.57-24.63-21.57l36.8-95.57,50.75-6.53Z" transform="translate(-335.43 -110.8)"/><path class="cls-5" d="M597.66,652.19l-9.48,64.19a11.36,11.36,0,0,1-13.61,0V653.09a15.79,15.79,0,0,0,9.57-.6A77.71,77.71,0,0,0,597.66,652.19Z" transform="translate(-335.43 -110.8)"/><path class="cls-4" d="M588.19,716.38,587,726.75c-24.51,9.72-36.18,0-36.18,0l23.74-10.37A11.36,11.36,0,0,0,588.19,716.38Z" transform="translate(-335.43 -110.8)"/><path class="cls-4" d="M668.56,709.9l-15.23,13.83s16.53,5.62,32.73-7.35l-5.83-12.32Z" transform="translate(-335.43 -110.8)"/><path class="cls-4" d="M631.61,438.3" transform="translate(-335.43 -110.8)"/><path class="cls-5" d="M680.23,704.07c-4.54,9.07-11.67,5.83-11.67,5.83l-37.65-66c6.75-.89,14.67-3.75,19.5-11.57,0,0,2.64-.56,6.37-1.7Z" transform="translate(-335.43 -110.8)"/><path class="cls-9" d="M574.61,353.65l-10.14,18.57a13.29,13.29,0,0,1-11-3.93L552,377.76l-.77,1.06-.29-.47L526.31,350.5l2.61-4c.93,1.67,2.59,3,5.52,1.37,0,0,3.83-3.06,5.17-6.8,0,0-9.37-14.92,1-19.7,0,0,3.35-.58,4,2.48s-.48,8.14-.48,8.14h5.55s-1.72-18,9.76-18.56c10.29-.51,19,2.5,26.32,1.83C588.89,325.67,574.61,353.65,574.61,353.65Z" transform="translate(-335.43 -110.8)"/><path class="cls-10" d="M597.1,309.47s-1.06,3.54-8.8,5.36a17.45,17.45,0,0,1-2.48.39c-7.29.67-16-2.34-26.32-1.83-11.48.57-9.76,18.56-9.76,18.56h-5.55s1.15-5.07.48-8.14-4-2.48-4-2.48c-10.42,4.78-1,19.7-1,19.7-1.34,3.73-5.17,6.8-5.17,6.8-2.93,1.61-4.59.3-5.52-1.37a10.75,10.75,0,0,1-1.08-3.51L529,315.39s-1.25-21,21.71-23,25.45,4,36.93,6S597.1,309.47,597.1,309.47Z" transform="translate(-335.43 -110.8)"/><path class="cls-8" d="M541,539.32a20,20,0,0,0,3.6-.74s8.23-60.46,5.93-87.82,4.21-55.29,4.4-56.44-3.93-16-3.93-16L526.31,350.5l-7.14,14.11a4.29,4.29,0,0,1-3,2.31c-3.78.68-9.69,3.11-11.7,5.56-2.46,3-18.38,32.38-20.92,37.08a9.85,9.85,0,0,0-.62,1.39c-1.46,4.12-8.41,24.9-12.16,58-4.21,37.12-5,43.81-4.4,43.81a16.07,16.07,0,0,1,2.4,2Z" transform="translate(-335.43 -110.8)"/><path class="cls-11" d="M539.6,450.84c-.47.26-.95.51-1.42.75-11.76,6-21.59,6.5-27.43,6a26.25,26.25,0,0,1-5.78-1.06c-3.25-10.33-5.93-49.36-5.93-49.36,25.64-30.23,45.34,3.25,45.34,3.25C537.31,414.59,539.6,450.84,539.6,450.84Z" transform="translate(-335.43 -110.8)"/><path class="cls-10" d="M519.51,537.16l-1.17,28.24v0c-1.21,2.14-2.22,7.68-3,14.56a0,0,0,0,0,0,0c-2.15,17.82-3.11,44.63-3.11,44.63-1.3,14.64-3.69,30.19-6.23,44.13-4.54,24.92-9.54,44.65-9.54,44.65-.77.22-1.49.4-2.17.53-4.49.88-7.13-.07-8.57-1a4.86,4.86,0,0,1-1.5-1.52c2-2-4.85-91.58-4.85-91.58-12-48.47-8.53-103.25-9-103.63,2.59,2.33,6.69,6.2,9.3,8.68a19.69,19.69,0,0,0,6,3.93,105.07,105.07,0,0,0,28.42,7.34l1.59.14a11.78,11.78,0,0,1,3,.64Z" transform="translate(-335.43 -110.8)"/><path class="cls-10" d="M531.5,623.46c-3.83,45.66-13,89.39-13,89.39a9.65,9.65,0,0,1-1.86.62,16.67,16.67,0,0,1-7.44-.24,24.83,24.83,0,0,1-4.48-1.52c-.77-15.55-.83-30.44-.41-44.4,2.54-13.94,4.93-29.49,6.23-44.13,0,0,1-26.81,3.11-44.63a0,0,0,0,1,0,0c.83-6.88,1.84-12.42,3-14.56v0l1.17-28.24c4.43,1.52,14.76,4.59,23.1,3.58C542.34,565.24,531.5,623.46,531.5,623.46Z" transform="translate(-335.43 -110.8)"/><path class="cls-10" d="M523.47,733.4c-14,2-39.44-2.93-39.44-2.93-1.3-1.66,0-12.5,0-12.5s3,2.55,8.57,0c2.77.67,8.3,3.29,13.94,6.19,6.76,3.49,13.66,7.38,16.06,8.73Z" transform="translate(-335.43 -110.8)"/><path class="cls-9" d="M492.6,712.5V718c-5.61,2.55-8.57,0-8.57,0v-6.52C485.46,712.43,488.1,713.38,492.6,712.5Z" transform="translate(-335.43 -110.8)"/><path class="cls-9" d="M516.64,713.47l-.7,5.63a7.7,7.7,0,0,1-7.39-.88v-4.79l.65-.2A16.67,16.67,0,0,0,516.64,713.47Z" transform="translate(-335.43 -110.8)"/><path class="cls-10" d="M542.22,731.62s-5,2.68-19.63,1.28c-2.4-1.35-9.3-5.24-16.06-8.73,0,0,.22-6.45,1.12-6.19a8.38,8.38,0,0,0,.9.17v.08a7.7,7.7,0,0,0,7.39.88S536.6,727.54,542.22,731.62Z" transform="translate(-335.43 -110.8)"/><path class="cls-11" d="M497.27,468.65a.59.59,0,0,1,1.14.17,91.89,91.89,0,0,0,25.7,55.34.6.6,0,0,1-.85.83,93.1,93.1,0,0,1-26-56.06.64.64,0,0,1,0-.29Z" transform="translate(-335.43 -110.8)"/><path class="cls-12" d="M488.1,552.39a.59.59,0,0,1-.15-1.17,10.17,10.17,0,0,0,6.39-5.91,31.69,31.69,0,0,0,2.16-9.06.61.61,0,0,1,.67-.51.6.6,0,0,1,.51.67,32.63,32.63,0,0,1-2.26,9.4,11.33,11.33,0,0,1-7.18,6.56l-.15,0Z" transform="translate(-335.43 -110.8)"/><path class="cls-8" d="M466.32,512.74s16.39,32.35,78.25,25.83Z" transform="translate(-335.43 -110.8)"/><path class="cls-5" d="M593.07,415.3c-2.05,11.58-5.19,18.85-7.14,22.54-3.67-.73-10-3.36-16.71-6.46-12.24-5.67-25.6-12.92-25.6-12.92-10.72-7.6-34.39-59.69-34.39-59.69-1.79-3,.45-12.23,3.57-15.35s13.85-4.92,13.85-4.92l-.89,18.32c-2.18,1.19-3.48,1.32-4.25,1.11a417.94,417.94,0,0,1,36.86,42.66c5,1.05,19.17,7.42,30.06,12.51Z" transform="translate(-335.43 -110.8)"/><path class="cls-13" d="M614.2,510c4.66-1.27,6.44-1.95,8-6.56,2.36-6.93,4.63-13.89,6.94-20.84.25-.76-1-1.09-1.21-.33l-4.53,13.59c-1.92,5.75-2.94,11.14-9.56,12.94a.63.63,0,0,0,.33,1.21Z" transform="translate(-335.43 -110.8)"/><path class="cls-13" d="M558.75,632.82c-.11-19.11,8.14-37.18,12.78-55.44q3.5-13.74,5.82-27.75c1.41-8.49,3.28-17.46,2.27-26.06-.09-.79-1.34-.8-1.25,0,1.14,9.72-1.17,19.89-2.87,29.46q-2.48,14-6.14,27.68c-4.58,17.18-12,34.07-11.87,52.11a.63.63,0,0,0,1.25,0Z" transform="translate(-335.43 -110.8)"/><path class="cls-13" d="M618,640.66l.43,2.66,1.21-.33c-8.05-19.26-7.49-40.24-10-60.61-2.43-19.76-9.63-37.94-17.33-56.15-.31-.74-1.39-.1-1.08.63,8.37,19.81,15.59,39.28,17.74,60.82,1.88,18.78,2.06,38,9.45,55.64a.63.63,0,0,0,1.21-.33l-.43-2.66c-.13-.79-1.33-.46-1.21.33Z" transform="translate(-335.43 -110.8)"/><path class="cls-13" d="M651.24,631.8c-9.52-15.09-16.7-31.4-23.43-47.88-7-17.07-13.84-34.19-20.76-51.29-.3-.74-1.51-.41-1.21.33,7.14,17.66,14.22,35.35,21.45,53,6.57,16,13.61,31.83,22.87,46.5.43.68,1.51.05,1.08-.63Z" transform="translate(-335.43 -110.8)"/><path class="cls-13" d="M587,651.3c-.82-10.64-4-20.62-3.51-31.41.54-11.19,1.69-22.33,2.16-33.53a658.78,658.78,0,0,0-.55-66.11c0-.8-1.3-.8-1.25,0a658.78,658.78,0,0,1,.55,66.11c-.46,10.87-1.51,21.68-2.11,32.54-.63,11.22,2.61,21.35,3.46,32.4.06.8,1.31.8,1.25,0Z" transform="translate(-335.43 -110.8)"/><path class="cls-13" d="M577.22,516.78c1.7,5.36,3.28,10.85,1.53,16.42-.24.77,1,1.1,1.21.33,1.82-5.79.25-11.48-1.53-17.08-.24-.76-1.45-.44-1.21.33Z" transform="translate(-335.43 -110.8)"/><path class="cls-13" d="M592.88,528.1a40.58,40.58,0,0,0-.9-6.75c-.17-.79-1.38-.45-1.21.33a38.56,38.56,0,0,1,.85,6.42c0,.8,1.29.81,1.25,0Z" transform="translate(-335.43 -110.8)"/><path class="cls-13" d="M679.93,612.57a314.89,314.89,0,0,1-35.73-53.09c-4.83-9.07-8.94-18.56-14.5-27.23-3-4.61-7.1-8.93-8.62-14.31-1.1-3.87-.93-7.82-2.8-11.47-.37-.72-1.45-.08-1.08.63,2.09,4.07,1.62,8.69,3.26,12.89,1.84,4.74,5.45,8.65,8.17,12.89,5.87,9.17,10.18,19.24,15.34,28.8a316.61,316.61,0,0,0,35.08,51.77c.51.62,1.39-.27.88-.88Z" transform="translate(-335.43 -110.8)"/><path class="cls-9" d="M623.78,539.51c-.57-.75-19.52-5.15-26.4-15.48,0,0-63.33-19.71-77.49-31.76l-.26-1-8.89-33.73c5.84.53,15.67,0,27.43-6l1.61,22.51s42.67,32.33,57.78,36.16c0,0,4,2.3,16.07,2.1,0,0,23,9,26.21,13S624.36,540.27,623.78,539.51Z" transform="translate(-335.43 -110.8)"/><path class="cls-12" d="M514.23,539.78l.13,15c0,2.49.19,5,0,7.51-.27,4.54-2,7.43-4.72,10.89-.2.25.16.61.35.35,3.33-4.25,4.82-7.72,4.87-13.14.06-6.86-.12-13.74-.18-20.6a.25.25,0,0,0-.5,0Z" transform="translate(-335.43 -110.8)"/><path class="cls-12" d="M518.42,540.16a62.46,62.46,0,0,1,.57,9.35,19.87,19.87,0,0,1-.22,4c-.6,2.34-2.28,3.09-3.65,4.57-.22.24.14.59.35.35,1.73-1.88,3.4-2.25,3.79-4.93a49.78,49.78,0,0,0-.35-13.36c0-.31-.54-.32-.5,0Z" transform="translate(-335.43 -110.8)"/></svg>