<svg id="Layer_2" data-name="Layer 2" xmlns="http://www.w3.org/2000/svg" viewBox="0 0 841.89 595.28"><defs><style>.cls-1,.cls-2{fill:#a1d7c1;}.cls-1{opacity:0.48;}.cls-2{opacity:0.69;}.cls-3{fill:#f58767;}.cls-4{fill:#423f70;}.cls-5{fill:#f15b56;}.cls-6{fill:#ea4646;}.cls-7{fill:#373563;}.cls-8{fill:#303056;}.cls-9{fill:#202021;}.cls-10{fill:#e8ecf7;}.cls-11{fill:#f4a592;}.cls-12{fill:#d6cebf;}.cls-13{fill:#d5cbb4;}.cls-14,.cls-21{fill:none;stroke-miterlimit:10;}.cls-14{stroke:#4a3a28;stroke-width:3px;}.cls-15{fill:#c1b9ae;}.cls-16{fill:#65b7e6;}.cls-17{fill:#464475;}.cls-18{fill:#ffc526;}.cls-19{fill:#50a7dd;}.cls-20{fill:#00a05d;}.cls-21{stroke:#00a05d;stroke-linecap:round;stroke-width:4px;}</style></defs><title>Buy_and_Sell</title><path class="cls-1" d="M682,323c-18.24,0-33-13.38-33-29.89,0-12,7.79-22.3,19-27.06-20.53-16.85-49.49-21.38-54.48-22.15-26.35-4.13-52,1.77-64.15,4.58-31.44,7.24-37.22,16.1-49,12.23-21.46-7.06-10.24-39.22-35.46-65.71-23.23-24.42-66.62-32.71-99.62-24.46-31.9,8-52.31,31-64.15,44.32-20.09,22.63-18,33.52-38.84,47.37-6.38,4.26-30,20-55.72,15.28-18.73-3.4-20.47-14.31-37.15-15.28-17.88-1-40,10.08-45.59,27.51-6.77,21.24,14.6,40.71,18.57,44.32,20.22,18.4,37.09,10.65,49,26,15.19,19.59-5.45,41.19,10.13,58.08A28.41,28.41,0,0,0,211,424.8a20.68,20.68,0,0,1-1.08-6.63c0-12.68,11.35-22.95,25.35-22.95s25.35,10.27,25.35,22.95a21.23,21.23,0,0,1-4,12.4c34.68.15,60.51-9.16,64.82-10.89,51-20.48,61.07-58.5,92.86-56.55,28.94,1.77,38.45,34.37,70.92,32.1,13.16-.93,16.41-6.62,30.39-12.23,48.15-19.32,83,18.83,121.56,6.11,25.67-8.47,46.78-37.41,51.24-66.66A35.73,35.73,0,0,1,682,323ZM220.08,359.69c-22.38,0-40.53-16.43-40.53-36.68s18.15-36.68,40.53-36.68S260.6,302.76,260.6,323,242.46,359.69,220.08,359.69Z"/><path class="cls-2" d="M749.07,269.57c-20.49-46.39-76.34-56.95-84.15-58.43-32-6.06-63.2,2.62-78,6.74-38.21,10.65-45.23,23.68-59.52,18-26.07-10.39-12.45-57.67-43.1-96.64-28.24-35.91-81-48.09-121.09-36-38.78,11.73-63.59,45.55-78,65.17-24.43,33.29-21.91,49.3-47.21,69.67-7.76,6.26-36.44,29.36-67.72,22.48-22.77-5-24.89-21-45.15-22.48-21.74-1.54-48.65,14.83-55.42,40.45-8.24,31.23,17.75,59.85,22.57,65.18,24.57,27.06,45.08,15.66,59.53,38.2,18.45,28.81-6.63,60.58,12.32,85.4,11.8,15.47,31.78,16.57,57.47,18,46.86,2.58,82.63-13,88.25-15.73,62-30.11,74.24-86,112.89-83.16,35.17,2.61,46.74,50.54,86.19,47.2,16-1.36,20-9.73,36.95-18,58.53-28.41,100.87,27.7,147.77,9C739.27,406.44,773.05,323.9,749.07,269.57Zm-60.7,52.87c-4.46,29.25-25.58,58.19-51.24,66.66-38.58,12.72-73.42-25.43-121.56-6.11-14,5.6-17.23,11.3-30.39,12.23-32.47,2.27-42-30.32-70.92-32.1-31.79-1.95-41.86,36.07-92.86,56.55-4.31,1.73-30.13,11-64.82,10.89-2.56,0-5.14-.07-7.79-.19-15.34-.7-28.2-1.28-37.8-5.57a28.41,28.41,0,0,1-9.48-6.65c-15.58-16.89,5.05-38.49-10.13-58.08-11.88-15.34-28.75-7.58-49-26-4-3.62-25.34-23.09-18.57-44.32,5.57-17.43,27.71-28.55,45.59-27.51,16.68,1,18.42,11.88,37.15,15.28,25.73,4.68,49.34-11,55.72-15.28,20.81-13.85,18.74-24.74,38.84-47.37,11.84-13.35,32.25-36.35,64.15-44.32,33-8.25,76.39,0,99.62,24.46,25.22,26.49,14,58.65,35.46,65.71,11.75,3.87,17.53-5,49-12.23,12.17-2.8,37.8-8.7,64.15-4.58,5,.77,34,5.3,54.48,22.15a58.52,58.52,0,0,1,14.75,17.58C689,295.32,690.44,308.92,688.37,322.44Z"/><path class="cls-3" d="M564.83,180.82c-12.59,10.9-19.37,5.49-19.37,5.49a18.16,18.16,0,0,0,1.94-9.94,11.24,11.24,0,0,1-12.59,4.44c-8.4-2.33-4.52-29.62-4.52-29.62,6.14-2.26,7.43-3.87,7.43-3.87a11.16,11.16,0,0,0,9.4-1.61c10.69-1.62,9.32,3.87,9.32,3.87,10-1.62-.32,10.65-.32,10.65s-1.62,7.1,1,7.75,5.49-2.71,5.49-2.71C564.18,178.71,564.83,180.82,564.83,180.82Z"/><path class="cls-4" d="M569.35,151.2s0,12.92-6.78,14.08c0,0-2.91,3.35-5.49,2.71s-1-7.75-1-7.75,10.33-12.27.32-10.65c0,0,1.38-5.49-9.32-3.87a11.16,11.16,0,0,1-9.4,1.61s-1.29,1.62-7.43,3.87c0,0-13.88-4.25-3.87-17,0,0,15.17-10.14,30.35-5.62C556.76,128.6,573.22,131.83,569.35,151.2Z"/><path class="cls-5" d="M581.61,284s-1,.88-2.91,2.27h0c-7.41,5.44-28.06,18.77-52.13,17.84q-1.87-.07-3.78-.26s-3.38-65.13,4.25-85.61c1.18-3.16,2.37-6.31,3.46-9.5,2-5.91,6.34-15.26,15-22.46,0,0,6.78,5.41,19.37-5.49,0,0,14.21,7.18,16.78,27.19S578.06,270.63,581.61,284Z"/><path class="cls-6" d="M482.52,270s1.29,12.49,5.16,15.76S523,276.44,523,276.44V248.68S498.66,267.08,482.52,270Z"/><path class="cls-7" d="M564.33,339.06a8.5,8.5,0,0,1-.25,1.22c0,.12,0,.23,0,.35a.09.09,0,0,0,0,0,134.56,134.56,0,0,0-1.94,20c-.95,31.89-2.45,71.35-3.16,89.54-.07,1.77-.14,3.34-.18,4.69-.14,3.44-.21,5.37-.21,5.37a41.16,41.16,0,0,1-4,1.72,32.08,32.08,0,0,1-16.15,1.78,27.79,27.79,0,0,1-3.48-.79h0a16.29,16.29,0,0,1-2.78-1.09c-2.26-18.21-5.49-109.62-5.49-109.62-2.59-12.91,0-48.11,0-48.11l.15,0c24.06.93,44.72-12.4,52.13-17.84C578.35,310.59,568.85,316.14,564.33,339.06Z"/><path class="cls-8" d="M574.45,448.66a12.17,12.17,0,0,1-2,2c-5.76,4.53-13.78,2.21-13.78,2.21,0-.77.06-1.63.1-2.55.67-17.06,2.26-58.49,3.24-91.68a134.55,134.55,0,0,1,1.94-20C561.08,362.79,574.45,448.66,574.45,448.66Z"/><path class="cls-9" d="M572.83,466.6a123,123,0,0,1-17.22,4.74,29.91,29.91,0,0,0-1.11-10.28,41.16,41.16,0,0,0,4-1.72s.08-1.94.21-5.37c0-1.35.12-2.91.18-4.69l.83,0c0,.92-.07,1.77-.1,2.55,0,0,8,2.32,13.78-2.21C574.92,457.18,572.83,466.6,572.83,466.6Z"/><path class="cls-9" d="M555.61,471.34a57.11,57.11,0,0,1-1.11,9.1c-23.24,8.4-49.71,8.08-49.71,8.08s-3.55-6.46,12.59-13c2-.81,3.82-1.63,5.41-2.41,11.11-5.48,12.34-9.92,12.34-9.92l3.21-.36a32.08,32.08,0,0,0,16.15-1.78A29.91,29.91,0,0,1,555.61,471.34Z"/><path class="cls-10" d="M505.27,157.52l-14-16.08h-53a5.08,5.08,0,0,1-5.08-5.08V95a5.08,5.08,0,0,1,5.08-5.08h58.5A5.08,5.08,0,0,1,501.8,95v41.4Z"/><path class="cls-3" d="M483,273.11l-13.06,2.55,4.33,16.51s9.42-3.42,13.21-5.94Z"/><path class="cls-6" d="M566.12,266.28s-12.91,57.62-19.75,57.94a10.25,10.25,0,0,1-2.19-.16c-5.21-.89-12.33-5.07-15.76-7.23-1.25-.79-2-1.32-2-1.32,3.55-2.59,17.11-60,18.4-63.26s2.3-43.91,2.3-43.91c3.58-12.91,25.73-20.74,27.08,1.62S566.12,266.28,566.12,266.28Z"/><path class="cls-3" d="M543.62,333.58c-1.61,5.48-4.19,5.48-4.19,5.48s-16.78-1.61-16.64-8.07c.11-4.67,3.66-11,5.63-14.18,3.43,2.16,10.55,6.34,15.76,7.23A27.48,27.48,0,0,1,543.62,333.58Z"/><path class="cls-11" d="M450.56,279.35s11.3-6.46,15.82-6.46,3.23,3.23,3.23,3.23,8.07,1,11,4.84-9.68,14.2-9.68,14.2-16.66-.58-22.37-5.13Z"/><path class="cls-3" d="M449.76,290.21s8.73,9.49,18,9.16a16.15,16.15,0,0,0,4-5.45s-12.67-5-16.14-9C455.62,285,451.62,287.16,449.76,290.21Z"/><path class="cls-12" d="M453.2,473.22a17.37,17.37,0,0,1-2.61.91c-6.12,1.78-24.09,5.29-65.06,2.41,0,0-5.08-35.67-2.54-56l67.24-2.28,1.28,0s.29,2.37.68,6.15C453.48,436.88,456,464.78,453.2,473.22Z"/><path class="cls-13" d="M464.4,467.08s-1.88,4.8-13.81,7h0a17.37,17.37,0,0,0,2.61-.91c2.76-8.44.29-36.34-1-48.83-.39-3.78-.68-6.15-.68-6.15l-1.28,0c3.48-3.6,9.4-9.46,12.7-11C462.92,407.24,467.15,440.65,464.4,467.08Z"/><path class="cls-14" d="M413.36,412.11s-3.18-16.18,3.16-16.81,14.8-3,22.84-1.27c0,0,3.58-1.2,1.9,17.16"/><path class="cls-15" d="M462.92,407.24c-3.3,1.57-9.22,7.43-12.7,11L383,420.56a33.41,33.41,0,0,1,11.21-10.78S437.34,405.13,462.92,407.24Z"/><path class="cls-14" d="M404.78,419.82s-3.18-16.18,3.16-16.81,14.8-3,22.84-1.27c0,0,3.58-1.2,1.9,17.16"/><path class="cls-11" d="M392.46,166.37c-3.87,14-17.91,2.91-17.91,2.91s.48,11.14,2.42,13.07c0,0-8.72,2.91-16.95-6.78v-8.72h0c.41.13,7.24,2.18,7.24-5.34,0,0-8.23-8.72,0-9.2,0,0,6.78,3.39,2.91-10.17,0,0,14-7.26,22.27-5.81C392.46,136.35,396.33,152.33,392.46,166.37Z"/><path class="cls-16" d="M389.07,300.62s-17.91,8.58-53.74-17.08c0,0,2.42-92,9.68-100.71s14-9.2,14-9.2,4.84,8.72,16.95,6.78C376,180.41,399.24,165.19,389.07,300.62Z"/><path class="cls-17" d="M367.17,459.15h0c-1.39.45-2.73.82-4,1.14-8.94,2.26-15.53,1.82-20,.69-5.33-1.33-7.77-3.62-7.77-3.62,2.42-34.86,11.84-89.57,11.84-89.57-3.59-11.95-.09-37.07,0-37.7,4.17,18.27,9.71,39,16.32,55.61C363.49,385.7,361.61,407,367.17,459.15Z"/><path class="cls-18" d="M392.46,136.35c-8.23-1.45-22.27,5.81-22.27,5.81,3.87,13.56-2.91,10.17-2.91,10.17-8.23.48,0,9.2,0,9.2,0,7.51-6.84,5.46-7.24,5.34h0c-8.47-.48-12.59-28.81-4.6-38.87s21.68-8.34,21.68-8.34,18.75-1,20,7.26S392.46,136.35,392.46,136.35Z"/><path class="cls-9" d="M401.17,483.67c.32,6.78-28.4-.33-31.87-3.55s0-13.64,0-13.64c2.25,2.15,7.2,5.27,16.37,4C385.68,470.44,400.85,476.9,401.17,483.67Z"/><path class="cls-9" d="M374.38,476.49s-17.1-.89-26.47-1.86S343.09,461,343.09,461c4.51,1.13,11.11,1.57,20-.69h0C382.93,473.08,374.38,476.49,374.38,476.49Z"/><path class="cls-16" d="M359.05,213.82s6.78,53.74,36.31,64.88a255.9,255.9,0,0,0,53.74,14l2.42-16.95s-37.77-16.95-54.23-22.51c0,0-4.53-46.18-11.28-64.45C386,188.83,358.08,174.6,359.05,213.82Z"/><path class="cls-17" d="M385.68,470.44c-9.17,1.31-14.13-1.81-16.37-4a8.92,8.92,0,0,1-1.54-1.85c-.21-1.86-.41-3.68-.6-5.47h0c-5.56-52.17-3.68-73.44-3.68-73.44-6.6-16.61-12.14-37.34-16.32-55.61h0c-5.55-24.35-8.68-44.33-8.68-44.33,31.72,18.67,46.73,15.89,46.73,15.89a360.13,360.13,0,0,1,1.45,69.86,119.1,119.1,0,0,0,0,19.49C389.76,429.21,385.68,470.44,385.68,470.44Z"/><path class="cls-19" d="M363.95,192.84c-7.25,26.35-.19,53.14,11.71,77,.72,1.44,2.88.17,2.16-1.26-11.59-23.22-18.52-49.36-11.45-75a1.25,1.25,0,0,0-2.41-.66Z"/><path class="cls-20" d="M456.44,108.6c1.31-3.75,6.72-8.24,10-3.41,1.12,1.65,1.72,6.91-.26,8.33-1.64,1.17-5.51-.06-7.52.62a4.31,4.31,0,0,0-3,2.69c-1.12,3.35,2.16,6.72,4.31,8.8,3.17,3.07,6.48,4.63,10.88,4,3.17-.44,1.82-5.26-1.33-4.82s-5.12-1.95-7.1-3.87c-2.48-2.41-2.65-2,.74-2.24,2.21-.16,4.95.05,6.82-1.37,3.19-2.42,2.76-8.9,1.74-12.3a9.51,9.51,0,0,0-9.69-6.87c-5.32.24-8.8,4.4-10.44,9.09-1.06,3,3.77,4.35,4.82,1.33Z"/><line class="cls-21" x1="448.73" y1="100.57" x2="477.12" y2="100.57"/><line class="cls-21" x1="459.62" y1="109.43" x2="474.57" y2="109.43"/></svg>