<svg xmlns="http://www.w3.org/2000/svg" viewBox="0 0 128 128"><defs><style>.a{fill:#293b52;}</style></defs><title>img_logo</title><path class="a" d="M102.9929,49.8227H87.0089a9.7516,9.7516,0,0,0-19.4126-.0988l-.0094.0988H51.5479a9.7816,9.7816,0,0,0-9.6064-8.8635,8.5329,8.5329,0,0,0-2.4543.2844,9.699,9.699,0,0,0-2.228.8568,9.85,9.85,0,0,0-3.4744,3.114,9.7394,9.7394,0,0,0-1.6589,4.6083H16.1436a25.3565,25.3565,0,0,1,3.732-12.4683,25.9841,25.9841,0,0,1,9.3714-9.0551A25.696,25.696,0,0,1,41.8369,25h.0744a25.6576,25.6576,0,0,1,17.0639,6.5479l.5922.53.5922-.53a25.7057,25.7057,0,0,1,42.8333,18.2748Z"/><path class="a" d="M32.1206,25l-.33.1277A27.64,27.64,0,0,0,16.2553,40.6631l-.1276.33V25Z"/><path class="a" d="M111.8723,77.305A25.7416,25.7416,0,0,1,87.05,103V87.016A9.7528,9.7528,0,0,0,94.1775,71.75q-.1038-.1491-.213-.2943l-.5319-.7092-.7092.5319A25.7152,25.7152,0,0,1,51.6046,51.5957H67.5851a9.7529,9.7529,0,0,0,19.4238,0h15.984a25.8268,25.8268,0,0,1-.6791,5.0657l-.1259.5336.422.3511A25.6524,25.6524,0,0,1,111.8723,77.305Z"/></svg>