<svg xmlns="http://www.w3.org/2000/svg" viewBox="0 0 980.1767 128"><defs><style>.a{fill:#293b52;}</style></defs><title>img_wordmark</title><path class="a" d="M110.6386,49.8227H94.6546a9.7515,9.7515,0,0,0-19.4125-.0988l-.0095.0988H59.1936a9.7815,9.7815,0,0,0-9.6063-8.8635,8.5329,8.5329,0,0,0-2.4543.2844,9.6973,9.6973,0,0,0-2.228.8568,9.8487,9.8487,0,0,0-3.4744,3.114,9.74,9.74,0,0,0-1.659,4.6083H23.7894a25.3574,25.3574,0,0,1,3.7319-12.4683,25.9852,25.9852,0,0,1,9.3715-9.0551A25.6954,25.6954,0,0,1,49.4826,25h.0745a25.6572,25.6572,0,0,1,17.0638,6.5479l.5922.53.5922-.53a25.7056,25.7056,0,0,1,42.8333,18.2748Z"/><path class="a" d="M39.7663,25l-.33.1277A27.64,27.64,0,0,0,23.9011,40.6631l-.1277.33V25Z"/><path class="a" d="M119.5181,77.305A25.7416,25.7416,0,0,1,94.6954,103V87.016a9.7527,9.7527,0,0,0,7.1278-15.266q-.1038-.1491-.2129-.2943l-.5319-.7092-.7092.5319A25.7152,25.7152,0,0,1,59.25,51.5957H75.2309a9.7528,9.7528,0,0,0,19.4237,0h15.984a25.8267,25.8267,0,0,1-.679,5.0657l-.1259.5336.422.3511A25.6524,25.6524,0,0,1,119.5181,77.305Z"/><path class="a" d="M159.4469,42.0322a3.6126,3.6126,0,0,1,3.61,3.6094,3.5493,3.5493,0,0,1-1.0586,2.6133,3.4764,3.4764,0,0,1-2.5518,1.0586,3.6158,3.6158,0,0,1-3.6718-3.6719,3.476,3.476,0,0,1,1.0586-2.5518A3.55,3.55,0,0,1,159.4469,42.0322Zm2.5518,40.1407H157.02V53.8564h4.9785Z"/><path class="a" d="M193.9245,82.1729H188.946V67.3613a10.6311,10.6311,0,0,0-1.8672-6.7217,6.4206,6.4206,0,0,0-5.3526-2.3642q-7.2817,0-7.2812,9.335V82.1729h-4.9785V66.2412a13.0148,13.0148,0,0,1,3.36-9.3349,11.7632,11.7632,0,0,1,8.9619-3.5479,11.5645,11.5645,0,0,1,8.8057,3.5166,12.9746,12.9746,0,0,1,3.33,9.3037Z"/><path class="a" d="M204.5036,82.1729h-4.9785V51.8818q0-11.2821,11.3261-11.2812h4.1075v4.2939h-3.1739q-3.7968,0-5.539,1.6924t-1.7422,5.2637V54.043h10.4551v4.3564H204.5036Z"/><path class="a" d="M230.7028,53.3584a13.9909,13.9909,0,0,1,10.3311,4.3564,14.4382,14.4382,0,0,1,4.2939,10.5176,13.94,13.94,0,0,1-4.2939,10.2061,14.086,14.086,0,0,1-10.3311,4.2949,14.5089,14.5089,0,0,1-10.58-4.2949,14.1979,14.1979,0,0,1-4.3564-10.5176,13.9153,13.9153,0,0,1,4.3564-10.2686A14.5119,14.5119,0,0,1,230.7028,53.3584Zm0,4.917a9.5175,9.5175,0,0,0-6.9082,2.8,9.2117,9.2117,0,0,0-2.8623,6.8457,9.676,9.676,0,0,0,9.8945,9.8955,8.8639,8.8639,0,0,0,6.5352-2.8623,9.3,9.3,0,0,0,2.8008-6.7217,9.837,9.837,0,0,0-2.77-7.0635A8.9213,8.9213,0,0,0,230.7028,58.2754Z"/><path class="a" d="M255.2848,82.1729h-4.9785V53.9189h4.9785v4.9786a9.7117,9.7117,0,0,1,9.211-5.6016h1.8672v4.6885h-.9961q-5.2281,0-7.6553,2.75t-2.4268,8.625Z"/><path class="a" d="M308.7438,82.1729h-4.9785V65.2451a7.5368,7.5368,0,0,0-1.6182-5.1035,5.5453,5.5453,0,0,0-4.4189-1.8662q-3.2988,0-4.4805,1.7734a9.4726,9.4726,0,0,0-1.4316,2.8623,15.8382,15.8382,0,0,0-.249,3.2676V82.1729h-4.9786V65.6807q0-7.4049-6.2851-7.4053-3.1743,0-4.3877,1.8047a8.8034,8.8034,0,0,0-1.4,2.7383,17.8734,17.8734,0,0,0-.1865,3.1113V82.1729h-4.9795v-16.99a17.6906,17.6906,0,0,1,.5918-5.2275,11.9979,11.9979,0,0,1,2.8935-4.2q2.3028-2.395,7.22-2.3965a9.9655,9.9655,0,0,1,9.0859,5.2275,9.64,9.64,0,0,1,8.8994-5.2275A10.204,10.204,0,0,1,305.85,56.44a11.558,11.558,0,0,1,2.8935,8.246Z"/><path class="a" d="M342.1637,82.1729h-4.9785V69.7881a12.57,12.57,0,0,0-2.6455-8.37,8.834,8.834,0,0,0-7.125-3.1426,9.2072,9.2072,0,0,0-6.8457,2.8623,9.5962,9.5962,0,0,0-2.8008,6.9707,9.568,9.568,0,0,0,9.7705,9.708q3.7339,0,7.5928-3.4228v5.29a13.1075,13.1075,0,0,1-3.8584,2.3652,12.65,12.65,0,0,1-4.3564.6846,13.7018,13.7018,0,0,1-10.1446-4.2324,14.8782,14.8782,0,0,1,.1553-20.8174,14.356,14.356,0,0,1,10.5488-4.3252,13.9456,13.9456,0,0,1,10.5176,4.3564,15.3736,15.3736,0,0,1,4.17,11.0782Z"/><path class="a" d="M352.4938,58.3994V71.5928q0,3.6738,1.3067,4.917,1.3065,1.245,5.29,1.2441h2.4267v4.419h-2.6757q-6.4733,0-8.8994-2.24t-2.4268-8.1533V45.4551h4.9785V54.043h9.0234v4.3564Z"/><path class="a" d="M370.3551,42.0322a3.6126,3.6126,0,0,1,3.61,3.6094,3.5493,3.5493,0,0,1-1.0586,2.6133,3.4764,3.4764,0,0,1-2.5518,1.0586,3.6158,3.6158,0,0,1-3.6718-3.6719,3.476,3.476,0,0,1,1.0586-2.5518A3.55,3.55,0,0,1,370.3551,42.0322Zm2.5518,40.1407h-4.9785V53.8564h4.9785Z"/><path class="a" d="M393.568,53.3584a13.9908,13.9908,0,0,1,10.3311,4.3564,14.4382,14.4382,0,0,1,4.2939,10.5176,13.94,13.94,0,0,1-4.2939,10.2061,14.0858,14.0858,0,0,1-10.3311,4.2949,14.5085,14.5085,0,0,1-10.58-4.2949,14.198,14.198,0,0,1-4.3565-10.5176,13.9154,13.9154,0,0,1,4.3565-10.2686A14.5115,14.5115,0,0,1,393.568,53.3584Zm0,4.917a9.5177,9.5177,0,0,0-6.9082,2.8,9.2117,9.2117,0,0,0-2.8623,6.8457,9.6762,9.6762,0,0,0,9.8946,9.8955,8.8639,8.8639,0,0,0,6.5351-2.8623,9.3,9.3,0,0,0,2.8008-6.7217,9.8369,9.8369,0,0,0-2.7695-7.0635A8.9215,8.9215,0,0,0,393.568,58.2754Z"/><path class="a" d="M436.5094,82.1729h-4.9785V67.3613a10.6305,10.6305,0,0,0-1.8672-6.7217,6.4205,6.4205,0,0,0-5.3525-2.3642q-7.2817,0-7.2813,9.335V82.1729h-4.9785V66.2412a13.0145,13.0145,0,0,1,3.36-9.3349,11.7629,11.7629,0,0,1,8.9619-3.5479,11.5646,11.5646,0,0,1,8.8057,3.5166,12.9745,12.9745,0,0,1,3.33,9.3037Z"/><path class="a" d="M500.235,82.1729h-4.9785V65.2451a7.5368,7.5368,0,0,0-1.6182-5.1035,5.5453,5.5453,0,0,0-4.4189-1.8662q-3.2988,0-4.4805,1.7734a9.4726,9.4726,0,0,0-1.4316,2.8623,15.8382,15.8382,0,0,0-.249,3.2676V82.1729H478.08V65.6807q0-7.4049-6.2851-7.4053-3.1743,0-4.3877,1.8047a8.8034,8.8034,0,0,0-1.4,2.7383A17.8734,17.8734,0,0,0,465.82,65.93V82.1729h-4.9795v-16.99a17.694,17.694,0,0,1,.5918-5.2275,11.9979,11.9979,0,0,1,2.8935-4.2q2.3028-2.395,7.22-2.3965a9.9655,9.9655,0,0,1,9.0859,5.2275,9.64,9.64,0,0,1,8.8994-5.2275,10.204,10.204,0,0,1,7.8106,3.0811,11.558,11.558,0,0,1,2.8935,8.246Z"/><path class="a" d="M533.654,82.1729h-4.9785V69.7881a12.57,12.57,0,0,0-2.6456-8.37,8.8338,8.8338,0,0,0-7.125-3.1426,9.2073,9.2073,0,0,0-6.8457,2.8623,9.5965,9.5965,0,0,0-2.8007,6.9707,9.5679,9.5679,0,0,0,9.77,9.708q3.7338,0,7.5927-3.4228v5.29a13.1063,13.1063,0,0,1-3.8584,2.3652,12.65,12.65,0,0,1-4.3564.6846,13.7016,13.7016,0,0,1-10.1445-4.2324,14.8781,14.8781,0,0,1,.1552-20.8174,14.3563,14.3563,0,0,1,10.5489-4.3252,13.9454,13.9454,0,0,1,10.5175,4.3564,15.3737,15.3737,0,0,1,4.17,11.0782Z"/><path class="a" d="M563.651,82.1729h-4.9785V67.3613a10.6305,10.6305,0,0,0-1.8672-6.7217,6.4205,6.4205,0,0,0-5.3525-2.3642q-7.2818,0-7.2813,9.335V82.1729H539.193V66.2412a13.0145,13.0145,0,0,1,3.36-9.3349,11.7629,11.7629,0,0,1,8.9619-3.5479,11.5646,11.5646,0,0,1,8.8057,3.5166,12.9745,12.9745,0,0,1,3.33,9.3037Z"/><path class="a" d="M597.07,82.1729h-4.9785V69.7881a12.57,12.57,0,0,0-2.6455-8.37,8.834,8.834,0,0,0-7.125-3.1426,9.207,9.207,0,0,0-6.8457,2.8623,9.5962,9.5962,0,0,0-2.8008,6.9707,9.568,9.568,0,0,0,9.7705,9.708q3.7338,0,7.5928-3.4228v5.29a13.1088,13.1088,0,0,1-3.8584,2.3652,12.651,12.651,0,0,1-4.3565.6846,13.7016,13.7016,0,0,1-10.1445-4.2324,14.8782,14.8782,0,0,1,.1553-20.8174,14.3559,14.3559,0,0,1,10.5488-4.3252A13.9457,13.9457,0,0,1,592.9,57.7148a15.3736,15.3736,0,0,1,4.17,11.0782Z"/><path class="a" d="M606.0319,94.6816l.4355-4.48a30.2173,30.2173,0,0,0,8.5264,1.4316q5.9106,0,7.7481-2.49a12.2525,12.2525,0,0,0,2.2089-4.1074,20.5455,20.5455,0,0,0,.3731-4.418V69.9131q0-5.4156-2.5508-8.5264a8.6029,8.6029,0,0,0-7.0332-3.1113,9.3025,9.3025,0,0,0-6.9385,2.831,9.6241,9.6241,0,0,0-2.7695,7.002,9.493,9.493,0,0,0,2.7383,6.9072,10.0523,10.0523,0,0,0,10.61,2.1162,17.7409,17.7409,0,0,0,3.9522-2.8007v5.166a18.8878,18.8878,0,0,1-4.2627,2.5517,11.6621,11.6621,0,0,1-4.2012.6846,13.182,13.182,0,0,1-9.8642-4.3262,14.38,14.38,0,0,1-4.1387-10.2988,14.2092,14.2092,0,0,1,4.3252-10.4248A14.356,14.356,0,0,1,615.74,53.3584a13.6021,13.6021,0,0,1,10.5176,4.4189q4.0444,4.4194,4.0459,11.5127V81.4883q0,6.9083-3.7969,10.7666t-10.58,3.8584A40.0409,40.0409,0,0,1,606.0319,94.6816Z"/><path class="a" d="M660.0505,69.1035l3.4843,1.93q-3.4233,11.7012-14.625,11.7A14.3111,14.3111,0,0,1,638.485,78.47a14.8747,14.8747,0,0,1-.0928-20.8789A14.2775,14.2775,0,0,1,648.91,53.3584q8.3394,0,13.0694,8.4014l-18.11,11.8252-2.1172-3.6729,13.7578-9.2051a8.08,8.08,0,0,0-6.5976-2.8681,9.1851,9.1851,0,0,0-6.8477,2.8007,9.73,9.73,0,0,0-2.7383,7.0948,10.3234,10.3234,0,0,0,2.9873,7.4062,9.5692,9.5692,0,0,0,7.1563,3.1114,9.8381,9.8381,0,0,0,6.66-2.3643A13.176,13.176,0,0,0,660.0505,69.1035Z"/><path class="a" d="M706.7253,82.1729h-4.9786V65.2451a7.5373,7.5373,0,0,0-1.6181-5.1035,5.5455,5.5455,0,0,0-4.419-1.8662q-3.2988,0-4.48,1.7734a9.4733,9.4733,0,0,0-1.4317,2.8623,15.8382,15.8382,0,0,0-.249,3.2676V82.1729H684.57V65.6807q0-7.4049-6.2852-7.4053-3.1743,0-4.3877,1.8047a8.808,8.808,0,0,0-1.4,2.7383A17.8734,17.8734,0,0,0,672.31,65.93V82.1729h-4.98v-16.99a17.694,17.694,0,0,1,.5918-5.2275,11.9984,11.9984,0,0,1,2.8936-4.2q2.3026-2.395,7.22-2.3965a9.9655,9.9655,0,0,1,9.0859,5.2275,9.64,9.64,0,0,1,8.8995-5.2275,10.2039,10.2039,0,0,1,7.81,3.0811,11.5581,11.5581,0,0,1,2.8936,8.246Z"/><path class="a" d="M736.4733,69.1035l3.4844,1.93q-3.4233,11.7012-14.625,11.7A14.3111,14.3111,0,0,1,714.9079,78.47a14.8747,14.8747,0,0,1-.0928-20.8789,14.2775,14.2775,0,0,1,10.5176-4.2324q8.3392,0,13.0693,8.4014l-18.11,11.8252-2.1172-3.6729,13.7578-9.2051a8.08,8.08,0,0,0-6.5977-2.8681A9.1848,9.1848,0,0,0,718.487,60.64a9.73,9.73,0,0,0-2.7383,7.0948,10.3229,10.3229,0,0,0,2.9873,7.4062,9.569,9.569,0,0,0,7.1562,3.1114,9.8381,9.8381,0,0,0,6.66-2.3643A13.1753,13.1753,0,0,0,736.4733,69.1035Z"/><path class="a" d="M768.15,82.1729h-4.9786V67.3613a10.6311,10.6311,0,0,0-1.8671-6.7217,6.4207,6.4207,0,0,0-5.3526-2.3642q-7.2818,0-7.2812,9.335V82.1729h-4.9785V66.2412a13.0148,13.0148,0,0,1,3.36-9.3349,11.7629,11.7629,0,0,1,8.9619-3.5479A11.5645,11.5645,0,0,1,764.82,56.875a12.9746,12.9746,0,0,1,3.33,9.3037Z"/><path class="a" d="M778.5426,58.3994V71.5928q0,3.6738,1.3067,4.917,1.3067,1.245,5.29,1.2441h2.4268v4.419H784.89q-6.4731,0-8.8994-2.24t-2.4268-8.1533V45.4551h4.9785V54.043h9.0235v4.3564Z"/><path class="a" d="M814.0768,94.6816l.4356-4.48a30.2161,30.2161,0,0,0,8.5263,1.4316q5.9108,0,7.7481-2.49a12.255,12.255,0,0,0,2.209-4.1074,20.553,20.553,0,0,0,.373-4.418V69.9131q0-5.4156-2.5508-8.5264a8.6029,8.6029,0,0,0-7.0332-3.1113,9.3024,9.3024,0,0,0-6.9384,2.831,9.6242,9.6242,0,0,0-2.77,7.002,9.493,9.493,0,0,0,2.7383,6.9072,10.0525,10.0525,0,0,0,10.61,2.1162,17.7408,17.7408,0,0,0,3.9521-2.8007v5.166a18.8878,18.8878,0,0,1-4.2627,2.5517,11.6621,11.6621,0,0,1-4.2012.6846,13.1823,13.1823,0,0,1-9.8642-4.3262,14.38,14.38,0,0,1-4.1387-10.2988,14.2092,14.2092,0,0,1,4.3252-10.4248,14.356,14.356,0,0,1,10.5488-4.3252,13.6021,13.6021,0,0,1,10.5176,4.4189q4.0444,4.4194,4.0459,11.5127V81.4883q0,6.9083-3.7969,10.7666t-10.58,3.8584A40.0417,40.0417,0,0,1,814.0768,94.6816Z"/><path class="a" d="M850.0475,82.1729H845.069V53.9189h4.9785v4.9786a9.7117,9.7117,0,0,1,9.211-5.6016h1.8671v4.6885h-.996q-5.2281,0-7.6553,2.75t-2.4268,8.625Z"/><path class="a" d="M877.2438,53.3584a13.9909,13.9909,0,0,1,10.3311,4.3564,14.4382,14.4382,0,0,1,4.2939,10.5176,13.94,13.94,0,0,1-4.2939,10.2061,14.086,14.086,0,0,1-10.3311,4.2949,14.5089,14.5089,0,0,1-10.58-4.2949,14.1979,14.1979,0,0,1-4.3564-10.5176,13.9153,13.9153,0,0,1,4.3564-10.2686A14.5119,14.5119,0,0,1,877.2438,53.3584Zm0,4.917a9.5175,9.5175,0,0,0-6.9082,2.8,9.2117,9.2117,0,0,0-2.8623,6.8457,9.6762,9.6762,0,0,0,9.8945,9.8955,8.8639,8.8639,0,0,0,6.5352-2.8623,9.3,9.3,0,0,0,2.8008-6.7217,9.837,9.837,0,0,0-2.77-7.0635A8.9212,8.9212,0,0,0,877.2438,58.2754Z"/><path class="a" d="M915.2057,53.9189h4.9785V69.9746a12.7931,12.7931,0,0,1-3.3613,9.2734,13.0245,13.0245,0,0,1-17.7363,0,12.7968,12.7968,0,0,1-3.36-9.2734V53.9189h4.9785V68.793a10.5059,10.5059,0,0,0,1.8672,6.6582,6.345,6.345,0,0,0,5.29,2.3652,7.1811,7.1811,0,0,0,3.5156-.8711,7.4727,7.4727,0,0,0,2.707-2.6455q1.1206-1.7724,1.1211-5.9434Z"/><path class="a" d="M925.7848,95.4912V69.19a16.0987,16.0987,0,0,1,4.1074-11.4053,13.856,13.856,0,0,1,10.6417-4.4258,14.2262,14.2262,0,0,1,10.5488,4.3252,14.5392,14.5392,0,0,1,4.2627,10.6113,14.0416,14.0416,0,0,1-4.2315,10.2061,13.6685,13.6685,0,0,1-10.082,4.2939,13.0243,13.0243,0,0,1-8.2148-3.0488v-5.415a16.9106,16.9106,0,0,0,3.9209,2.7382,9.0365,9.0365,0,0,0,3.8584.81,9.182,9.182,0,0,0,6.8457-2.8008,10.24,10.24,0,0,0,0-13.94,8.8706,8.8706,0,0,0-6.6592-2.8623,9.8959,9.8959,0,0,0-4.6055,1.0908,10.3687,10.3687,0,0,0-3.7646,3.5215q-1.65,2.4316-1.6495,7.3564V95.4912Z"/></svg>